<?xml version="1.0" encoding="utf-8"?>
<!-- Generator: Adobe Illustrator 23.0.3, SVG Export Plug-In . SVG Version: 6.00 Build 0)  -->
<svg version="1.1" xmlns="http://www.w3.org/2000/svg" xmlns:xlink="http://www.w3.org/1999/xlink" x="0px" y="0px"
	 viewBox="0 0 439.7 805.5" style="enable-background:new 0 0 439.7 805.5;" xml:space="preserve">
<style type="text/css">
	.st0{fill:#AA2020;}
	.st1{fill:url(#SVGID_1_);}
	.st2{fill:none;}
	.st3{display:none;}
	.st4{display:inline;fill:url(#SVGID_3_);}
	.st5{display:inline;fill:none;}
	.st6{display:inline;}
</style>
<g id="Layer_3">
	<g>
		<g>
			<g>
				<g>
					<g>
						<path class="st0" d="M250.6,757.5c-3.8,0.2-2.4,0.3-3,0.4C253.9,757.4,250.4,757.4,250.6,757.5z"/>
						<path class="st0" d="M311.3,746.9l-1,0.3c2.9-0.8,5.8-1.6,8.8-2.4C316.5,745.6,313.9,746.3,311.3,746.9z"/>
						<path class="st0" d="M365.7,728c-2.5,1.1-7.2,3.4-12.6,5.7c-5.4,2.3-11.4,4.5-16.3,6l-1.6,0.4c-1.4,0.6-2.9,1.1-4.3,1.7
							c6-1.8,12.8-4.2,19-6.7C356.1,732.6,361.8,730,365.7,728z"/>
						<path class="st0" d="M389.5,708.2c-0.5,0.8,0.2-0.7,0.3-0.9c0-0.2-0.2,1.2-4.4,7c0.5-0.6,0.6-0.7,0.9-1.1
							c0.2-0.3,0.4-0.5,0.7-0.9c0.2-0.3,0.4-0.7,0.7-1.1C388.1,710.5,388.7,709.5,389.5,708.2z"/>
						<path class="st0" d="M386.2,713.3C382.3,718.4,388.9,710.1,386.2,713.3L386.2,713.3z"/>
						<path class="st0" d="M395.6,686.5c0,1.4-0.3,2.7-0.4,4.1c-0.1,0.7-0.1,1.4-0.3,2l-0.4,2c0.1-0.4,0.3-1.2,0.5-2
							c0.2-0.9,0.3-1.8,0.4-2.7c0.3-1.7,0.4-2.8,0.3-1.5c0.2-2.1,0.3-3.5,0.3-4.5c0-0.5,0-0.8,0-1c0-0.2,0-0.3,0-0.3
							c0,0,0,0.4-0.1,1.1C395.8,684.3,395.7,685.3,395.6,686.5z"/>
						<path class="st0" d="M395.7,678.8l0,4.2C395.7,682.3,395.7,681.2,395.7,678.8z"/>
						<path class="st0" d="M394.8,691.9c0.2-1.5,0.4-3,0.5-4.4l0.3-4.4c-0.1,1.2-0.3,1.3-0.3,4.1c0-0.4,0-0.1-0.1,0.7
							C395.1,688.6,395,690,394.8,691.9z"/>
						<path class="st0" d="M393.7,696.8c-0.3,1.1-0.7,2.3-1,3.3c-0.3,1-0.7,1.8-0.9,2.3c-0.2,0.5-0.3,0.6-0.1,0.1
							c0.1-0.5,0.7-1.6,1.2-3.6c-1.1,3.7-2.3,6.3-3.1,7.8c-0.4,0.8-0.6,1.3-0.8,1.7c-0.2,0.3-0.2,0.4-0.1,0.3
							C389,708.3,391.6,704.4,393.7,696.8z"/>
						<path class="st0" d="M368.2,726.3c-1.8,1-3.6,1.8-5.4,2.7c-1.5,0.8-3.1,1.5-4.6,2.3c1.2-0.6,3.8-1.7,6.1-2.9
							C366.5,727.3,368.3,726.2,368.2,726.3z"/>
						<path class="st0" d="M392.4,636.6c-0.1-0.5,0.1,2.7,0.1,3.3l0.8,5.8C393,642.7,392.3,637,392.4,636.6z"/>
						<path class="st0" d="M392.5,639.9l-1.2-8.7C392.2,639,392.4,640.4,392.5,639.9z"/>
						<path class="st0" d="M395.3,677.4c0.1,4.9-0.1,9.8-0.8,14.6c0.9-5.8,1-11.6,0.7-17.4L395.3,677.4z"/>
						<path class="st0" d="M381.2,604.5c1.2,1.3,2.1,2.7,3.1,4.1c-1.7-2.6-3.7-5-5.8-7.1C379.5,602.4,380.3,603.5,381.2,604.5z"/>
						<path class="st0" d="M363.8,589.7c3.3,1.8-4.3-2.9-0.8-0.9c-5.3-3.1-10.1-5.3-14.4-7.2C353.1,583.7,357.9,586,363.8,589.7z"/>
						<path class="st0" d="M341.5,578.4c2.3,1,4.6,2.1,7.2,3.2C346.2,580.5,343.9,579.4,341.5,578.4z"/>
						<path class="st0" d="M387.6,616.3c-0.1-0.3-0.3-0.8-0.6-1.8c-0.4-1-1.1-2.4-2.3-4.7c0.5,1.1,1,2.2,1.5,3.3
							c0.2,0.5,0.5,1,0.8,1.5C387.2,615.2,387.4,615.7,387.6,616.3z"/>
						<path class="st0" d="M386.2,613.2l-0.1-0.1c-0.9-1.7-1.6-3.2-2.4-4.2c-0.7-1.1-1.2-1.9-1.5-2.4c0.3,0.4,0.7,1.1,1.4,2.2
							c0.3,0.5,0.8,1.1,1.2,1.9C385.3,611.3,385.7,612.2,386.2,613.2z"/>
						<path class="st0" d="M388,617.2c-0.1-0.3-0.2-0.5-0.3-0.8C387.7,616.6,387.8,616.8,388,617.2z"/>
						<path class="st0" d="M393.8,654.2c-0.7-5.2-2.2-15.9-1.1-5.5C393.4,652.4,392.8,646.5,393.8,654.2z"/>
						<path class="st0" d="M389.1,621.4c0.9,3,1.3,6.2,1.8,9.3c0-0.2-0.1-1.9,0.3,0.7c-0.2-1.7-0.6-3.4-0.9-5
							c-0.2-0.8-0.3-1.7-0.5-2.5L389.1,621.4z"/>
						<path class="st0" d="M387.5,617l0.9,2.2c0.2,0.7,0.4,1.5,0.7,2.2c-0.3-1.1-0.6-2.3-1.1-3.4L387.5,617z"/>
						<path class="st0" d="M355.9,585.6c-3.7-1.8-7.7-3.7-12.2-5.8c4.8,2.3,9.8,4.7,14.5,7.3C358.9,587.3,361,588.3,355.9,585.6z"/>
						<path class="st0" d="M372.8,596.5c-0.2-0.2-0.5-0.4-0.7-0.6C372.6,596.2,372.9,596.6,372.8,596.5z"/>
						<path class="st0" d="M295.5,570.6c0.3,0,0.5,0,0.8-0.1c0.1,0,0.1,0,0.2-0.1L295.5,570.6z"/>
						<path class="st0" d="M359,587.5c1.8,1,3.2,1.8,4.4,2.5c1.2,0.7,2.2,1.3,3.2,2c-0.6-0.4-1.3-0.9-1.9-1.3
							c-0.7-0.4-1.4-0.8-2.1-1.2c-1.4-0.9-2.9-1.6-4.4-2.5C357.9,586.9,357.8,586.9,359,587.5z"/>
						<path class="st0" d="M328.6,573.2c1,0.3,2.1,0.8,3.2,1.2c1.1,0.5,2.3,0.9,3.4,1.4c-0.9-0.5-2.4-1-3.7-1.6
							c-0.7-0.3-1.3-0.5-1.8-0.7C329.2,573.3,328.8,573.2,328.6,573.2z"/>
						<path class="st0" d="M371,595c0.2,0.1,0.3,0.2,0.5,0.4C370.5,594.5,370.6,594.6,371,595z"/>
						<path class="st0" d="M371,595c-0.9-0.6-1.6-1.2-2.3-1.7c-0.7-0.5-1.5-0.9-2.2-1.4c2.1,1.3,3.9,2.7,5.6,3.9
							C371.7,595.6,371.3,595.2,371,595z"/>
						<path class="st0" d="M281,574.6c0.3-0.2,3.1-0.9,6.9-1.7c1.9-0.4,4.1-0.7,6.3-1.1c1.1-0.1,2.3-0.2,3.5-0.4
							c1.2-0.1,2.3-0.2,3.5-0.3c4.5-0.4,5.3-0.5,3.9-0.7c-0.7-0.1-1.9-0.1-3.4-0.2c-0.8,0-1.6,0-2.5,0c-0.9,0.1-1.9,0.1-2.9,0.2
							c-0.3,0.2-0.3,0-9.4,1.8c0.4-0.1,1-0.2,1.8-0.3c0.8-0.1,1.7-0.2,2.6-0.4c1-0.1,2-0.3,3-0.4c1-0.1,2.1-0.2,3-0.3
							c0.9-0.1,1.8-0.2,2.5-0.2c0.7,0,1.2,0,1.5,0c0.6,0,0.2,0.1-1.8,0.2c-6.1,0.7-8.6,1.2-10.3,1.4c-1.7,0.2-2.6,0.4-5.6,0.9
							c2.5-0.4-1.3,0.4-5.4,1.5c-4.1,1.1-8.4,2.4-7,2.2l5.2-1.4l5.2-1.3C281.8,574.3,278.1,575.3,281,574.6z"/>
						<path class="st0" d="M314.1,570.3c1.3,0.1,2.6,0.4,3.8,0.5c-1.1-0.2-2.1-0.3-3.1-0.5c-1-0.1-2-0.2-3-0.3
							c-2.1-0.3-4.3-0.3-7.2-0.4c-6.4,0.4-7.7,0.8-8.2,0.9c6.3-0.7,12.7-0.9,19-0.1C315,570.3,314.6,570.3,314.1,570.3z"/>
						<path class="st0" d="M334.6,575.6c-0.7-0.2-1.8-0.6-2.9-1c-1.1-0.4-2.3-0.8-3.3-1c-1.9-0.5-2.8-0.7-0.1,0.3
							c1.4,0.4,2.4,0.9,3.4,1.2c0.9,0.3,1.7,0.6,2.3,0.9c1.3,0.5,2.1,0.8,2.7,1.1c1.3,0.5,2.1,0.8,5.2,2.2c-8.2-3.8-7.1-3.2-5.3-2.5
							c1.8,0.7,4.2,1.7-1.8-1c1.6,0.7,3.2,1.4,4.7,2.1c1.5,0.7,2.9,1.3,4.2,2c-1.5-0.7-2.9-1.4-4.3-2.1c-1.4-0.7-2.8-1.3-4.2-1.9
							c0.1,0.1,0.3,0.1,0.4,0.2l0.1,0l0,0c0.7,0.3,0.9,0.5,0.1,0.1c-0.1,0-0.3-0.1-0.3-0.2C335.3,575.9,335,575.8,334.6,575.6
							c-4.9-1.9-0.7-0.4,0.8,0.3c0.1,0,0.2,0.1,0.2,0.1c0,0,0,0-0.1,0c-5.6-2.3-11.5-4.2-17.6-5.2
							C321.8,571.5,326.6,572.4,334.6,575.6z"/>
						<path class="st0" d="M391.1,639.2c-0.1-0.6,0-0.5,0-0.6C390.9,637.5,390.9,637.1,391.1,639.2z"/>
						<path class="st0" d="M390.3,631.8c0.2,1.3,0.4,2.4,0.9,6.6c0.4,3.7-0.1,0-0.2,0.2c0.4,2.5,1.3,8.9,0.4,0.9l-0.2-1.3
							c-0.2-1.8-0.4-3.7-0.6-5.6c-0.1-0.9-0.2-1.9-0.3-2.7c-0.1-0.9-0.3-1.7-0.4-2.5c-0.4-3.1-1-5.1-0.7-4.5c0.1,0.5,0.2,1,0.3,1.6
							c0.1,0.6,0.1,1.1,0.2,1.8c0.1,0.7,0.2,1.4,0.3,2.3c0.1,0.4,0.1,0.9,0.2,1.4C390.2,630.7,390.3,631.2,390.3,631.8z"/>
						<path class="st0" d="M370.7,595.6c-1-0.7-2-1.6-3.1-2.2l-3.2-2.1c-2.2-1.3-4.3-2.6-6.6-3.7c2.2,1.3,4.4,2.6,6.6,4l-0.3-0.3
							c1.8,1.2,3,2,3.9,2.6c0.9,0.6,1.4,1,1.7,1.2C370.4,595.5,370.3,595.3,370.7,595.6z"/>
						<path class="st0" d="M293.7,570.7c0.7-0.2,1.3-0.3,2-0.5c-1.5,0.2-2.9,0.5-4.3,0.8c-1.4,0.3-2.9,0.5-4.3,0.9
							C289.3,571.4,291.5,571.1,293.7,570.7z"/>
						<polygon class="st0" points="274.5,574.7 275.1,574.3 270.1,575.8 						"/>
						<path class="st0" d="M232.1,184.7l1.9-4.1C233.1,182.6,232.5,183.8,232.1,184.7z"/>
						<path class="st0" d="M212,207.7l-0.6,0.5C212.6,207.3,213.1,207,212,207.7z"/>
						<path class="st0" d="M316.3,446.3c5.4-3.6,11.3-7.8,10.5-7.5l-1.7,1.1C321.5,442.6,318.7,444.6,316.3,446.3z"/>
						<path class="st0" d="M223.1,326c0.6,0,1.3,0,1.9,0c1.6-0.2,3-0.3,4.3-0.4C227.5,325.6,225.4,325.8,223.1,326z"/>
						<path class="st0" d="M218.6,327c-2.8,0-5.7,0.1-8.5,0C212,327.1,214.8,327.1,218.6,327z"/>
						<path class="st0" d="M380.8,108.6c1.7-0.3,3.4-0.6,5-1C377.9,108.9,381.4,108.4,380.8,108.6z"/>
						<path class="st0" d="M104.4,529.2c-0.8-2.6-1.6-5-2.1-7.2c-0.3-1.1-0.6-2.1-0.8-3.1c-0.2-1-0.4-2-0.6-2.9
							c0.5,3.3,1.3,6.2,1.8,8.5C103.5,526.7,104,528.4,104.4,529.2z"/>
						<path class="st0" d="M228.4,197.1c1.7-2.3,2.1-3.4,2.1-3.3C229,196.3,227.9,197.5,228.4,197.1z"/>
						<path class="st0" d="M99.4,500.2c0,1,0,1.9,0,2.9l0.1,1.5c0,0.5,0.1,1,0.1,1.5c0.1,1,0.2,2,0.3,3.1c0.1,1.1,0.3,2.1,0.5,3.2
							c0.1,0.6,0.2,1.1,0.2,1.7c0.1,0.6,0.2,1.2,0.3,1.8C100.1,511.1,99.5,505.6,99.4,500.2z"/>
						<path class="st0" d="M76.8,13.5c0.4,0.2,1,0.4,1.3,0.6C78.2,14.1,77.7,13.8,76.8,13.5z"/>
						<path class="st0" d="M35.3,36.1c0.9-0.3,2-0.8,3.3-1.1c1.3-0.4,2.7-0.8,4.1-1c-0.7,0.1-1.6,0.3-2.8,0.6
							c-0.6,0.2-1.3,0.4-2.1,0.6C37.1,35.4,36.2,35.8,35.3,36.1z"/>
						<path class="st0" d="M198,590.6C202.1,590.5,198.6,590.6,198,590.6L198,590.6z"/>
						<path class="st0" d="M218,589.8c-0.9,0.2-1.5,0.3-1.6,0.4C216.7,590.1,217.3,590,218,589.8z"/>
						<path class="st0" d="M116.9,466.8c0.1,0,0.2-0.1,0.3-0.1C116,467.1,116.2,467,116.9,466.8z"/>
						<path class="st0" d="M204.1,590.5c-1.5,0.1-3.3,0.1-5.3,0.2C199.7,590.6,201.3,590.6,204.1,590.5z"/>
						<path class="st0" d="M203.3,590.4c1.4-0.1,2.5-0.1,3.6-0.2c0.3,0,0.3-0.1-0.2,0C206.1,590.3,205.1,590.3,203.3,590.4z"/>
						<path class="st0" d="M192.2,590.6c2.3,0,4.5,0.1,6.6,0.1c-0.8,0-1.1,0-0.9,0C196.8,590.6,195.1,590.6,192.2,590.6z"/>
						<path class="st0" d="M202.4,55.1c0.3,0,0.7,0.1,1.1,0.2c0.6,0.1,1,0.5,1.2,0.9c0.1,0.4,0,0.7,0,0.9c-0.1,0.4-0.1,0.5-0.1,0.3
							c0-0.1,0.1-0.3,0.1-0.5c0-0.2,0-0.5-0.1-0.8c-0.1-0.3-0.4-0.6-0.8-0.7C203.4,55.2,203,55.1,202.4,55.1z"/>
						<path class="st0" d="M387.9,366.5c-0.1,0.2-0.1,0.3-0.2,0.4c0.1-0.2,0.2-0.4,0.3-0.5L387.9,366.5z"/>
						<path class="st0" d="M393.8,353c-0.9,3-1.8,5.3-2.8,7.4c-0.9,2.1-1.9,3.9-3,6c0.9-1.3,1.9-2.7,2.8-4.1
							C391.9,359.3,392.9,356.2,393.8,353z"/>
						<path class="st0" d="M285.1,130.3c-3.2,1.5-6.3,3.1-9.4,4.9c5.4-3.5,10.4-5.9,12.8-7c2.4-1.1,2.2-1.1-2.3,0.8
							c-0.3,0.3-2.7,1.6-6.2,3.5c-3.4,2-7.9,4.6-12,7.6c-8.5,5.9-15.5,13.5-15.8,14.3l-2.4,2.5l-2.3,2.6c1.3-1.5,1.4-1.8,2.8-3.3
							c-2.3,2.5-3.8,4.3-4.9,5.8c-0.6,0.7-1,1.4-1.5,2c-0.4,0.6-0.8,1.3-1.2,1.9c-0.4,0.6-0.8,1.3-1.3,2.1c-0.5,0.8-1,1.6-1.6,2.6
							c-0.6,1-1.3,2.2-2.1,3.6c-0.4,0.7-0.8,1.4-1.3,2.3c-0.4,0.8-0.9,1.7-1.4,2.7c-0.7,1.3-1.3,2.6-1.9,3.7c-0.5,1.1-1,1.9-1.3,2.5
							c-0.5,1.2-0.6,1.2,0.2-0.7c-0.9,2-1.7,4.2-2.6,6.2c-0.8,2-2,3.8-3.3,5.5c-1.2,1.5-1.8,1.9-1.6,1.7c0.1-0.2,0.9-1,2.1-2.5
							c-4,5.2-9.6,9.2-15.4,12.6l0.1-0.1c-2.4,1.6-8.2,4.8-11,6.2c-4.7,2.1,2.3-1.2,1.1-0.7c-3.4,1.7-6.8,3.3-10.2,4.9
							c-4.3,1.6,4.3-2.1,11.3-5.6c-4.9,2-7,3-10.5,4.6c-3.5,1.6-8.4,3.9-19.1,8l9.9-4.1c-6.5,2.3-14.2,5.5-25.5,10
							c2.7-1.1,22.7-8.7,11.3-3.9c-3.2,1.3-7.5,3-13.5,5.7c-0.1-0.1-1.6,0.5-4,1.6c-2.4,1.1-5.7,2.6-9.4,4.5l0.4-0.5
							c-3.9,2-5.7,3.1-7,3.9c-1.3,0.8-2.3,1.5-4.5,2.9c-4.2,2.6-6.6,4.4-8.3,5.6c-0.8,0.6-1.5,1.1-2,1.5c-0.5,0.4-1,0.8-1.5,1.1
							c-1.5,1.4-2.4,2.4-2.9,3.1c-0.3,0.3-0.5,0.6-0.6,0.7c-0.1,0.1-0.2,0.2-0.2,0.2c0,0,0.2-0.2,0.6-0.6c0.3-0.3,0.8-0.8,1.2-1.2
							c0.9-0.8,1.7-1.6,1.5-1.3c-0.2,0.3-1.7,1.5-4.5,5.4c-1.9,2.8-3.3,5.7-4,8.7c-0.7,3-0.8,6.1-0.4,9.1c0.9,6.1,3.9,11.9,8.7,18.2
							c1.4,1.9,2,2.7,2.3,2.9c0.2,0.3-0.1,0-0.5-0.4c-0.8-0.8-1.9-2.3-1-1c0.9,1.1,1.8,2,2.8,3.1c0.9,1,2,1.9,3,2.9c0.7,0.7,1,1,1,1
							c0,0-0.2-0.1-0.3-0.2c2.7,2.2,2.8,2.3,3.3,2.6c0.3,0.2,0.7,0.4,1.5,1c0.4,0.3,1,0.7,1.7,1.2c0.7,0.5,1.6,1.1,2.8,1.8
							c1.3,0.7,6,3.7,12.2,6.4c6.3,2.8,14.1,5,20.7,6.1c3.2,0.7-1.6-0.1-0.6,0.2c1.1,0.2,2.2,0.4,3.1,0.6c1,0.1,1.9,0.3,2.7,0.4
							c0.8,0.1,1.6,0.2,2.4,0.3c0.7,0.1,1.4,0.2,2,0.2c2.5,0.3,4.4,0.5,6.1,0.6c3.5,0.3,6.6,0.5,14.1,0.6c2.1,0.1,4.2,0.2,6.4,0.3
							c2.1,0.1,4.2,0.1,6.4,0.1c-9.4-0.2,2.6-0.4,13-1.1c-3.3,0-6.1,0-8,0c5.6-0.2,11.1-0.5,16.6-0.9c2-0.1,0.3,0.1-2.4,0.4
							c1.1-0.1,2.2-0.2,3-0.3c6-0.3,2.9,0.1-1.4,0.6c-2,0.1-4.1,0.1-6,0.1c-4.1,0.4-8,0.7-7.1,0.9c1.1-0.1,3.2-0.2,5.5-0.3
							c-1.1,0.1-1.8,0.2-1.3,0.2c0.6,0,2.3-0.1,5-0.4c1.3,0.1,2.5,0.1,3.8,0.1l0.9-0.2c7.3-0.4,14.5-0.9,21.8-1.6
							c15.5-1.9,28.9-4.1,53.5-7.4c-6.1,1-1.3,0.6-1.6,0.9c-6.7,0.5-19,2.5-31.8,4c6.7-0.8,5.2-0.4,3.5-0.2l22.7-3.1
							c-0.5,0.3,4.8-0.4,10.8-1c-4.5,0,16.9-2.4,26.2-3.3c0.6,0.1-1.6,0.4-12.9,1.6c6.2-0.5,10.3-1,14.2-1.5c4-0.5,8-0.9,14.1-1
							c-2.8,0.1-4.3,0.2-5.3,0.3c3.2-0.3,8.8-0.5,13.1-0.4c4.3,0,7.3,0.3,5.4,0.3c-0.9,0-1.8-0.1-2.8-0.1c4.6,0.1,10.4,0.4,16.3,1.7
							c3,0.7,5.9,1.6,8.7,3c2.7,1.4,5.1,3.3,6.7,5.8c1.6,2.4,2.3,5.2,2.7,7.7c0.3,2.6,0.4,5,0.2,7c-0.1,2.1-0.4,3.8-0.6,5.1
							c-0.2,1.3-0.4,2.2-0.4,2.5c0,0.1,0-0.5,0-1.3c0-0.8,0-1.7,0.1-2.2c-0.7,5.3-2.2,10.6-4.2,15.7c-1.9,5.1-4.3,10.1-7,14.9
							c0.6-1.3-0.7,0.3-1.3,0.5c-0.5,0.3-0.1-0.7,3.5-7.4c-2.1,3.8-4.9,8.5-10,16.1c1.8-2.4,4.6-5.8,2.4-2.4c-3.3,4.5-4.6,6-6,7.8
							c-1.4,1.8-3,3.8-7.6,9c1.5-1.7,1.5-1.5,0.6-0.2c-0.9,1.3-2.7,3.7-5.1,6.3c0.7-0.9-0.8,0.1,0.9-1.9c-3.7,4.5-7.6,8.9-11.7,13.2
							c3-3.2,0.2-0.9-2.7,1.8c0.7-0.6-2,2.1-5.4,5.2c-3.4,3.1-7.5,6.7-9.3,8.2c1.9-1.6,3.8-3.2,5.7-4.8c-7.5,6.5-11.2,9.7-14.9,12.9
							c-3.8,3.1-7.5,6.3-15.7,11.8c1-0.7,2.1-1.7,1.9-1.8c-0.2-0.1-1.6,0.7-5.8,3.4c-1.9,1.3-5.9,4.4-11.6,8
							c-5.7,3.6-12.9,7.8-21,11.3l-3.2,1.1c-4.1,1.7-8.4,3.3-12.6,4.6c2-0.7,4.8-1.8,8.1-3.1c3.3-1.4,7.1-3.1,10.9-5
							c7.6-3.7,15.4-8.4,20.8-11.8c-3.2,1.8-3.7,2-4.6,2.5c-0.9,0.5-2.1,1.1-7,3.8c-1.8,0.8-0.5,0.1,1.7-1.1c2.1-1.1,5-2.8,6.4-3.6
							c-7.5,4.2-15.2,8.1-23.2,11.3c0.6-0.1-3.9,1.9-8.6,3.6c-4.7,1.7-9.4,3-8.9,3c9-2.6,17.7-6,26.1-10.1c0.6-0.1-2.9,1.9-8.9,4.6
							c-1.5,0.7-3.1,1.3-4.9,2c-1.8,0.7-3.7,1.4-5.7,2c-4,1.4-8.3,2.6-12.8,3.5c-4.6,0.8,3.3-1.3,2.9-1.4c-0.6,0.2-1.9,0.5-3.6,0.9
							c-0.9,0.2-1.8,0.4-2.8,0.6c-1,0.2-2.1,0.4-3.1,0.5c-2.1,0.3-4.2,0.5-5.9,0.7c-1.7,0.1-2.9,0.2-3.3,0.2
							c2.6-0.2,5.1-0.5,7.7-0.9c-5,0.6-9.2,0.9-13.5,0.9c-4.4,0-9-0.5-15-2c-4.1-0.9-12.2-3.3-13-3.3c6.6,2,7.7,3.5,3.1,2.7
							c-1.5-0.3-21.6-5.8-26.3-7.1c-3.4-0.9-0.8-0.5,2-0.1c2.7,0.5,5.6,1,2.7,0.2c-0.3,0-4.1-0.8-5.6-1.1c-4.3-1.1,1.9,0.1-7.6-1.9
							c-0.8,0-5.7-1-8.5-1.5c-1.4-0.2-2.3-0.4-1.9-0.3c0.4,0.1,2.1,0.4,5.8,1.2c-4.7-0.8-7.2-1.2-9.9-1.6c-2.7-0.4-5.6-0.8-11.2-1.1
							c1.8,0.2-0.7,0.2-4.9,0.4c-4.1,0.2-9.9,0.8-14.5,2.1c0.5-0.2-1.6,0.2-2.6,0.5c-4.6,1.6-8.3,4-11,7c-1.4,1.5-2.5,3-3.4,4.7
							c-0.9,1.6-1.7,3.3-2.3,5.1c-1.2,3.5-1.7,7.1-2,10.9c-0.1,1-0.1,1.9-0.2,2.9c0,1-0.1,2-0.1,3c0.1,2.1,0,4.2,0.3,6.5
							c0,0.4,0.1,1.3,0.1,2.3c0.1,1,0.2,2.1,0.3,3.1c0.2,1.9,0.3,3.2,0,1.3c0.2,1.3,0.5,2.5,0.9,4.1c0.3,1.6,0.9,3.5,1.6,6.2
							c0.7,2.6,0.9,3.2,0.7,2.7c-0.1-0.3-0.3-0.8-0.5-1.4c-0.2-0.7-0.4-1.5-0.6-2.3c-1-3.3-1.6-7.1-1-2.9c0.1,0.2,0.4,1.1,0.8,2.6
							c0.2,0.7,0.5,1.6,0.7,2.5c0.3,0.9,0.7,2,1,3c0.7,2.2,1.7,4.5,2.6,6.7c0.5,1.1,1,2.2,1.5,3.2c0.5,1,0.9,2,1.4,2.9
							c-0.3-0.6-0.8-1.9-1.6-3.7c-0.4-0.9-0.9-1.9-1.3-3c-0.4-1.1-0.9-2.3-1.4-3.5c-1.8-5-3.5-10.8-4.3-14.7c0.2-0.1,1,3.3,2.8,8.9
							c1.8,5.5,4.8,13.2,9.8,21.2c1,1.6,1.7,2.9,2.4,3.9c0.7,1,1.2,1.7,1.6,2.3c0.8,1.1,1,1.5,1,1.5c0,0.1-0.9-1.1-0.2,0
							c2.1,2.8,4,5.2,5.8,7.1c1.7,2,3.4,3.5,4.8,4.9c1.4,1.4,2.8,2.4,3.9,3.4c1.2,1,2.3,1.9,3.4,2.6c1.1,0.8,2.2,1.5,3.3,2.3
							c1.1,0.8,2.4,1.5,3.8,2.4c0.7,0.4,1.4,0.9,2.3,1.4c0.8,0.4,1.7,0.9,2.7,1.4c1,0.5,1.9,1.1,3.1,1.6c1.1,0.5,2.4,1.1,3.7,1.7
							c2.1,1.1,3.2,1.4,3.6,1.7c0.5,0.2,0.3,0.2-0.1,0.2c-0.8-0.2-2.4-0.6-1.5-0.2c-1.4-0.5-2.7-1.2-4-1.7c-1.2-0.6-2.5-1-3.5-1.7
							c-1.1-0.6-2.1-1.2-3.1-1.7c-0.5-0.3-1-0.5-1.5-0.8c-0.5-0.3-0.9-0.6-1.4-0.9c-0.9-0.6-1.7-1.1-2.6-1.7
							c-0.8-0.5-1.7-1.1-2.4-1.7c-0.8-0.6-1.6-1.2-2.4-1.8c-0.8-0.6-1.6-1.2-2.4-1.9c0.6,0.6,1.3,1.1,2,1.6l2,1.5
							c0.7,0.5,1.3,1.1,2.1,1.5l2.1,1.4c-0.8-0.5-1.9-1.1-3-1.9c-1.1-0.8-2.4-1.7-3.6-2.6l-0.9-0.7l-0.9-0.7c-0.6-0.5-1.2-1-1.7-1.5
							c-1.1-0.9-2.1-1.8-2.9-2.6c0.7,0.7,1.8,1.7,3.2,2.9c0.7,0.6,1.5,1.3,2.4,2c0.9,0.7,1.9,1.4,2.9,2.2c2,1.6,4.6,3.1,7.2,4.8
							c2.7,1.5,5.6,3.2,8.8,4.5c1.6,0.7,3.1,1.5,4.8,2c1.7,0.6,3.3,1.3,5,1.8c1.7,0.5,3.4,1,5.1,1.5c0.4,0.1,0.8,0.3,1.3,0.4
							l1.3,0.3c0.9,0.2,1.7,0.4,2.6,0.6c3.4,0.9,6.8,1.2,9.9,1.7c1.6,0.2,3.1,0.3,4.6,0.4c1.5,0.1,2.9,0.3,4.3,0.4
							c1.9,0,4.6,0,6.4,0c1.8,0,2.6-0.1,1.1-0.1l-6.9-0.1c-6.3-0.3,13-0.1,4.3-0.3c9.2-0.1,19.6-1.1,32.3-3.6l2.5-0.2
							c-0.1,0-2.2,0.4-4.7,0.9c-2.5,0.4-5.5,0.9-7.2,1.2c1.3-0.2,3.2-0.5,5.4-0.9c1.1-0.1,2.3-0.4,3.5-0.6c1.2-0.2,2.4-0.5,3.7-0.7
							c1.2-0.3,2.5-0.5,3.7-0.8c1.2-0.3,2.4-0.6,3.5-0.9c2.2-0.6,4.2-1.2,5.6-1.7l-8.9,2.2c4.5-1.3,9.4-2.7,14.7-4.4
							c2.6-0.8,5.3-1.6,8.1-2.4c2.7-0.8,5.5-1.6,8.3-2.3c-5.2,1.1-2.6,0.7-10.6,2.7c3.5-0.8-3.6,1.3-10.2,3.2
							c-6.6,1.8-12.7,3.4-7.1,2.2c-1,0.2-2,0.5-3,0.7c-1,0.2-1.9,0.4-2.9,0.6c-1.9,0.4-3.7,0.8-5.7,1.1c-1,0.2-2,0.4-3,0.5
							c-1,0.2-2.1,0.3-3.2,0.5c-2.2,0.3-4.6,0.7-7.4,0.8c0.3,0.1,3.9-0.2-5.7,0.7c-0.4,0.1-1.5,0.1-2.1,0.2c-0.3,0-0.4,0-0.6,0
							c0.2,0,0.3,0,0.5,0c-0.4,0-0.5,0,0.2,0c1.1,0,2.2,0,3-0.1c0.8-0.1,1.5-0.1,1.9-0.1c-2.4,0.5-7.4,0.7-12.5,0.9
							c-2.5,0-5.1-0.1-7.3-0.1c-2.2-0.2-4.2-0.3-5.5-0.4c-5.7-0.5,2.4,0.1-0.7-0.3c-1.3,0-2.6-0.2-3.8-0.4l-3.8-0.5
							c-0.4-0.1-4.1-1-6-1.5c-1.9-0.5-2.2-0.6,4.4,0.7l-5.9-1.3c-1.9-0.5-3.9-1.1-5.8-1.7c-0.4-0.1-0.9-0.3-1.3-0.4
							c-0.4-0.2-0.9-0.3-1.3-0.5c-0.9-0.3-1.8-0.7-2.8-1.1c-0.9-0.4-1.9-0.7-2.8-1.1c-0.9-0.4-1.9-0.9-2.8-1.3
							c-0.9-0.4-1.9-0.8-2.7-1.3c-0.9-0.5-1.7-0.9-2.5-1.4c-0.8-0.4-1.6-0.9-2.4-1.3c-0.8-0.4-1.4-0.9-2.1-1.2
							c-1.2-0.8-2.5-1.6-3.8-2.5c-1.2-0.9-2.4-1.7-3.4-2.4c-0.9-0.6-1.6-1.1-1.7-1.3c-0.1-0.1,0.1,0.1,1.2,0.8
							c-5-3.9-9.6-8.2-13.7-13l-0.1-0.2c-0.7-0.9-1.4-1.8-2.2-2.8l-1.1-1.4l-1-1.5c-0.7-1-1.4-1.9-2-2.9c-0.6-1-1.3-2-1.9-3.1
							c-1.3-2-2.4-4.2-3.5-6.4c-0.6-1.1-1-2.2-1.6-3.3c-0.5-1.1-1-2.2-1.5-3.4c-0.5-1.2-0.9-2.3-1.4-3.5c-0.4-1.2-0.8-2.4-1.2-3.6
							c-0.2-0.6-0.4-1.2-0.6-1.8l-0.5-1.8c-0.3-1.2-0.7-2.5-0.9-3.7c-1.1-5-1.7-10.3-1.9-15.6c0-1.6-0.2-3.1-0.1-4.8
							c0-1.7,0.1-3.4,0.3-5.2c0.2-1.8,0.4-3.8,0.9-5.9c0.5-2.1,1.2-4.3,2.3-6.6c0.3-0.6,0.7-1.1,1.1-1.7c0.9-1.7,2.4-3.6,4.3-5.4
							c1.9-1.8,4.3-3.2,6.7-4.3c4.9-2.2,9.7-2.7,11.4-3.1c2.1-0.1,5.6-0.3,9.9-0.2c4.3,0.1,9.3,0.6,14.5,1.3
							c10.4,1.5,21.4,4,28.4,5.8l0.6-0.1c4.8,1.2,9.5,2.4,14.5,3.6c5,1.2,10.3,2.5,16.4,3.7l-0.7-0.4c1.3,0.2,2.7,0.5,4.2,0.7
							c1.5,0.2,3.1,0.5,4.8,0.6c3.3,0.4,7,0.5,10.8,0.4c3.8-0.1,7.8-0.5,11.9-1.2c4.1-0.6,8.2-1.6,12.3-2.7c-1.1,0.4-5.2,1.4-8.2,2
							c10-1.8,20.1-5.4,29.5-9.6c9.5-4.3,18.3-9.3,26.1-13.9c3.8-2.5,6.6-4.2,9.3-6c-0.3,0.2-0.7,0.5-0.9,0.6c0.4-0.3,1-0.6,1.5-1
							c1.7-1.1,3.4-2.2,5.2-3.5c-1.6,1.1-3.1,2.1-4.4,2.9c2.9-2,7.2-5.1,11.3-8.3l1.9-1.2c0.3-0.3,0.6-0.5,0.9-0.7
							c4.1-3.1,3.1-2.6,0.9-1.1c2-1.6,3.9-3.2,5.3-4.4c3.5-2.3,10.3-8.9,14.7-12.6c1.2-1.3,5.9-5.8,10.3-10.5
							c4.4-4.7,8.5-9.6,9.2-10.8c0.2-0.1,1.2-1.2-0.7,0.9c3.8-4.3,7.5-8.8,10.5-13.1c0.6-0.6,1.1-1.2,1.7-1.8
							c2.4-3.5,4.6-7.1,6.7-10.7c2.1-3.2,3.5-5.6,3.9-6.2c0.4-0.7,0,0.4-1.8,3.7c2.3-4,3.7-7,4.8-9.2c0.5-1.2,1-2.1,1.4-3
							c0.4-0.9,0.7-1.7,1-2.5c0.6-1.6,1.2-3.1,1.9-5.2c0.7-2.1,1.4-4.7,2.1-8.6l0.1,0.8c0.6-2.8,0.9-6.5,0.7-9.9
							c-0.2-3.4-1-6.5-1.6-8.1c-0.1-0.4-0.3-0.8-0.5-1.2c-0.2-0.4-0.5-0.9-0.7-1.4c-0.1-0.2-0.3-0.5-0.4-0.7
							c-0.2-0.2-0.4-0.5-0.5-0.7c-0.4-0.5-0.7-1-1.2-1.5c-1.9-2-4.6-3.8-7.8-5.1c-6.6-2.7-15.1-3.6-24.1-3.8
							c-9-0.2-18.6,0.5-27.9,1.3c-9.3,0.8-18.4,1.9-26.3,2.7c6.2-0.2-14.8,1.6-16,2.2c-1.9,0.1-6.3,0.6-1.2-0.2
							c-16.2,2.2-24.4,2.8-35.6,4.3c-1.9,0,3.5-0.5,1.8-0.5c-1.3,0.2-5.2,0.6-6.9,0.7c-1.7,0.1,2.4-0.3,4.9-0.7
							c-16.6,1.6-18.3,2-19.5,2.5c-8.5,0.4-12.7,0.6-18.8,1c-3-0.1-7.9-0.1,2.5-0.4c-2.9,0.1-11.8,0.3-20.1,0
							c-8.2-0.2-15.8-1-16.1-0.9c-1.8-0.2-8.1-1-9.6-1.2c-6.4-1.1-9.9-1.9-13.3-2.8c-1.7-0.5-3.4-0.9-5.4-1.6
							c-2-0.6-4.3-1.5-7.3-2.7c1.1,0.5,2.2,0.9,3.3,1.3c-1.2-0.4-2.5-0.7-3.7-1.3c-1.3-0.5-2.7-1.1-4.2-1.9
							c-0.7-0.4-1.5-0.8-2.3-1.2c-0.8-0.4-1.6-0.9-2.5-1.5c-0.4-0.3-0.9-0.5-1.4-0.8c-0.5-0.3-0.9-0.6-1.4-0.9c-0.9-0.6-2-1.3-3-2.1
							l0.3,0.1c-1.2-0.9-2.3-1.7-3.1-2.5c-0.9-0.8-1.7-1.5-2.4-2.1c-1.4-1.4-2.4-2.4-3.3-3.3c-1.6-1.9-2.5-2.7-3.2-3.8
							c-0.8-1-1.6-2-2.9-3.9c-1.2-2-3.3-5-5.1-10.5l0.2,1.3c-0.1-0.2-0.4-0.7-0.6-1.4c-0.2-0.7-0.5-1.6-0.7-2.7
							c-0.4-2.2-0.6-5.2,0-8.4c0.6-3.2,2.2-6.5,4.3-9.5c2.1-3,4.8-5.5,7.3-7.8c-0.6,0.5-1.3,1-1.9,1.6c-0.6,0.5-1.2,1.1-1.8,1.7
							c1.2-1.4,2.9-2.8,4.8-4.3c1.9-1.4,4.1-2.9,6.3-4.2c4.5-2.6,9.1-4.9,12.5-6.5c1.5-0.7-2.3,1.2-4.2,2.3c4.3-2.2,6.7-3.3,7.9-3.9
							c1.2-0.6,1.4-0.7,1.3-0.8c0-0.1-0.2-0.1,0.5-0.4c0.7-0.4,2.1-1.1,5.5-2.6c2.5-0.9-3,1.7,6-2.1c2.3-0.9,8.8-3.8,16.3-6.9
							c7.5-3.2,16.1-6.8,22.2-9.5c-2.8,1.1-5.5,2.2,0.7-0.7c4.7-2.2,11.1-5.2,17-9c2.9-1.9,5.8-3.9,8.1-6.1c2.4-2.2,4.3-4.4,5.5-6.5
							c0.8-1.1,1-1.6,1.1-1.6c0.5-0.9,1-2,1.5-3.2c0.5-1.2,1-2.4,1.5-3.7c1.2-2.6,2.4-5.4,3.9-8.1c2.8-5.3,5.8-10.1,7.2-12.1
							c0.3-0.3,0.7-0.8,1.1-1.4c0.5-0.5,1-1.2,1.6-1.9c1.1-1.5,2.6-3.1,4.2-5c3.3-3.7,7.4-7.9,11.7-11.6c4.3-3.7,8.8-6.8,12.2-8.9
							c1.7-1.1,3.1-1.9,4.1-2.4c1-0.5,1.6-0.8,1.6-0.7c3.5-1.9,7.2-3.7,10.9-5.4c3.7-1.6,7.5-3.1,11.3-4.4l-0.6,0.3
							c7.4-2.5,12.4-3.8,16.3-4.9c3.9-1,6.5-1.7,9.2-2.3c3.5-0.7,1-0.1,0.7,0c5.6-1.1,9.9-1.8,13.6-2.3c3.7-0.6,6.7-1,9.5-1.4
							c5.8-0.8,11-1.5,20.5-2.8l2,0c1.3-0.2,4-0.5,7.6-1c3.7-0.5,8.3-1.1,13.4-2.4c2.6-0.6,5.2-1.4,7.9-2.6c1.3-0.6,2.6-1.3,3.9-2.2
							c1.2-0.9,2.4-2,3.3-3.3c0.9-1.3,1.5-2.9,1.7-4.5c0.2-1.6,0.2-3.2-0.3-4.7c-0.7-3.1-2.6-5.7-4.7-7.7c0.1,0.1,0.2,0.2,0.5,0.4
							c0.3,0.3,0.7,0.6,1.3,1.4c-2.1-2.6-4.9-4.6-7.9-6.4c-3-1.7-6.2-3.2-9.5-4.5c-6.6-2.5-13.4-4.4-19.8-5.9
							C359,65.5,348,64,343.4,63.8l-4.1-0.5c-0.7-0.1-1.4-0.2-2.1-0.2L335,63c-0.7-0.1-1.4,0-2.1,0c-0.7,0-1.4,0-2.1,0.1l-2.1,0.3
							c-0.7,0.1-1.4,0.2-2.1,0.4c2.7-0.5,4.7-0.7,6.1-0.7c0.7,0,1.3,0,1.7,0c0.4,0,0.8,0.1,1,0.1c0.9,0.1,0,0.1-1.2,0.1
							c-1.2,0.1-2.8,0.2-3.5,0.3c-0.4,0.1-0.5,0.1-0.3,0.1c0.1,0,0.3,0,0.6,0c0.3,0,0.7,0,1.3,0c-0.5,0-1.1,0-1.6,0.1
							c-0.6,0.1-1.1,0.1-1.7,0.2c-1.2,0.1-2.3,0.4-3.4,0.6c-1.1,0.2-2.2,0.5-3.2,0.8c-0.5,0.1-1,0.3-1.4,0.4
							c-0.4,0.1-0.8,0.3-1.2,0.4c-1.5,0.5-2.4,0.8-2.3,0.7c0-0.1,1.1-0.5,3.5-1.4l1.6-0.4c0.9-0.4-0.3-0.2-2.5,0.6
							c-2.2,0.7-5.4,2-8.7,3.5c-3.2,1.5-6.5,3-9,4.1c-1.3,0.5-2.3,0.9-3,1.2c-0.7,0.2-1.1,0.3-1.1,0.3c-2.4,0.9-5,1.5-7.5,1.7
							c-2.5,0.2-5-0.3-7.3-1.4c-2.3-1.1-4.3-2.6-6.3-4.3c-2-1.7-3.9-3.4-6-5.1c-4-3.4-8.6-6.3-13.8-7.8c-5.1-1.5-10.5-1.8-15.7-1.2
							c-5.2,0.6-10.2,2.3-14.9,4.6c-4.7,2.3-8.9,5.2-13.1,8c-2.1,1.4-4.2,2.8-6.3,3.8c-1.1,0.5-2.2,0.9-3.2,0.9c-1,0-2-0.3-2.9-0.9
							c-1.8-1.3-3.1-3.3-3.9-5.5c-0.8-2.2-1.1-4.6-0.6-6.7c-0.4,1.3-0.5,2.7-0.4,4.2c-0.4-2.1-0.2-4.4,0.9-6.2
							c0.5-0.9,1.3-1.5,2.3-1.9l0.7-0.2c0.2-0.1,0.4-0.1,0.7-0.1c0.4-0.1,0.7-0.1,1.1-0.1c0.3,0,0.5,0.1,0.7,0.3
							c0.1,0.2,0.1,0.4,0,0.5c-0.1,0.3-0.3,0.4-0.2,0.3c0-0.1,0-0.2,0-0.3c0-0.2-0.2-0.4-0.5-0.4c-0.3,0-0.6,0-1.2,0.1
							c-0.2,0-0.3,0.1-0.5,0.1c-0.2,0.1-0.4,0.1-0.6,0.2c-0.4,0.2-0.8,0.4-1.2,0.7c0.5-0.3,1-0.6,1.6-0.8c0.3-0.1,0.6-0.1,0.9-0.2
							c0.2,0,0.4,0,0.6,0c0.2,0,0.4,0,0.6,0.1c0.2,0.1,0.1,0.4,0.1,0.6c-0.1,0.2-0.2,0.4-0.3,0.5c-0.1,0.1-0.1,0.2-0.2,0.3
							c-0.1,0.1-0.2,0.2-0.3,0.4c-2.4,2.4-4.8,4.1-4.8,4.2c-3.9,2.7-5.6,3.6-5.9,3.8c-0.3,0.1,0.9-0.6,2.3-1.6
							c2.9-2,6.9-5.2,4.6-3.4c-2.1,1.6-4.3,3.1-6.5,4.5l1.5-0.9c-2.7,1.8-4.2,2.8-6.2,4c-2.1,1.2-4.8,2.8-10.1,5.3
							c-3.4,1.5-4.3,1.8-4.7,1.9c-0.4,0.1-0.2,0-1.6,0.5c0,0-0.1,0-0.2,0.1c-0.1,0-0.4,0.1-0.7,0.2c-0.6,0.2-1.7,0.6-3.4,1.1
							c-2.7,0.8-5.5,1.5-8.2,1.5c-0.7,0-1.3,0-2-0.1c-0.3-0.1-0.6-0.1-0.9-0.2c-0.1,0-0.3-0.1-0.4-0.1l-0.2-0.1l-0.2-0.1
							c-0.1,0-0.1-0.1-0.2-0.1l-1-0.3c-0.1,0-0.2-0.1-0.4-0.2l-0.5-0.2c-0.6-0.3-1.2-0.6-1.8-1c0.5,0.3,0.9,0.6,1.4,0.8l0.7,0.4
							l0.3,0.2c0,0,0.1,0,0.1,0l0.2,0.1l0.8,0.3c0.1,0,0.2,0.1,0.3,0.1l0.2,0.1c0.1,0,0.2,0.1,0.4,0.1c0.5,0.2,1,0.3,1.5,0.4
							c-0.4,0-0.9-0.1-1.3-0.2c-0.2-0.1-0.4-0.1-0.6-0.2l-0.4-0.1l-0.4-0.1l-0.7-0.2c-0.2,0-0.3-0.1-0.5-0.2
							c-0.4-0.2-0.8-0.4-1.2-0.6c-0.4-0.2-0.8-0.4-1.1-0.6c-0.3-0.2-0.6-0.4-0.9-0.7c-0.6-0.4-1.1-0.8-1.5-1.1
							c-0.8-0.7-1.2-1-1.1-0.9c0.1,0.1,0.3,0.3,0.6,0.6c0.3,0.4,0.9,0.8,1.7,1.4c-2.3-1.7-6.3-5.5-9.8-11.2
							c-3.5-5.7-6.5-13.1-8.7-20.5c-0.2-0.9-0.5-1.9-0.7-2.8c-0.2-0.9-0.5-1.9-0.9-2.9c-0.8-1.9-2.4-3.6-4.2-4.4
							c-1.9-0.8-3.9-0.9-5.7-0.7c-1.8,0.2-3.5,0.8-4.9,1.6c-0.4,0.2-0.7,0.4-1,0.6c-0.3,0.2-0.7,0.5-1,0.7c-0.6,0.5-1.1,1.1-1.5,1.7
							c-0.8,1.1-1.5,2.2-2,3.2c-1,2-1.7,3.5-2.1,4.3c-2,5.1-3.7,10.2-5.7,15.5c-1,2.6-2.1,5.3-3.4,8c-1.3,2.7-2.8,5.4-5.2,7.6
							c0.6-0.6,1.1-1.1,1.4-1.4c0.3-0.3,0.5-0.4,0.3-0.2c-0.1,0.2-0.6,0.8-1.5,1.8c-1,0.9-2.4,2.4-4.8,3.9c1.5-1.5-2.6,1.8-9.1,3.7
							c-3.2,1-7,1.6-10.5,1.7c-3.5,0.1-6.7-0.2-9-0.7c1,0.2,1.2,0.2,1,0.2c-0.3,0-1.1-0.1-2.3-0.3c-2.4-0.4-6.1-1.3-9.5-2.7
							c-3.4-1.4-6.5-3.2-8-4.2c-1.5-1-1.7-1,0.9,0.9c-1-0.6-1.7-1.2-2.2-1.6c-0.5-0.4-0.9-0.7-1.1-0.9c-0.5-0.4-0.4-0.4-0.4-0.4
							c0.2,0,0.5,0.3-2-2.2c-4-3.8-7.2-8.9-8.9-14.6c-1.7-5.8-1.9-12.2-0.4-18.5c0.8-3.1,1.8-6.2,3.4-9.1c1.5-2.9,3.5-5.6,5.7-8.1
							c4.5-4.9,10.4-8.7,16.8-10.9c0.2-0.1-0.8,0.1-1.2,0.2c-0.4,0.1-0.1-0.2,2.7-1.1c2.4-0.5,4.7-1,7.1-1c2.4-0.1,4.8,0.2,7.1,0.7
							c2.6,0.5,3.9,0.7,5.6,1.2c0.9,0.2,1.9,0.5,3.2,1.1c1.3,0.6,3,1.3,5.1,2.7c-0.6-0.4-1.3-0.8-1.5-1c-0.2-0.1,0.2,0,1.7,0.9
							c2.4,1.4,4.6,3.2,6.5,5.2c1.9,2,3.5,4.3,4.6,6.8c1.1,2.5,1.8,5.2,2,8c0,0.7,0.1,1.4,0.1,2.1l-0.1,2.1c0,1.4-0.3,2.8-0.4,4.2
							c-0.5,2.8-1.1,5.5-2.2,8.1c-1.1,2.6-2.4,5.1-4.1,7.3c-1.7,2.2-3.7,4.3-5.9,6c-2.2,1.7-4.7,3.2-7.3,4.3
							c-5.1,2.4-11,2.4-16.6,1.3c-2.8-0.6-5.5-1.5-7.9-2.9c-2.4-1.4-4.5-3.4-5.2-6c-0.4-1.2-0.4-2.7-0.3-4c0.1-1.4,0.4-2.7,0.9-4
							c0.9-2.6,2.6-5,4.6-6.8c2.1-1.9,4.6-3.3,7.2-4c1.3-0.4,2.7-0.5,4-0.5c0.3,0,0.7,0,1,0.1c0.3,0.1,0.6,0.1,1.2,0.3l0.8,0.3
							c0.1,0,0.3,0.2,0.5,0.3l0.5,0.3c0.3,0.2,0.6,0.4,1,0.7l1.2,0.9c0.1-0.4,0.2-0.3,0.4-0.4c0.1-0.1,0.2,0,0.4,0
							c0.2,0.2,0.1-0.4,0-0.7l-0.2-1c-0.2-1.3-0.9-2.9-1.8-4.5c-0.3-0.4-0.4-0.7-0.6-0.9l-0.6-0.8c-0.4-0.5-0.9-0.9-1.3-1.4
							c-0.5-0.5-1-0.8-1.5-1.2c-0.5-0.4-1.1-0.7-1.6-1.1c-2.2-1.3-4.7-2.1-7.1-2.6c-1.3-0.1-2.5-0.4-3.8-0.4l-1.9,0L46,33.3
							c1.9-0.2,3.1-0.1,3.6-0.1c0.5,0,0.4,0-0.1,0.1c-0.5,0-1.5,0-2.7,0.1c-0.6,0.1-1.3,0.1-1.9,0.2c-0.7,0.1-1.4,0.3-2.1,0.4
							c3.8-0.7,0,0.2,0.7,0.2c-2,0.3-3.9,0.8-5.8,1.3c-1.8,0.7-3.7,1.2-5.5,2.1l-2.7,1.2l-2.6,1.4c-1.8,0.9-3.4,1.9-5.1,3
							c-0.4,0.3-1.1,0.7-1.9,1.4c-0.4,0.3-0.9,0.6-1.3,1c-0.4,0.4-0.9,0.8-1.4,1.2c-1.9,1.8-4,4.2-5.7,6.7c-1.7,2.6-3,5.3-3.9,7.5
							c-0.9,2.2-1.3,4-1.4,4.6c0.7-2.4,1.5-4.8,2.6-7c-0.9,2.3-1,2.7-0.6,2c0.2-0.4,0.5-1,0.9-1.8c0.5-0.8,0.9-1.7,1.6-2.6
							c1.2-1.9,2.8-3.9,4-5.2c0.7-0.7,1.2-1.2,1.6-1.5c0.4-0.3,0.6-0.4,0.5-0.2c0.9-1,2-2,3.2-3c1.2-1,2.6-1.8,4.1-2.7
							c0.8-0.4,1.5-0.9,2.3-1.4c0.8-0.4,1.6-0.9,2.5-1.3c1.6-0.9,3.5-1.6,5.3-2.4c3.7-1.4,7.8-2.7,12.1-3.1
							c4.2-0.4,8.7-0.1,12.7,1.8c0.9,0.4,1.1,0.6,1,0.6c0,0-0.2-0.1-0.3-0.2c-0.2-0.1-0.4-0.2-0.6-0.3c-0.5-0.2-1-0.4-1.3-0.5
							c-0.3-0.1-0.4-0.1,0.1,0.1c1.8,0.7,3.7,1.7,5.5,3.5c0.5,0.4,0.9,1,1.3,1.5c0.1,0.1,0.1,0.1,0.2,0.2l0.1,0.2
							c0.1,0.1,0.1,0.2,0.2,0.3c0.1,0.2,0.2,0.4,0.4,0.7c0.2,0.5,0.4,1,0.6,1.6c0,0.1,0.1,0.3,0.1,0.4c0,0.1-0.1,0-0.1,0L65.7,45
							c-0.2-0.2-0.5-0.4-0.8-0.5c-0.2-0.1-0.5-0.3-0.9-0.4c-0.2,0-0.3-0.1-0.5-0.1c0,0-0.1,0,0,0l-0.1,0l-0.2,0l-0.5-0.1l0.6,0.1
							l0.2,0l0.2,0c-0.2-0.1-0.8-0.2-1.2-0.2c-0.5,0-0.9-0.1-1.4-0.1c-0.9,0-1.8,0.1-2.7,0.2c-1.7,0.3-3.3,0.9-4.8,1.7
							c-2.9,1.5-5.3,3.6-7.1,6c-1.8,2.4-2.9,5.1-3.3,7.9c-0.2,1.4-0.2,2.8-0.1,4.2c0.2,1.5,0.7,2.9,1.5,4.1c1.6,2.5,4,4.2,6.6,5.4
							c2.6,1.3,5.5,2.1,8.7,2.6c3.1,0.4,6.5,0.6,10.1,0c0.9-0.1,1.8-0.4,2.7-0.7c0.9-0.3,1.8-0.6,2.7-1c0.9-0.4,1.8-0.8,2.7-1.3
							c0.9-0.4,1.8-1,2.7-1.5c-0.8,0.4-1.5,0.8-2.2,1.1c1.6-0.9,2.8-1.6,3.7-2.3c1-0.7,1.7-1.3,2.4-1.8c0.7-0.5,1.2-1,1.7-1.5
							c0.3-0.2,0.5-0.5,0.8-0.8c0.3-0.3,0.5-0.6,0.8-0.9c1.3-1.6,1.1-1.5,0.2-0.4c-0.5,0.5-1.1,1.3-1.9,2c-0.4,0.4-0.8,0.8-1.3,1.2
							c-0.5,0.4-1,0.8-1.4,1.2c-2,1.6-4.2,2.9-5.5,3.6c-1.3,0.7-1.6,0.8-0.1-0.2c2.1-1,5.9-3.2,9.5-7.1c1.8-1.9,3.4-4.3,4.8-6.9
							c1.4-2.6,2.4-5.5,3.2-8.5c0.3-1.5,0.6-3,0.8-4.4c0.1-0.7,0.2-1.5,0.2-2.2c0-0.7,0.1-1.4,0.1-2.2c0.1-2.8-0.2-5.6-0.8-8
							c-1.2-4.8-3.5-8-4.4-9.3c-1.8-2.2-2.7-2.9-3-3.2c-0.3-0.2,0,0.1,0.2,0.4c0.3,0.3,0.5,0.6,0.2,0.4c-0.1-0.1-0.4-0.4-0.9-0.8
							c-0.5-0.5-1.3-1.1-2.3-1.9c-0.7-0.6-1.5-1.2-2.3-1.8c-0.8-0.4-1.6-0.8-2.5-1.2C77.3,14,74.8,13,73,12.4
							c-1.7-0.6-2.7-0.9-2.8-1c1.7,0.4,4.8,1.3,6.5,2C72.5,11.7,66,9.9,60,10.4c-1.5,0.1-2.9,0.3-4.2,0.5c-1.3,0.3-2.5,0.5-3.5,0.9
							c-2.1,0.6-3.6,1.3-4.4,1.6c3.2-1.4,6.7-2.3,10.2-2.7c-7.5,1-14.9,4.4-21.1,9.6c-3.1,2.6-5.8,5.7-8,9.2
							c-2.2,3.5-3.9,7.3-4.9,11.3c-1,4-1.5,8.1-1.3,12.2c0.2,4.1,1.2,8.1,2.7,11.8c1.5,3.7,3.6,7.1,6.1,10c2.5,2.9,5.4,5.3,8.4,7.2
							c-0.6-0.4-1.2-0.9-1.7-1.3c2.2,1.6,4.3,2.7,6.1,3.6c1.8,0.9,3.4,1.5,4.8,2c2.9,1,5.1,1.5,7.3,2c2.3,0.4,4.6,0.8,8,0.9
							c1.7,0.1,3.5,0,5.8-0.2c2.2-0.2,4.7-0.6,7.6-1.5l-0.8,0.3c2.3-0.7,5-1.6,7.7-3c2.7-1.4,5.4-3.2,7.8-5.5
							c-1.1,1.1-1.1,1.1-0.6,0.7c0.3-0.2,0.7-0.5,1.1-0.9c0.4-0.4,0.9-0.9,1.4-1.4c0.9-1,1.6-2.1,1.9-2.4c0.1-0.2,0.1-0.2,0,0.1
							c-0.1,0.3-0.5,0.8-1.1,1.6c1.8-2.5,2.8-4.7,3.6-6.5c0.8-1.8,1.4-3.2,1.8-4.3c0.9-2.3,1.3-3.4,1.6-4.3c0.6-1.8,0.8-2.7,3.3-10
							c0.5-1.1,1-2.2,1.5-3.2c0.9-2.4,1.4-3.7,2.4-5.7c0.5-1,1.1-2.1,2.2-3.4c0.6-0.7,1.2-1.3,2.3-1.8c1-0.5,2.1-1.1,3.5-1.4
							c-2.3,0.6-2.8,1.1-2.8,1.1c0,0,0.3-0.1,0.6-0.2c0.3-0.1,0.7-0.2,1.1-0.4c0.4-0.1,0.8-0.2,1.1-0.2c0.3,0,0.5,0,0.5,0
							c0,0-0.3,0.1-0.8,0.3c-0.5,0.2-1.4,0.4-2.5,1c2.6-1.2,5.5-1.6,7.8-1c2.3,0.6,4,2.4,4.6,4.4c0.1,0.3,0.2,0.5,0.2,0.8
							c0.1,0.3,0.1,0.6,0.2,0.8c0.1,0.6,0.3,1.1,0.4,1.7c0.3,1.1,0.6,2.1,0.9,3.2c0.6,2,1.3,3.9,2,5.7c2.7,7.1,5.6,12.3,8.7,17.2
							c1.9,2.2,2,2.2,1.2,1.1c-0.2-0.3-0.5-0.6-0.8-1c-0.3-0.4-0.6-0.9-1-1.4c-0.7-1-1.5-2.3-2.3-3.6c-1.5-2.6-2.9-5.5-3.7-7.3
							c-0.8-1.8-1.1-2.6-0.5-1.2c-0.9-2.5,0-0.3,1.7,3.3c0.4,0.9,0.9,1.9,1.5,2.9c0.3,0.5,0.6,1,0.8,1.5c0.3,0.5,0.6,1,0.9,1.5
							c0.3,0.5,0.6,1,0.9,1.5c0.3,0.5,0.7,1,1,1.4c0.6,1,1.3,1.8,1.9,2.6c0.3,0.4,0.6,0.8,0.9,1.1c0.3,0.4,0.6,0.7,1,1.1l1,1.1
							c0.3,0.3,0.7,0.7,1.1,1c0.7,0.7,1.4,1.4,2.3,2c0.4,0.3,0.9,0.7,1.3,1c0.5,0.3,1,0.6,1.6,0.9c0.3,0.2,0.5,0.3,0.8,0.5l0.5,0.3
							c0.2,0.1,0.4,0.1,0.5,0.2l0.5,0.2l0.2,0.1c0,0,0.1,0,0.1,0l0.1,0c0.4,0.2,0.7,0.3,1.1,0.4c1.5,0.4,3.2,0.5,5,0.3
							c3.6-0.3,7.6-1.4,12.3-3.2c-1.9,0.7-2,0.8-3.9,1.4c3.6-1.1,7-2.6,10.5-4.3c3.5-1.7,7.1-3.6,11.1-5.9c2.1-1.4,4.7-3,6.7-4.5
							c2.1-1.4,3.7-2.7,4.2-3.4c-4.8,3.9-10,7.1-15.3,10c4.5-2.6,8.8-5.3,13.5-8.8c1.2-0.9,2.3-1.9,3.5-3c0.3-0.3,0.6-0.5,0.9-0.9
							c0.3-0.3,0.6-0.7,0.9-1.1c0.3-0.4,0.5-0.8,0.6-1.2c0.1-0.4,0.1-1-0.3-1.3c-0.8-0.5-1.9-0.4-2.9-0.3c-1,0.2-1.9,0.4-2.8,1
							c-1.8,1-2.9,3.2-3.1,5.4c0-0.7,0.2-2.4,1.4-4.1c0.6-0.8,1.5-1.5,2.5-2c1-0.4,2.1-0.6,3.3-0.6c-0.4,0-0.8,0-1.2,0l-1.1,0.2
							c-0.3,0.1-0.6,0.2-1,0.3c-0.3,0.1-0.6,0.3-0.9,0.4c-1.2,0.7-2.1,1.8-2.6,3c-1,2.5-0.9,5.2-0.2,7.8c-0.2-0.3-0.8-1.9-0.7-4.4
							c0.1-1.2,0.3-2.8,1.1-4.2c0.8-1.5,2.5-2.7,4.4-3.1c0.5-0.1,1-0.2,1.7-0.2c0.6,0,1.2,0,1.7,0.2c0.5,0.2,1,0.4,1.2,1
							c0.2,0.5,0.1,1.1-0.1,1.6c-0.4,1-1.6,2.2-2.1,2.8c-0.7,0.6-1.4,1.2-2,1.8c-2.8,2.3-5.6,4.2-7.9,5.7c2.3-1.4,6.7-4.3,9.6-7.1
							c0.2-0.2,0.4-0.3,0.5-0.5c0.2-0.2,0.3-0.3,0.5-0.6c0.4-0.4,0.8-0.9,1.1-1.4c0.6-0.9,0.7-1.6,0.6-2.1c-0.1-0.5-0.3-0.7-0.2-0.6
							c0.1,0.1,0.4,0.5,0.3,1.4c0-0.3,0-0.6,0-1c-0.1-0.3-0.3-0.6-0.6-0.8c-0.5-0.4-1.2-0.6-2.1-0.6c-0.4,0-0.8,0-1.3,0.1
							c-0.4,0.1-0.7,0.1-1.1,0.2c-0.7,0.2-1.3,0.4-1.9,0.8c-1.3,0.7-2.3,1.9-2.9,3.2c-0.6,1.4-0.8,2.9-0.8,4.4
							c0.1,3,1.1,6.1,3.1,8.8c1,1.3,2.3,2.6,4.1,3.3c0.9,0.3,1.8,0.5,2.8,0.5c1-0.1,1.8-0.3,2.7-0.7c-0.3,0.2-0.6,0.4-0.9,0.5
							c1.2-0.3,2.7-1.1,4.4-2.1c1.6-1,3.4-2.2,5-3.3c-1.9,1.4-3.8,2.8-5.9,4.1c2.5-1.4,4.7-3,6.9-4.4c2.2-1.5,4.4-2.9,6.6-4.2
							c4.4-2.6,9-4.7,13.9-6c-2.6,0.7-4.5,1.4-6,2c-1.5,0.6-2.5,1.1-3.2,1.5c-1.4,0.7-1.6,0.8-1.5,0.6c0.3-0.2,1.9-1.3-2.2,0.9
							c5.7-3.4,9.8-4.8,12.9-5.5c3-0.7,5-0.9,7.1-1c2.1,0,4.3,0,7.7,0.4c3.4,0.6,8.1,1.5,14.2,5.6c-0.8-0.6-2-1.3-3.3-2
							c-1.3-0.7-2.7-1.4-3.8-1.8c-1.1-0.4-2-0.7-2.2-0.8c-0.2-0.1,0.3,0,1.7,0.5c2.6,1,5.4,2.5,7.9,4.3c2.4,1.7,4.5,3.6,5.8,4.8
							c3.8,3.3,5.7,4.7,6.4,5.2c0.7,0.4,0.1,0-0.8-0.7c-1.8-1.4-4.5-3.9-1.1-1.2c2.6,2.3,4.8,3.7,7.5,4.7c1.4,0.5,2.9,0.8,4.6,0.9
							c0.9,0.1,1.8-0.1,2.7-0.1c1-0.1,2-0.3,3.1-0.5l0.1,0.2c2.9-0.7,5-1.5,6.7-2.2c1.7-0.7,2.8-1.2,3.7-1.6
							c1.8-0.8,2.4-1.2,2.9-1.5c0.5-0.3,1-0.6,2.5-1.3c0.7-0.4,1.8-0.8,3.2-1.5c0.7-0.3,1.5-0.7,2.4-1c0.9-0.4,2-0.8,3.2-1.2
							c-2.7,1.1-5.2,2.4-7.8,3.7c3.2-1.5,6.4-2.9,9.8-4.1l-1.9,1c5.3-2.1,9-2.8,12.7-3.1c0.9,0,1.8-0.1,2.8-0.1
							c0.9,0.1,1.9,0.2,2.9,0.3c2.1,0.3,4.4,0.6,7.3,1c-2.6-0.5,1.5-0.3,11.5,1.3c1.7,0.3,2.3,0.5,2.5,0.5c0.2,0.1-0.1,0-0.1,0.1
							c0,0,0,0,0.2,0.1c0.2,0,0.5,0.1,1.1,0.2c1.1,0.2,3.1,0.6,6.6,1.2c-3.2-0.5-6.7-1-12.8-2.2c-0.6,0-3.2-0.3-3.8-0.4
							c3.6,0.6,8.2,1.4,12.5,2.2c4.3,0.8,8.3,1.6,10.8,2.2c-1.9-0.4-4.2-1-5.4-1.2c6.8,1.3,13.5,2.8,20,4.9c3,1.2,0.6,0.3-1.9-0.4
							c1,0.3,1.9,0.6,2.8,0.9c0.9,0.3,1.8,0.6,2.7,1c1.9,0.7,4,1.5,6.7,2.9c-0.7-0.3-1.1-0.3-2.1-0.7c-1.1-0.4-3-1.2-7-2.7
							c3.1,1.1,6.1,2.3,8.9,3.7c2.9,1.5,5.6,3.2,7.8,5.3c0.4,0.5,2.1,2.2,2.8,3.9c0.2,0.4,0.3,0.8,0.5,1.2c0.1,0.3,0.2,0.6,0.3,0.8
							c0.1,0.4,0.1,0.5-0.1-0.1c0.3,1.1,0.5,2.4,0.4,3.7c-0.1,1.3-0.4,2.6-1.1,3.8c-0.7,1.2-1.7,2.3-2.9,3.2
							c-1.3,0.9-2.7,1.7-4.3,2.4c-6.4,2.7-13.9,3.9-21.1,4.8c-0.7,0.1-2.2,0.4-5.3,0.8c-13.5,1.6-25.7,2.5-41.6,5.7
							c-3,0.4-6.1,0.9-9.1,1.5c-3.1,0.7-3.9,0.9-3.6,0.9c0.2,0,1.5-0.3,2.5-0.4c1-0.2,1.8-0.3,1,0c-0.8,0.2-3.1,0.8-8.3,2.1
							c-7.2,2-8.6,2.5-8.8,2.4c-0.2,0,0.7-0.5-1.8,0.3c-7.1,2.5-19.2,7.3-31.1,14.5C278,133.9,281.2,132.2,285.1,130.3z
							 M168.8,227.5c2.8-1.2,8.3-3.6,10.4-4.3C176.2,224.7,173.7,225.6,168.8,227.5z M246.2,324.9c-2.2,0.3-5.7,0.5-9.7,0.7
							C239.4,325.4,242.6,325.1,246.2,324.9z M154,582.7c-0.1,0-0.2-0.1-0.3-0.1C147.7,579.7,149.8,580.8,154,582.7z M167.1,587.3
							c1.3,0.4,1.3,0.3,0.7,0.1c-0.5-0.1-1.5-0.4-2.7-0.7c-0.6-0.2-1.4-0.4-2.1-0.6c-0.8-0.2-1.6-0.4-2.4-0.8
							c0.2,0.1,0.5,0.2,0.8,0.4c0.4,0.1,0.8,0.2,1.3,0.4C163.7,586.3,165.1,586.8,167.1,587.3z M168.7,77.6c0.9-0.3,1.7-0.6,2.6-0.9
							c-2.8,1.1-3.9,1.4-4,1.5C167.1,78.2,167.9,78,168.7,77.6z"/>
						<path class="st0" d="M219.2,326.9c-0.9,0-1.1,0-1.3-0.1C216.7,326.9,216.7,326.9,219.2,326.9z"/>
						<path class="st0" d="M379.8,108.8l0.5-0.1c0.3,0,0.4-0.1,0.5-0.1L379.8,108.8z"/>
						<path class="st0" d="M172.4,468.8c2.8,0.7,4.4,1.1,5.4,1.4C177.9,470.2,176.7,469.8,172.4,468.8z"/>
						<path class="st0" d="M239.9,584.2c-2.9,0.8-5.7,1.6-8.6,2.2c2.1-0.5,3.5-0.8,4.7-1.1c1.2-0.3,2.1-0.5,3.1-0.8
							C238.9,584.5,237.2,584.9,239.9,584.2z"/>
						<path class="st0" d="M316.5,571.7c1.3,0.2,2.8,0.4,4,0.7l-0.3-0.2C314.7,571.2,310.8,571,316.5,571.7z"/>
						<path class="st0" d="M248.1,582.7c0.7,0,6.1-1.7,12.2-3.4c-0.4,0.1-0.7,0.2-1.1,0.3C261,578.8,254.5,580.7,248.1,582.7z"/>
						<path class="st0" d="M261.7,578.8c1.9-0.5,3.8-1.1,5.6-1.6C268,577,265.1,577.9,261.7,578.8z"/>
						<path class="st0" d="M184.5,590.2c2.9,0.3,1.9-0.1,3.5,0.1c0.8,0,0-0.1-1.4-0.2c-0.7,0-1.6-0.1-2.5-0.2
							c-0.9-0.1-1.8-0.1-2.6-0.2c-1.6-0.2-2.9-0.3-2.7-0.3c0.1,0,0.5,0.1,1.4,0.2C181.1,589.9,182.4,590.1,184.5,590.2z"/>
						<polygon class="st0" points="253.2,581.9 251,582.3 247.7,583.5 						"/>
						<path class="st0" d="M204.6,591.5c0.8,0,1.7,0,2.5-0.1l2.5-0.2l5-0.5c-0.2,0,1.1-0.2,2.7-0.5c-1.5,0.3-3.1,0.4-4.6,0.6
							c-1.5,0.2-2.9,0.3-4.1,0.4c-0.6,0.1-1.2,0.1-1.7,0.2c-0.5,0-0.9,0-1.3,0.1C204.9,591.5,204.5,591.5,204.6,591.5z"/>
						<path class="st0" d="M217.3,590.2c3.2-0.5,6.2-1,8-1.3C223.5,589.2,219.8,589.8,217.3,590.2z"/>
						<path class="st0" d="M240,585.7l-2.9,0.7c-2.3,0.7-4.6,1.1-6.9,1.6c1.6-0.4,3.3-0.7,4.9-1.1L240,585.7z"/>
						<path class="st0" d="M112.1,547.5l-1.4-2.3c-0.5-0.8-0.9-1.6-1.3-2.4l-1.3-2.4c-0.4-0.8-0.8-1.7-1.2-2.5
							c-0.5-1,0.6,1.8,2.6,5.4c0.3,0.6,0.7,1.2,1,1.9c0.4,0.6,0.8,1.2,1.1,1.7C112.1,547.8,112.5,548.3,112.1,547.5z"/>
						<path class="st0" d="M133.6,572.6c-1.2-0.9-1.8-1.5-2.2-1.9c-0.5-0.4-0.8-0.8-1.4-1.3l-0.5,0l2,1.6l1,0.8L133.6,572.6z"/>
						<path class="st0" d="M112,549c-0.8-0.8-8.1-13.9-1.2-1.6C111.3,548.3,117.6,557.4,112,549z"/>
						<polygon class="st0" points="188.7,473.6 186,473 186.2,473.6 						"/>
						<path class="st0" d="M322.8,438.3c-5.2,3.9-5.8,4.3-6.2,4.8c-0.5,0.4-0.8,0.8-5.6,4c-1.2,0.9,0.8-0.4,2.7-1.8
							c2-1.4,3.9-2.7,2.7-1.8c3.1-2.4,5.5-4.2,6.7-5.2C324.3,437.4,324.3,437.3,322.8,438.3z"/>
						<path class="st0" d="M316.3,443.6c-1,0.7-2.1,1.5-3.2,2.4C315,444.6,315.8,444,316.3,443.6z"/>
						<path class="st0" d="M10.4,54.3c-1.6,2.4-2.8,5-3.9,7.7c0.3-0.9,0.7-1.7,1.1-2.5C8,58.6,8.5,57.8,8.9,57
							C9.4,56,9.9,55.2,10.4,54.3z"/>
						<path class="st0" d="M4.9,69.7c-0.2,0.6-0.4,1.3-0.6,2c-0.1,0.9,0,1.7-0.1,2.6c0,0.9,0.1,1.7,0.1,2.6c0-1,0-2.4,0.1-3.8
							c0-0.7,0.1-1.3,0.2-1.9C4.8,70.6,4.9,70.1,4.9,69.7z"/>
						<path class="st0" d="M147.2,236.1l-0.5,0.3c1.2-0.5,3-1.3,6.6-2.9C151.2,234.4,149.2,235.2,147.2,236.1z"/>
						<path class="st0" d="M236.7,175.1c-0.3,0.6-0.7,1.1-1,1.7c0.7-1,1.4-2,2.1-3.1L236.7,175.1z"/>
						<path class="st0" d="M312.3,119.4c-3.8,1-8.2,2.5-11.9,3.8C308.5,120.3,313.5,119.5,312.3,119.4z"/>
					</g>
				</g>
			</g>
		</g>
	</g>
</g>
<g id="Layer_1">
	<g>
		<linearGradient id="SVGID_1_" gradientUnits="userSpaceOnUse" x1="204.1743" y1="10.5032" x2="204.1743" y2="801.7185">
			<stop  offset="0.4022" style="stop-color:#467DB6"/>
			<stop  offset="1" style="stop-color:#467DB6;stop-opacity:0"/>
		</linearGradient>
		<path class="st1" d="M5.6,80.5c-1.1-2-0.7-4.1-0.5-6.2c0.2-2.1,0.6-4.1,1-6.1c1-4,2.4-7.9,4.5-11.6c2.1-3.6,4.7-7,8.1-9.7
			c0.8-0.7,1.8-1.3,2.6-1.8c0.8-0.6,1.7-1.1,2.6-1.6c1.7-1.1,3.5-2,5.3-3c3.7-1.8,7.5-3.3,11.6-4.3c4-1,8.3-1.5,12.6-1.1
			c4.3,0.4,8.6,1.7,12.3,4.3c0.9,0.6,1.8,1.4,2.6,2.2c0.8,0.8,1.6,1.8,2.1,2.8c0.6,1,1.1,2,1.5,3c0.4,1,0.8,2,1.1,3.2
			c0.3,1.4-0.5,2.7-1.9,3.1c-0.9,0.2-1.7,0-2.3-0.6L68.7,53c-2.3-2.1-6.1-2.9-9.6-2.4c-3.5,0.5-6.9,2.4-8.6,5.2
			c-0.9,1.4-1.4,3-1.5,4.8c0,0.4,0,0.9,0,1.3c0,0.5,0.1,0.8,0.1,1.2c0.1,0.8,0.4,1.5,0.8,2.1c1.4,2.7,5,4.3,8.6,4.9
			c3.7,0.6,7.7,0.3,11.3-0.8c3.7-1.2,7.3-2.9,10.3-5.2c3-2.4,5.4-5.4,6.9-8.9c1.6-3.5,2.4-7.3,2.7-11.3c0.3-4,0.1-7.9-1.1-11.4
			c-1.2-3.5-3.4-6.7-6.3-9.2c-2.9-2.5-6.4-4.4-10.1-5.7c-3.7-1.3-7.7-2.1-11.5-2.1c-7.8,0.1-15.8,2.5-22.3,6.9
			c-3.3,2.2-6.1,4.9-8.4,8.1c-1.1,1.6-2.1,3.3-2.9,5c-0.4,0.9-0.8,1.8-1.1,2.7c-0.3,0.9-0.6,1.9-0.9,2.9c-2,7.7-1.7,15.9,0.8,23.5
			c0.6,1.9,1.4,3.7,2.2,5.5c0.9,1.8,1.9,3.4,3.1,4.8c2.5,3,5.7,5.4,9.2,7.2c7,3.6,15.3,4.8,23.3,4c8-0.8,15.9-3.5,22.2-8.3
			c1.5-1.2,3-2.5,4.3-4c0.7-0.7,1.2-1.5,1.8-2.3c0.6-0.8,1.1-1.6,1.7-2.5c2.2-3.4,4.1-7.1,6-10.8c2-3.7,3.9-7.5,6.3-11.2
			c1.3-1.8,2.6-3.6,4.7-5.1l0.4-0.3c0,0,0.2-0.1,0.3-0.2l0.2-0.1c0.3-0.1,0.6-0.3,0.8-0.4c0.6-0.2,1.1-0.4,1.7-0.6
			c1.2-0.3,2.4-0.5,3.7-0.4c1.3,0.1,2.6,0.4,3.7,1c1.2,0.6,2.2,1.5,2.9,2.4c0.4,0.5,0.7,0.9,1,1.4c0.3,0.4,0.6,0.9,0.9,1.3l1.7,2.7
			c2.2,3.6,4.4,7.1,6.8,10.5c2.4,3.4,5,6.6,7.9,9.5c2.9,2.9,6.2,5.3,9.9,7l-0.1,0l1.2,0.4c0,0,0.1,0,0.1,0c2.1,0.9,4.7,0.8,7.3,0.4
			c2.5-0.4,5.1-1,7.5-1.8c5-1.6,9.8-3.7,14.5-6.1c4.7-2.4,9.2-5,13.5-8.1c1-0.8,2.1-1.6,3-2.4c0.5-0.4,0.9-0.9,1.3-1.3
			c0.2-0.2,0.3-0.5,0.4-0.6c0-0.1,0.1-0.2,0.1-0.2c0,0,0,0.1,0.1,0.2c0.1,0.1,0,0-0.2,0c-0.2,0-0.5,0-0.8,0c-0.6,0-1.2,0.1-1.7,0.3
			c-1.1,0.3-2,0.9-2.6,1.9c-0.6,0.9-0.8,2.1-0.8,3.3c0,1.2,0.2,2.4,0.6,3.6c0.7,2.4,2,4.6,3.7,6.4c0.9,0.9,1.8,1.6,2.9,1.9
			c1.1,0.4,2.1,0.3,3.3,0c2.3-0.6,4.6-2,6.9-3.3c4.5-2.7,9.1-5.5,14.1-7.6c4.9-2.1,10.2-3.6,15.6-4.2c5.4-0.5,10.8-0.2,16.1,1.1
			c5.3,1.3,10.2,3.9,14.7,6.7c4.5,2.8,8.8,5.9,13.7,6.7c4.9,0.9,10-0.5,14.9-2.2c4.9-1.7,9.8-3.8,15-5.4c5.1-1.6,10.5-2.8,16-2.9
			c2.7-0.1,5.5,0.3,8.1,0.7c2.6,0.4,5.3,0.7,7.9,1.2c5.2,0.8,10.5,1.8,15.7,3c5.2,1.2,10.4,2.6,15.4,4.4c5,1.9,10,4.1,14.5,7.3
			c2.2,1.6,4.3,3.6,6,6c1.7,2.4,2.8,5.3,3,8.3c0.1,1.4,0,3.2-0.7,4.7c-0.6,1.6-1.7,2.9-2.9,3.9c-2.4,2-5,3-7.7,4
			c-5.2,1.7-10.5,2.6-15.7,3.6l-15.6,2.7c-10.4,1.8-20.6,4-30.6,7c-10,3-19.7,7-28.7,12.1c-9,5.1-17.4,11.3-24.7,18.6
			c-7.3,7.3-13.6,15.6-18.9,24.6c-2.6,4.5-5,9.1-7.1,13.8c-0.5,1.2-1,2.4-1.5,3.6l-0.7,1.8c-0.3,0.6-0.6,1.4-0.9,2
			c-1.4,2.7-3.2,5-5.1,7c-4,4.1-8.6,7.1-13.3,9.8c-4.7,2.7-9.6,4.9-14.5,7c-9.9,4.1-19.9,7.7-29.8,11.2c-9.9,3.6-19.9,7.1-29.4,11.4
			c-4.8,2.1-9.4,4.4-13.8,7.1c-4.4,2.7-8.5,5.7-11.8,9.4c-3.3,3.7-5.4,8.1-5.6,12.8c-0.2,4.7,1.5,9.4,4,13.8
			c2.5,4.3,5.7,8.5,9.2,12.1c3.6,3.6,7.6,6.8,11.9,9.5c8.7,5.5,18.5,9.1,28.6,11.5c10.1,2.4,20.5,3.7,31,4.4c20.9,1.3,42,0.2,63-1.5
			c21-1.6,42.1-4,63.3-5.1c5.3-0.3,10.7-0.4,16-0.4c5.4,0.1,10.7,0.3,16.2,1c5.4,0.8,10.9,1.9,16.1,4.5c2.6,1.3,5.1,3,7.2,5.3
			c2.1,2.2,3.6,5.1,4.4,8c1.7,5.7,1.5,11.6,0.5,17.1c-1,5.5-3,10.7-5.3,15.7c-4.6,9.9-10.8,18.9-17.6,27.2
			c-6.9,8.3-14.4,15.9-22.4,23c-8,7.1-16.4,13.7-25.2,19.8c-8.8,6.1-17.9,11.7-27.3,16.7c-9.4,5-19.1,9.6-29.3,13.2
			c-10.1,3.6-20.7,6.1-31.5,7c-5.4,0.5-10.9,0.5-16.3,0c-2.7-0.2-5.5-0.6-8.1-1.1l-7.8-1.4c-10.4-1.9-20.8-3.6-31.2-4.4
			c-5.2-0.4-10.4-0.6-15.6-0.4c-5.2,0.2-10.3,0.8-15.2,2c-4.9,1.2-9.7,3.1-13.8,5.9c-4.1,2.8-7.5,6.5-9.8,10.9
			c-2.4,4.4-3.7,9.3-4.4,14.3c-0.7,5.1-0.9,10.3-0.8,15.5c0.3,10.4,2.1,20.7,5.4,30.6c3.3,9.8,8,19.2,14.3,27.4
			c6.3,8.1,14.4,14.9,23.6,19.5c4.6,2.3,9.5,4.1,14.5,5.3c5,1.2,10.2,1.9,15.3,2.2c10.4,0.5,20.8-0.8,31-3.2
			c5.1-1.2,10.1-2.7,15.1-4.4c5-1.7,9.8-3.6,14.7-5.6c9.7-4,19.3-8.4,29-12.7c4.8-2.2,9.7-4.3,14.6-6.3c5-2,10-3.8,15.2-5.1
			c5.2-1.4,10.6-2.2,16.1-2.2c2.7,0,5.5,0.2,8.2,0.7c2.7,0.4,5.3,1,7.9,1.7c5.2,1.5,10.3,3.6,14.9,6.6c4.6,2.9,8.7,6.7,12.1,11
			c3.4,4.3,6.1,9.1,8.2,14c2.1,5,3.7,10.1,5,15.3c2.5,10.4,3.8,21,4.9,31.5c1.1,10.5,2,21.2,1.4,31.9c-0.3,5.3-0.9,10.7-2.1,16
			c-1.2,5.3-3,10.5-6,15.2c-1.5,2.3-3.2,4.5-5.3,6.4c-2.1,1.9-4.5,3.4-7,4.6c-2.6,1.1-5.3,1.9-8,2.2c-2.7,0.4-5.4,0.5-8.2,0.4
			c-5.5-0.2-10.9-1.6-15.8-4c-4.9-2.4-9.2-5.8-13.3-9.2c-4-3.5-7.9-7.1-12-10.3c-4.1-3.2-8.5-6-13.3-7.8c-4.8-1.8-10-2.5-15.1-2.4
			c-5.1,0.1-10,2-14.3,4.7c-4.4,2.7-8.3,6.2-11.9,10c-3.5,3.8-6.7,8-9.6,12.4c-5.7,8.8-10.3,18.3-13.6,28.3c-3.3,10-5.4,20.4-5,31
			c0.3,5.2,1.3,10.5,3.5,15.2c2.2,4.7,5.8,8.9,10.4,11.4l-0.1,0.3c-4.7-2.5-8.5-6.6-10.8-11.4c-2.4-4.8-3.5-10.1-3.8-15.4
			c-0.7-10.7,1.4-21.3,4.5-31.4c3.2-10.1,7.8-19.9,13.5-28.8c2.9-4.5,6.1-8.8,9.6-12.8c3.6-4,7.6-7.6,12.2-10.5
			c2.3-1.5,4.7-2.7,7.3-3.6c2.6-0.9,5.3-1.5,8.1-1.6c5.4-0.2,10.9,0.5,16,2.4c5.1,1.8,9.8,4.8,14,8c4.2,3.3,8.1,6.9,12.1,10.3
			c4,3.4,8.2,6.5,12.8,8.8c4.6,2.3,9.6,3.5,14.7,3.6c2.5,0.1,5.1-0.1,7.7-0.4c2.5-0.3,4.9-1,7.2-2c4.6-2,8.3-5.6,11-9.9
			c2.7-4.3,4.4-9.2,5.5-14.2c1.1-5,1.7-10.2,2-15.4c0.5-10.5-0.3-20.9-1.5-31.4c-1.1-10.5-2.5-20.9-4.9-31.1
			c-2.5-10.1-6.2-20-12.6-28.1c-3.2-4-7-7.5-11.3-10.2c-4.3-2.7-9.1-4.8-14-6.1c-5-1.4-10.1-2.3-15.2-2.2c-5.1,0-10.2,0.8-15.2,2.1
			c-10,2.6-19.7,7-29.3,11.2c-9.6,4.3-19.3,8.7-29.1,12.8c-4.9,2-9.9,4-14.9,5.7c-5.1,1.7-10.2,3.2-15.4,4.5
			c-10.4,2.5-21.1,3.9-31.9,3.4c-5.4-0.2-10.8-0.9-16-2.2c-5.3-1.3-10.4-3.1-15.3-5.5c-9.8-4.8-18.3-12-25-20.5
			c-6.7-8.5-11.7-18.3-15.1-28.5c-3.4-10.2-5.4-20.9-5.8-31.7c-0.2-5.4,0-10.8,0.7-16.2c0.7-5.4,2.2-10.9,4.8-15.8
			c2.6-5,6.5-9.3,11.1-12.5c4.6-3.2,9.9-5.3,15.2-6.7c10.7-2.7,21.6-2.6,32.3-1.9c10.7,0.8,21.2,2.4,31.7,4.1l7.8,1.3
			c2.6,0.4,5.1,0.8,7.6,1c5.1,0.4,10.2,0.3,15.4-0.2c10.3-0.9,20.4-3.5,30.3-6.7c9.9-3.2,19.6-7.3,28.8-12.2
			c9.2-4.9,18.1-10.5,26.6-16.6c17-12.3,32.6-26.4,45.7-42.6c6.5-8.1,12.5-16.6,16.9-25.9c2.2-4.6,3.9-9.4,4.9-14.3
			c1-4.8,1.1-9.8-0.2-14.4c-1.1-4.4-4.3-7.7-8.6-9.9c-4.3-2.2-9.3-3.3-14.3-4.1c-10.2-1.4-20.7-1.3-31.2-0.9
			c-10.5,0.4-21,1.3-31.5,2.2c-10.5,0.9-21.1,1.9-31.6,2.7c-21.1,1.6-42.4,2.7-63.7,1.3c-10.6-0.7-21.3-2.1-31.8-4.6
			c-10.4-2.6-20.7-6.3-30-12.2c-4.6-2.9-8.9-6.3-12.8-10.2c-3.8-3.9-7.2-8.3-10-13.1c-1.4-2.4-2.6-5-3.4-7.7
			c-0.8-2.7-1.3-5.6-1.2-8.6c0.1-2.9,0.8-5.9,2-8.6c1.2-2.7,2.9-5.1,4.7-7.2c3.8-4.3,8.3-7.5,12.9-10.3c4.6-2.8,9.5-5.2,14.4-7.4
			c9.8-4.3,19.8-7.9,29.7-11.6c9.9-3.6,19.9-7.1,29.5-11.3c4.8-2.1,9.5-4.3,14-6.9c4.5-2.6,8.7-5.4,12.1-9c1.7-1.8,3.2-3.7,4.2-5.7
			c0.3-0.5,0.5-1,0.7-1.6l0.8-1.9c0.5-1.2,1-2.5,1.6-3.7c2.2-4.9,4.7-9.7,7.4-14.4c5.4-9.3,12.1-17.9,19.8-25.5
			c7.7-7.6,16.5-14,25.9-19.2c9.4-5.2,19.5-9.2,29.7-12.2c10.3-3,20.8-5.2,31.2-6.9l15.7-2.5c5.2-0.9,10.4-1.7,15.2-3.3
			c2.4-0.8,4.7-1.7,6.4-3.2c0.8-0.7,1.5-1.5,1.9-2.4c0.4-0.9,0.5-1.9,0.4-3.1c-0.1-2.3-0.9-4.5-2.3-6.5c-1.3-2-3.1-3.7-5.1-5.2
			c-4-3-8.8-5.2-13.6-7c-4.9-1.8-9.9-3.3-15-4.5c-5.1-1.2-10.3-2.2-15.4-3.1c-2.6-0.4-5.2-0.8-7.8-1.2c-2.6-0.4-5.1-0.7-7.7-0.7
			c-5.1,0-10.2,1.1-15.2,2.6c-5,1.5-9.9,3.5-14.9,5.2c-2.5,0.8-5.1,1.6-7.8,2.1c-1.4,0.2-2.7,0.4-4.1,0.4c-1.4,0-2.8-0.1-4.2-0.3
			c-2.8-0.5-5.4-1.6-7.8-2.9c-2.4-1.3-4.6-2.8-6.8-4.2c-4.4-2.8-9-5.3-14-6.5c-5-1.3-10.2-1.6-15.4-1.1c-5.1,0.5-10.2,1.9-15,3.9
			c-4.8,2-9.3,4.8-13.9,7.4c-2.3,1.3-4.7,2.7-7.4,3.4c-0.7,0.2-1.4,0.3-2.2,0.3c-0.8,0-1.6-0.2-2.3-0.4c-1.4-0.5-2.6-1.4-3.6-2.4
			c-2-2-3.4-4.5-4.2-7.2c-0.4-1.3-0.6-2.7-0.6-4.2c0-1.4,0.3-3,1.1-4.3c0.8-1.4,2.2-2.3,3.7-2.7c0.7-0.2,1.5-0.3,2.2-0.3
			c0.4,0,0.8,0,1.2,0.1c0.4,0.1,1,0.2,1.5,0.8c0.2,0.3,0.3,0.8,0.3,1.1c0,0.3-0.1,0.6-0.2,0.8c-0.2,0.4-0.4,0.7-0.7,1
			c-0.5,0.6-1,1.1-1.5,1.5c-1,0.9-2.1,1.8-3.2,2.5c-4.4,3.1-9,5.8-13.7,8.2c-4.7,2.4-9.6,4.6-14.7,6.3c-2.5,0.8-5.1,1.6-7.8,2
			c-1.3,0.2-2.7,0.3-4.1,0.3c-1.4,0-2.9-0.2-4.3-0.8l0.1,0l-1.3-0.4c0,0-0.1,0-0.1,0l0,0c-4-1.7-7.6-4.3-10.7-7.2
			c-3.2-2.9-5.9-6.2-8.5-9.6c-2.6-3.4-4.9-7-7.2-10.4l-1.8-2.6l-0.9-1.2c-0.3-0.4-0.6-0.8-0.9-1.1c-1.1-1.3-2.6-2-4.3-2.1
			c-0.8,0-1.7,0.1-2.5,0.4c-0.4,0.1-0.8,0.3-1.3,0.5c-0.2,0.1-0.4,0.2-0.6,0.3l-0.1,0.1c-0.1,0,0,0-0.1,0l-0.2,0.2
			c-1.3,1-2.5,2.6-3.6,4.3c-2.2,3.4-3.9,7.1-5.8,10.9c-1.8,3.8-3.7,7.6-5.9,11.4c-1.1,1.9-2.4,3.7-4,5.4c-1.5,1.7-3.2,3.1-5,4.5
			c-7.2,5.3-15.8,8.1-24.5,8.9c-8.7,0.8-17.7-0.3-25.7-4.3c-4-2-7.7-4.7-10.6-8.1c-1.6-1.7-2.8-3.7-3.8-5.7c-1-2-1.9-4-2.6-6.1
			c-2.8-8.4-3.2-17.6-1-26.2c0.3-1.1,0.6-2.1,0.9-3.2c0.4-1.1,0.8-2.1,1.2-3.2c0.9-2.1,2.1-4,3.4-5.9c2.6-3.7,5.9-6.8,9.6-9.3
			c3.7-2.5,7.7-4.4,12-5.8c4.2-1.3,8.6-2.1,13.1-2.1c4.6,0,9,0.9,13.2,2.4c4.2,1.5,8.3,3.6,11.7,6.6c3.5,3,6.3,7,7.8,11.4
			c1.6,4.4,1.7,9.2,1.4,13.5c-0.3,4.4-1.2,8.9-3.1,13.1c-1.9,4.2-4.8,8-8.5,10.8c-3.6,2.8-7.8,4.8-12,6.1c-4.4,1.3-9,1.7-13.6,0.9
			c-2.3-0.4-4.6-1-6.8-2.2c-2.2-1.2-4.2-2.9-5.6-5.3c-0.7-1.2-1.1-2.5-1.3-3.8c-0.1-0.6-0.2-1.3-0.2-1.9c0-0.6,0-1.2,0-1.8
			c0.1-2.5,0.9-5,2.2-7.1c1.3-2.2,3.3-3.9,5.4-5.2c2.1-1.3,4.5-2,6.8-2.4c2.4-0.4,4.8-0.3,7.2,0.3c2.4,0.5,4.8,1.7,6.7,3.5l-4.3,2.4
			c-0.2-0.7-0.5-1.6-0.8-2.4c-0.3-0.8-0.7-1.6-1.1-2.3c-0.4-0.7-0.9-1.3-1.4-1.9c-0.6-0.6-1.2-1.1-1.9-1.6c-2.8-2-6.2-3-9.8-3.4
			c-3.6-0.3-7.3,0-10.9,0.9c-3.6,0.9-7.1,2.3-10.5,3.9c-1.7,0.8-3.4,1.7-5,2.7c-0.8,0.5-1.6,1-2.4,1.5c-0.8,0.5-1.6,1-2.3,1.6
			c-2.8,2.2-5.2,5.1-7,8.2c-1.9,3.2-3.3,6.7-4.2,10.3c-0.5,1.8-0.8,3.7-1.1,5.5c-0.3,1.9,0,3.7-1.1,5.6L5.6,80.5z"/>
	</g>
</g>
<g id="Layer_4">
	<path id="SVGID_x5F_2_x5F_" class="st2" d="M7,75c-0.3-11.8,4.8-26,14.8-32.7c25-16.7,41.4-9.5,46-2.8c2,2.9,2.7,6.2,2.7,6.2
		c-7.2-6.9-25.1-2.8-24.1,11.4c0.7,10,14.7,12.4,24.6,9.1c10.6-3.5,21.5-11.3,21.4-31.4c-0.1-21-21.6-27.5-32.3-27.3
		c-14.5,0.3-31.2,8.8-36.4,24.6c-5.9,17.8,1.3,33.4,5.4,38.3c15,18.2,48.9,15.6,63.2-0.8c7.4-8.5,13-27.4,20-31.9
		c0,0,7-4.1,11.4,1.8c5.5,7.3,14.1,25.4,28.8,31.9l1.3,0.4c12.7,5.7,58.7-22.2,46.9-21.9c-11.7,0.3-4.4,20.1,3.9,19.6
		c8.3-0.5,21.3-15.9,43.6-15.4s27.7,14.7,41.4,15.2c13.7,0.5,29.6-12.8,48.9-10.1c19.3,2.7,63.4,9.4,63.3,30.2
		c-0.1,26.3-113.7-6.2-155.6,98.4c-15.7,39.1-163,41-114.5,101.4c56.7,70.5,245.5-6.5,260.5,40.4c15,46.9-102.1,148.9-177.6,136.2
		c-36.5-6.1-95.3-18.9-101.7,28.9s24.9,134,131.1,91.1c41.1-16.6,62.7-31.8,87.9-27.4c42.8,7.6,47.5,45.9,51.4,84.7
		c3.9,38.7-3.2,65.5-26.4,68.5c-37.2,4.9-41.5-34.6-77.9-33s-76.3,94.1-39.9,114.3"/>
	<text>	<textPath  xlink:href="#SVGID_x5F_2_x5F_" startOffset="55.9728%">
<tspan  style="font-family:'MyriadPro-Regular'; font-size:6.5px;">Spinnen sie den Faden mit uns weiter!</tspan>	</textPath>
</text>
</g>
<g id="Layer_2" class="st3">
	<linearGradient id="SVGID_3_" gradientUnits="userSpaceOnUse" x1="204.1714" y1="608.5783" x2="204.1714" y2="16.2056">
		<stop  offset="0" style="stop-color:#467DB6;stop-opacity:0"/>
		<stop  offset="1" style="stop-color:#467DB6"/>
	</linearGradient>
	<path class="st4" d="M350.9,614.8c-5-9.8-10.7-19.3-16.3-28.9c-5.6-9.6-11.1-19.3-16-29.3c-2.4-5-4.7-10.1-6.7-15.4
		c-1.9-5.3-3.6-10.7-4.5-16.3c-0.2-1.4-0.4-2.8-0.6-4.2c-0.1-1.5-0.2-2.9-0.1-4.4c0.1-3,0.9-5.9,2.1-8.7c0.7-1.4,1.5-2.6,2.4-3.8
		c0.9-1.2,2-2.3,3.1-3.2c1.1-1,2.4-1.8,3.6-2.6c1.3-0.7,2.6-1.4,3.9-2c5.4-2.2,11.2-3,17-2.9c5.7,0.1,11.4,1.1,16.9,3.1
		c2.7,1,5.3,2.3,7.8,3.9c2.4,1.6,4.7,3.6,6.5,6c1.8,2.4,3.1,5.3,3.5,8.4c0.2,1.5,0.3,3.1,0.1,4.6c-0.1,0.8-0.2,1.5-0.4,2.2l-0.5,2.1
		c-1.3,5.5-2.9,11-5.7,16.1c-2.8,5.1-6.8,9.5-11.3,13c-4.5,3.6-9.4,6.4-14.4,9c-5,2.5-10.2,4.7-15.4,6.8c-10.4,4.1-21,7.5-31.6,10.8
		c-10.6,3.3-21.3,6.3-32,9.2l-16.1,4.3c-5.4,1.4-10.8,2.8-16.3,3.8c-11,2.2-22.2,3.5-33.4,3.5c-11.2,0-22.6-1.4-33.3-5.1
		c-10.7-3.6-20.8-9.5-29-17.5c-8.2-8-14.3-17.9-18.3-28.5c-4-10.6-6-21.9-6.2-33.2c-0.1-5.7,0.2-11.3,1.1-17
		c0.9-5.7,2.7-11.4,5.8-16.4c1.6-2.5,3.4-4.8,5.6-6.9c2.2-2,4.6-3.8,7.1-5.3c5.1-2.9,10.7-4.7,16.3-5.8c5.6-1.1,11.3-1.4,17-1.5
		c5.7,0,11.3,0.3,16.9,0.9c11.2,1.1,22.2,2.9,33.1,4.7c2.8,0.5,5.3,0.9,8,1.1c2.7,0.2,5.4,0.3,8.1,0.3c5.4-0.1,10.8-0.6,16.1-1.5
		c5.3-0.9,10.6-2.2,15.9-3.7c5.2-1.5,10.4-3.2,15.5-5.2c5.1-2,10.1-4.2,15.1-6.6c4.9-2.4,9.7-5.1,14.4-7.9c9.4-5.6,18.4-12,27-18.8
		c17.1-13.7,32.7-29.6,44.8-47.6c3-4.5,5.7-9.2,7.9-14.1c2.2-4.9,3.9-9.9,4.7-15.1c0.4-2.6,0.5-5.1,0.3-7.6
		c-0.1-1.3-0.3-2.5-0.6-3.7c-0.1-0.6-0.3-1.2-0.5-1.8l-0.3-0.8l-0.3-0.8c-1.9-4.2-6-7.1-10.8-8.9c-4.8-1.8-10.2-2.7-15.5-3.2
		c-5.4-0.5-10.9-0.7-16.3-0.6c-11,0.1-22,0.9-33.1,1.7c-22.1,1.8-44.2,4.1-66.5,5c-11.1,0.4-22.3,0.6-33.5,0
		c-11.2-0.6-22.4-1.8-33.4-4.2c-11-2.5-21.9-6.2-31.7-12.1c-4.9-3-9.5-6.5-13.5-10.6c-4.1-4.1-7.6-8.6-10.5-13.7
		c-1.4-2.6-2.6-5.3-3.4-8.2c-0.8-2.9-1.2-6-0.9-9.1c0.3-3.1,1.2-6.1,2.7-8.8c1.4-2.7,3.3-5.1,5.4-7.2c4.2-4.2,9-7.4,13.9-10.2
		c4.9-2.8,10.1-5.2,15.2-7.4c10.3-4.4,20.8-8.1,31.2-11.9c10.4-3.8,20.8-7.6,30.7-12.2c4.9-2.3,9.7-4.9,14.1-8
		c4.3-3.1,8.2-6.7,10.4-11.1c0.5-1,1-2.4,1.6-3.7c0.5-1.3,1.1-2.6,1.7-3.9c1.2-2.6,2.4-5.1,3.7-7.6c2.6-5,5.5-9.9,8.8-14.5
		c6.5-9.3,14.3-17.7,23.1-24.8c8.8-7.1,18.7-12.9,29.1-17.3c10.4-4.5,21.2-7.7,32.1-10.1c10.9-2.5,22-4,32.9-5.7
		c5.4-0.9,10.9-1.8,15.9-3.5c2.5-0.9,4.9-2,6.3-3.6c0.7-0.8,1.2-1.7,1.4-2.8c0.2-1,0.1-2.3-0.1-3.5c-0.4-2.4-1.6-4.6-3.3-6.5
		c-1.6-1.9-3.7-3.6-5.9-5c-4.5-2.9-9.5-5-14.7-6.8c-10.4-3.5-21.3-5.6-32.2-7.3c-2.7-0.4-5.5-0.9-8.1-1.1c-2.7-0.2-5.4-0.1-8,0.3
		c-5.3,0.7-10.6,2.4-15.8,4.3c-5.2,1.8-10.4,4-16,5.1c-2.8,0.6-5.8,0.7-8.7,0.3c-2.9-0.5-5.7-1.6-8.1-3c-2.5-1.4-4.8-3-7.1-4.4
		c-2.3-1.5-4.7-2.8-7.1-4c-4.9-2.3-10.3-3.4-15.7-3.6c-5.4-0.2-10.9,0.5-16,2.2c-5.2,1.6-10.1,4.2-14.8,6.9
		c-2.4,1.4-4.8,2.8-7.3,4.1c-1.3,0.6-2.6,1.2-4,1.6c-0.7,0.2-1.5,0.3-2.3,0.4c-0.8,0-1.6-0.2-2.4-0.4c-1.5-0.6-2.7-1.5-3.8-2.6
		c-1-1.1-1.9-2.3-2.6-3.6c-1.4-2.6-2.2-5.5-2-8.5c0.1-1.5,0.6-3.1,1.8-4.4c1.1-1.2,2.8-1.8,4.3-2c0.8-0.1,1.5-0.2,2.5,0.1
		c0.2,0.1,0.5,0.2,0.8,0.5c0.3,0.3,0.5,0.7,0.5,1.1c0,0.8-0.3,1.1-0.5,1.5c-0.9,1.4-2,2.2-3.1,3.2c-4.5,3.5-9.3,6.3-14.2,8.9
		c-5,2.6-10,4.9-15.4,6.7c-2.7,0.9-5.4,1.7-8.2,2.2c-1.4,0.2-2.8,0.4-4.3,0.4c-1.5,0-3-0.2-4.5-0.8l0.1,0l-1.3-0.4c0,0-0.1,0-0.1,0
		l0,0c-4-1.7-7.6-4.3-10.7-7.2c-3.2-2.9-5.9-6.2-8.5-9.6c-2.6-3.4-4.9-7-7.2-10.4l-1.8-2.6l-0.9-1.2c-0.3-0.4-0.6-0.8-0.9-1.1
		c-1.1-1.3-2.6-2-4.3-2.1c-0.8,0-1.7,0.1-2.5,0.4c-0.4,0.1-0.8,0.3-1.3,0.5c-0.2,0.1-0.4,0.2-0.6,0.3l-0.1,0.1c-0.1,0,0,0-0.1,0
		l-0.2,0.2c-1.3,1-2.5,2.6-3.6,4.3c-2.2,3.4-3.9,7.1-5.8,10.9c-1.8,3.8-3.7,7.6-5.9,11.4c-1.1,1.9-2.4,3.7-4,5.4
		c-1.5,1.7-3.2,3.1-5,4.5c-7.2,5.3-15.8,8.1-24.5,8.9c-8.7,0.8-17.7-0.3-25.7-4.3c-4-2-7.7-4.7-10.6-8.1c-1.6-1.7-2.8-3.7-3.8-5.7
		c-1-2-1.9-4-2.6-6.1c-2.8-8.4-3.2-17.6-1-26.2c0.3-1.1,0.6-2.1,0.9-3.2c0.4-1.1,0.8-2.1,1.2-3.2c0.9-2.1,2.1-4,3.4-5.9
		c2.6-3.7,5.9-6.8,9.6-9.3c3.7-2.5,7.7-4.4,12-5.8c4.2-1.3,8.6-2.1,13.1-2.1c4.6,0,9,0.9,13.2,2.4c4.2,1.5,8.3,3.6,11.7,6.6
		c3.5,3,6.3,7,7.8,11.4c1.6,4.4,1.7,9.2,1.4,13.5c-0.3,4.4-1.2,8.9-3.1,13.1c-1.9,4.2-4.8,8-8.5,10.8c-3.6,2.8-7.8,4.8-12,6.1
		c-4.4,1.3-9,1.7-13.6,0.9c-2.3-0.4-4.6-1-6.8-2.2c-2.2-1.2-4.2-2.9-5.6-5.3c-0.7-1.2-1.1-2.5-1.3-3.8c-0.1-0.6-0.2-1.3-0.2-1.9
		c0-0.6,0-1.2,0-1.8c0.1-2.5,0.9-5,2.2-7.1c1.3-2.2,3.3-3.9,5.4-5.2c2.1-1.3,4.5-2,6.8-2.4c2.4-0.4,4.8-0.3,7.2,0.3
		c2.4,0.5,4.8,1.7,6.7,3.5l-4.3,2.4c-0.2-0.7-0.5-1.6-0.8-2.4c-0.3-0.8-0.7-1.6-1.1-2.3c-0.4-0.7-0.9-1.3-1.4-1.9
		c-0.6-0.6-1.2-1.1-1.9-1.6c-2.8-2-6.2-3-9.8-3.4c-3.6-0.3-7.3,0-10.9,0.9c-3.6,0.9-7.1,2.3-10.5,3.9c-1.7,0.8-3.4,1.7-5,2.7
		c-0.8,0.5-1.6,1-2.4,1.5c-0.8,0.5-1.6,1-2.3,1.6c-2.8,2.2-5.2,5.1-7,8.2c-1.9,3.2-3.3,6.7-4.2,10.3c-0.5,1.8-0.8,3.7-1.1,5.5
		c-0.3,1.9,0,3.7-1.1,5.6l-2.8,0.1c-1.1-2-0.7-4.1-0.5-6.2c0.2-2.1,0.6-4.1,1-6.1c1-4,2.4-7.9,4.5-11.6c2.1-3.6,4.7-7,8.1-9.7
		c0.8-0.7,1.8-1.3,2.6-1.8c0.8-0.6,1.7-1.1,2.6-1.6c1.7-1.1,3.5-2,5.3-3c3.7-1.8,7.5-3.3,11.6-4.3c4-1,8.3-1.5,12.6-1.1
		c4.3,0.4,8.6,1.7,12.3,4.3c0.9,0.6,1.8,1.4,2.6,2.2c0.8,0.8,1.6,1.8,2.1,2.8c0.6,1,1.1,2,1.5,3c0.4,1,0.8,2,1.1,3.2
		c0.3,1.4-0.5,2.7-1.9,3.1c-0.9,0.2-1.7,0-2.3-0.6L68.7,53c-2.3-2.1-6.1-2.9-9.6-2.4c-3.5,0.5-6.9,2.4-8.6,5.2
		c-0.9,1.4-1.4,3-1.5,4.8c0,0.4,0,0.9,0,1.3c0,0.5,0.1,0.8,0.1,1.2c0.1,0.8,0.4,1.5,0.8,2.1c1.4,2.7,5,4.3,8.6,4.9
		c3.7,0.6,7.7,0.3,11.3-0.8c3.7-1.2,7.3-2.9,10.3-5.2c3-2.4,5.4-5.4,6.9-8.9c1.6-3.5,2.4-7.3,2.7-11.3c0.3-4,0.1-7.9-1.1-11.4
		c-1.2-3.5-3.4-6.7-6.3-9.2c-2.9-2.5-6.4-4.4-10.1-5.7c-3.7-1.3-7.7-2.1-11.5-2.1c-7.8,0.1-15.8,2.5-22.3,6.9
		c-3.3,2.2-6.1,4.9-8.4,8.1c-1.1,1.6-2.1,3.3-2.9,5c-0.4,0.9-0.8,1.8-1.1,2.7c-0.3,0.9-0.6,1.9-0.9,2.9c-2,7.7-1.7,15.9,0.8,23.5
		c0.6,1.9,1.4,3.7,2.2,5.5c0.9,1.8,1.9,3.4,3.1,4.8c2.5,3,5.7,5.4,9.2,7.2c7,3.6,15.3,4.8,23.3,4c8-0.8,15.9-3.5,22.2-8.3
		c1.5-1.2,3-2.5,4.3-4c0.7-0.7,1.2-1.5,1.8-2.3c0.6-0.8,1.1-1.6,1.7-2.5c2.2-3.4,4.1-7.1,6-10.8c2-3.7,3.9-7.5,6.3-11.2
		c1.3-1.8,2.6-3.6,4.7-5.1l0.4-0.3c0,0,0.2-0.1,0.3-0.2l0.2-0.1c0.3-0.1,0.6-0.3,0.8-0.4c0.6-0.2,1.1-0.4,1.7-0.6
		c1.2-0.3,2.4-0.5,3.7-0.4c1.3,0.1,2.6,0.4,3.7,1c1.2,0.6,2.2,1.5,2.9,2.4c0.4,0.5,0.7,0.9,1,1.4c0.3,0.4,0.6,0.9,0.9,1.3l1.7,2.7
		c2.2,3.6,4.4,7.1,6.8,10.5c2.4,3.4,5,6.6,7.9,9.5c2.9,2.9,6.2,5.3,9.9,7l-0.1,0l1.2,0.4l0,0c0,0,0.1,0,0.1,0
		c1.1,0.5,2.4,0.7,3.7,0.7c1.3,0,2.6-0.1,4-0.3c2.7-0.4,5.3-1.1,7.9-2c5.2-1.8,10.2-4,15.1-6.6c4.8-2.6,9.7-5.4,13.9-8.8
		c1-0.8,2.1-1.8,2.7-2.7c0.1-0.2,0.2-0.5,0.2-0.4c0,0,0,0.2,0.1,0.2c0,0,0,0-0.1,0c-0.4-0.1-1.1-0.1-1.7,0c-1.2,0.1-2.3,0.6-3.1,1.4
		c-0.8,0.8-1.2,2-1.3,3.2c-0.2,2.5,0.6,5.1,1.8,7.4c0.6,1.2,1.4,2.2,2.3,3.2c0.9,0.9,1.9,1.7,3,2.1c0.6,0.2,1.1,0.3,1.7,0.3
		c0.6,0,1.2-0.1,1.8-0.3c1.2-0.3,2.4-0.9,3.7-1.5c2.4-1.2,4.8-2.7,7.2-4.1c4.8-2.8,9.8-5.4,15.2-7.2c5.4-1.8,11.1-2.6,16.8-2.4
		c5.7,0.2,11.4,1.4,16.6,3.7c5.2,2.3,9.7,5.8,14.5,8.4c2.4,1.3,4.8,2.3,7.4,2.7c2.6,0.4,5.2,0.2,7.8-0.3c5.3-1.1,10.4-3.2,15.6-5.2
		c5.2-1.9,10.6-3.7,16.3-4.5c2.8-0.4,5.7-0.6,8.6-0.4c2.9,0.2,5.6,0.7,8.4,1c11,1.6,22,3.6,32.8,7.1c5.3,1.8,10.6,3.9,15.5,6.9
		c2.4,1.5,4.8,3.4,6.8,5.6c2,2.3,3.6,5.1,4.2,8.2c0.3,1.6,0.4,3.1,0.1,4.8c-0.3,1.7-1.1,3.4-2.3,4.6c-1.1,1.3-2.4,2.2-3.8,2.9
		c-1.3,0.7-2.7,1.3-4.1,1.8c-5.5,1.9-11,2.9-16.5,3.9c-11,1.9-21.9,3.6-32.6,6c-10.7,2.5-21.2,5.7-31.2,10.1
		c-10,4.4-19.4,10-27.8,16.9c-8.4,6.9-15.8,15-21.9,23.9c-3.1,4.5-5.9,9.1-8.4,14c-1.3,2.4-2.4,4.9-3.6,7.4
		c-0.6,1.2-1.1,2.5-1.6,3.7l-0.8,1.9c-0.2,0.6-0.6,1.4-0.9,2.1c-1.4,2.8-3.3,5.2-5.4,7.4c-2.1,2.1-4.4,4-6.7,5.6
		c-4.7,3.3-9.8,6-14.9,8.3c-20.5,9.4-42,15.3-62.2,23.9c-5,2.2-10,4.5-14.7,7.2c-4.7,2.7-9.2,5.7-12.8,9.4
		c-3.7,3.7-6.3,8.2-6.7,13.1c-0.5,4.9,1.2,9.9,3.7,14.5c2.6,4.6,5.9,8.9,9.7,12.7c3.8,3.8,8,7.1,12.6,9.9
		c9.2,5.6,19.6,9.2,30.2,11.6c10.7,2.3,21.6,3.5,32.6,4c11,0.5,22,0.4,33.1-0.1c22.1-0.9,44.1-3.2,66.3-5.1
		c11.1-0.9,22.2-1.8,33.4-1.9c5.6-0.1,11.2,0,16.9,0.5c5.7,0.5,11.4,1.4,17,3.4c2.8,1,5.6,2.4,8.1,4.3c2.5,1.9,4.7,4.5,6.1,7.4
		l0.5,1.1l0.4,1.1c0.2,0.7,0.5,1.5,0.6,2.2c0.4,1.5,0.6,3,0.7,4.5c0.3,3,0.1,6-0.3,9c-0.8,5.9-2.7,11.4-5,16.7
		c-2.3,5.3-5.2,10.2-8.3,15c-6.2,9.5-13.5,18.1-21.4,26.1c-7.9,8-16.4,15.4-25.2,22.2c-17.8,13.7-37.1,25.2-57.8,34.1
		c-5.2,2.2-10.5,4.2-15.9,5.8c-5.4,1.6-10.9,2.9-16.5,3.9c-5.6,0.9-11.3,1.5-17,1.5c-2.9,0-5.7-0.1-8.6-0.4
		c-2.8-0.2-5.8-0.7-8.4-1.2c-10.9-2-21.8-4-32.7-5.1c-5.5-0.6-10.9-1-16.4-1c-5.4,0-10.9,0.3-16.1,1.3c-5.3,0.9-10.4,2.6-15,5.1
		c-2.3,1.3-4.4,2.8-6.3,4.6c-1.9,1.8-3.5,3.8-4.9,6c-2.8,4.4-4.4,9.5-5.3,14.8c-0.8,5.3-1.2,10.8-1.1,16.2c0.1,10.9,2,21.7,5.8,31.9
		c3.8,10.2,9.6,19.6,17.2,27.2c7.7,7.6,17.2,13.3,27.5,16.7c10.3,3.5,21.2,4.9,32.2,5c11,0.1,21.9-1.3,32.7-3.4
		c5.4-1,10.7-2.4,16.1-3.8l16.1-4.3c10.7-2.9,21.4-5.9,31.9-9.2c10.6-3.2,21.1-6.7,31.4-10.7c5.1-2,10.2-4.2,15.1-6.6
		c4.9-2.5,9.6-5.2,13.8-8.6c4.2-3.3,7.8-7.3,10.4-12c2.6-4.6,4.1-9.9,5.4-15.2l0.4-2c0.1-0.7,0.3-1.2,0.3-1.9c0.2-1.2,0.1-2.5,0-3.7
		c-0.3-2.5-1.4-4.8-2.9-6.8c-3.1-4.1-7.8-6.9-12.7-8.8c-5-1.9-10.4-2.8-15.7-2.9c-5.3-0.1-10.7,0.7-15.6,2.6
		c-4.9,1.9-9.1,5.3-11.3,10c-1.1,2.3-1.7,4.8-1.8,7.4c-0.1,1.3,0,2.6,0.1,3.9c0.1,1.3,0.3,2.7,0.5,4c1.9,10.7,6.1,20.9,10.8,30.9
		c4.8,9.9,10.3,19.5,15.8,29.1c5.5,9.6,11.3,19.1,16.3,29.1"/>
	<path id="SVGID_x5F_4_x5F_" class="st5" d="M249.3,55.8c22.3,0.5,27.7,14.7,41.4,15.2c13.7,0.5,29.6-12.8,48.9-10.1
		c19.3,2.7,92.1,16.7,93.3,30.9"/>
	<text class="st6">	<textPath  xlink:href="#SVGID_x5F_4_x5F_" startOffset="7.8127%">
<tspan  style="font-family:'Tahoma'; font-size:6px;">Spinnen Sie den Faden mit uns weiter!</tspan>	</textPath>
</text>
</g>
</svg>
