<?xml version="1.0" encoding="utf-8"?>
<!-- Generator: Adobe Illustrator 23.0.3, SVG Export Plug-In . SVG Version: 6.00 Build 0)  -->
<svg version="1.1" xmlns="http://www.w3.org/2000/svg" xmlns:xlink="http://www.w3.org/1999/xlink" x="0px" y="0px"
	 viewBox="0 0 39.1 193.7" style="enable-background:new 0 0 39.1 193.7;" xml:space="preserve">
<style type="text/css">
	.st0{opacity:0.6;}
	.st1{fill:#348BB7;}
	.st2{fill:none;stroke:#94464D;stroke-width:5.748;stroke-linecap:round;stroke-linejoin:round;stroke-miterlimit:10;}
	.st3{fill:none;stroke:#167AAD;stroke-width:5.748;stroke-linecap:round;stroke-linejoin:round;stroke-miterlimit:10;}
	.st4{fill:#167AAD;}
	.st5{fill:none;stroke:#94464D;stroke-width:3;stroke-linecap:round;stroke-linejoin:round;}
	.st6{fill:none;stroke:#167AAD;stroke-width:3;stroke-linejoin:round;stroke-miterlimit:10;}
</style>
<g id="Layer_2">
</g>
<g id="Layer_1">
	<g>
		<path class="st5" d="M47.2,6.7c-14.8,13-31.3,12.4-32.2,34c-0.5,11.4,10.9,18.5,16.7,37.2c4.2,13.4,3.2,24-2.7,29.1
			c-5.6,4.9-15.8,6.3-17.2,26c-0.7,10.2,0.9,31,8.8,37.1c7.9,6,25,27.2,21.2,51.7"/>
	</g>
	<path class="st6" d="M47.2,0C32.3,13,18.4,12.2,17.5,33.8C17,45.2,23.4,48.4,29.3,67.2c4.2,13.4,4.6,25.5-1.2,30.6
		c-5.6,4.9-11.6,9.3-13,29c-0.7,10.2,1.1,24.2,9,30.3s22.4,12.2,18.5,36.7"/>
</g>
</svg>
