<svg width="178" height="34" viewBox="0 0 178 34" fill="none" xmlns="http://www.w3.org/2000/svg">
<g clip-path="url(#clip0_1_2)">
<path d="M25.0094 14L25.5094 24.5L23.5094 26.5L18.5094 28.5L11.5094 28L5.5094 23L4.0094 16.5L8.5094 13.5H14.0094L16.5094 14.5L11.5094 15.5L11.0094 19.5L14.5094 22.5L20.5094 22L25.0094 14Z" fill="#467DB6"/>
<path d="M34.8974 11.624H33.5534V14H31.8974V5.84H34.8974C36.8334 5.84 37.8014 6.784 37.8014 8.672C37.8014 9.624 37.5534 10.356 37.0574 10.868C36.5694 11.372 35.8494 11.624 34.8974 11.624ZM33.5534 10.208H34.8854C35.7094 10.208 36.1214 9.696 36.1214 8.672C36.1214 8.168 36.0214 7.808 35.8214 7.592C35.6214 7.368 35.3094 7.256 34.8854 7.256H33.5534V10.208ZM38.8918 14V5.6H40.4998V14H38.8918ZM46.6502 9.872V12.368C46.6662 12.56 46.6982 12.696 46.7462 12.776C46.7942 12.848 46.8942 12.9 47.0462 12.932L46.9982 14.144C46.5902 14.144 46.2622 14.116 46.0142 14.06C45.7742 14.004 45.5302 13.892 45.2822 13.724C44.7062 14.004 44.1182 14.144 43.5182 14.144C42.2782 14.144 41.6582 13.488 41.6582 12.176C41.6582 11.536 41.8302 11.084 42.1742 10.82C42.5182 10.548 43.0462 10.388 43.7582 10.34L45.0422 10.244V9.872C45.0422 9.624 44.9862 9.456 44.8742 9.368C44.7622 9.272 44.5822 9.224 44.3342 9.224L42.0782 9.32L42.0302 8.204C42.8862 7.972 43.6982 7.856 44.4662 7.856C45.2422 7.856 45.7982 8.016 46.1342 8.336C46.4782 8.656 46.6502 9.168 46.6502 9.872ZM43.9502 11.456C43.5022 11.496 43.2782 11.736 43.2782 12.176C43.2782 12.616 43.4742 12.836 43.8662 12.836C44.1702 12.836 44.5022 12.788 44.8622 12.692L45.0422 12.644V11.36L43.9502 11.456ZM51.5071 9.368H50.0311V11.828C50.0311 12.068 50.0351 12.24 50.0431 12.344C50.0591 12.44 50.1031 12.524 50.1751 12.596C50.2551 12.668 50.3751 12.704 50.5351 12.704L51.4471 12.68L51.5191 13.964C50.9831 14.084 50.5751 14.144 50.2951 14.144C49.5751 14.144 49.0831 13.984 48.8191 13.664C48.5551 13.336 48.4231 12.736 48.4231 11.864V9.368H47.7151V8H48.4231V6.332H50.0311V8H51.5071V9.368ZM55.8782 9.368H54.4022V11.828C54.4022 12.068 54.4062 12.24 54.4142 12.344C54.4302 12.44 54.4742 12.524 54.5462 12.596C54.6262 12.668 54.7462 12.704 54.9062 12.704L55.8182 12.68L55.8902 13.964C55.3542 14.084 54.9462 14.144 54.6662 14.144C53.9462 14.144 53.4542 13.984 53.1902 13.664C52.9262 13.336 52.7942 12.736 52.7942 11.864V9.368H52.0862V8H52.7942V6.332H54.4022V8H55.8782V9.368ZM58.8213 9.368V14H57.2133V9.368H56.5653V8H57.2133V7.736C57.2133 6.872 57.3413 6.276 57.5973 5.948C57.8533 5.62 58.3093 5.456 58.9653 5.456C59.2533 5.456 59.6253 5.496 60.0813 5.576L60.3333 5.612L60.3093 6.92C59.9573 6.904 59.6613 6.896 59.4213 6.896C59.1813 6.896 59.0213 6.96 58.9413 7.088C58.8613 7.216 58.8213 7.436 58.8213 7.748V8H60.2733V9.368H58.8213ZM61.4915 8.684C61.9155 8.132 62.6235 7.856 63.6155 7.856C64.6075 7.856 65.3155 8.132 65.7395 8.684C66.1635 9.228 66.3755 9.996 66.3755 10.988C66.3755 13.092 65.4555 14.144 63.6155 14.144C61.7755 14.144 60.8555 13.092 60.8555 10.988C60.8555 9.996 61.0675 9.228 61.4915 8.684ZM62.7275 12.344C62.8955 12.632 63.1915 12.776 63.6155 12.776C64.0395 12.776 64.3315 12.632 64.4915 12.344C64.6595 12.056 64.7435 11.604 64.7435 10.988C64.7435 10.372 64.6595 9.924 64.4915 9.644C64.3315 9.364 64.0395 9.224 63.6155 9.224C63.1915 9.224 62.8955 9.364 62.7275 9.644C62.5675 9.924 62.4875 10.372 62.4875 10.988C62.4875 11.604 62.5675 12.056 62.7275 12.344ZM67.5542 14V8H69.1502V8.636C69.8222 8.236 70.4622 7.976 71.0702 7.856V9.476C70.4222 9.612 69.8662 9.752 69.4022 9.896L69.1622 9.98V14H67.5542ZM73.627 14H72.019V8H73.615V8.336C74.167 8.016 74.639 7.856 75.031 7.856C75.679 7.856 76.179 8.044 76.531 8.42C77.267 8.044 77.939 7.856 78.547 7.856C79.339 7.856 79.887 8.088 80.191 8.552C80.503 9.008 80.659 9.74 80.659 10.748V14H79.051V10.796C79.051 10.284 78.995 9.908 78.883 9.668C78.771 9.42 78.547 9.296 78.211 9.296C77.955 9.296 77.643 9.352 77.275 9.464L77.095 9.524C77.127 10.124 77.143 10.58 77.143 10.892V14H75.535V10.916C75.535 10.324 75.483 9.908 75.379 9.668C75.275 9.42 75.047 9.296 74.695 9.296C74.383 9.296 74.075 9.352 73.771 9.464L73.627 9.512V14ZM34.4054 21.136C33.5334 21.136 33.0974 21.424 33.0974 22C33.0974 22.256 33.2054 22.452 33.4214 22.588C33.6374 22.724 34.1414 22.92 34.9334 23.176C35.7334 23.432 36.2934 23.724 36.6134 24.052C36.9334 24.372 37.0934 24.868 37.0934 25.54C37.0934 26.396 36.8334 27.044 36.3134 27.484C35.7934 27.924 35.1134 28.144 34.2734 28.144C33.6494 28.144 32.8854 28.048 31.9814 27.856L31.5494 27.772L31.7174 26.488C32.7894 26.632 33.6094 26.704 34.1774 26.704C35.0254 26.704 35.4494 26.352 35.4494 25.648C35.4494 25.392 35.3494 25.192 35.1494 25.048C34.9574 24.904 34.5694 24.748 33.9854 24.58C33.0574 24.316 32.4014 24.004 32.0174 23.644C31.6414 23.276 31.4534 22.768 31.4534 22.12C31.4534 21.304 31.7014 20.696 32.1974 20.296C32.6934 19.896 33.3734 19.696 34.2374 19.696C34.8294 19.696 35.5814 19.776 36.4934 19.936L36.9254 20.02L36.7934 21.328C35.6654 21.2 34.8694 21.136 34.4054 21.136ZM40.5247 21.856C40.9407 21.856 41.4727 21.92 42.1207 22.048L42.4447 22.12L42.3967 23.392C41.7647 23.328 41.2967 23.296 40.9927 23.296C40.4407 23.296 40.0727 23.416 39.8887 23.656C39.7127 23.888 39.6247 24.332 39.6247 24.988C39.6247 25.644 39.7127 26.096 39.8887 26.344C40.0727 26.584 40.4447 26.704 41.0047 26.704L42.3967 26.608L42.4447 27.892C41.5887 28.06 40.9367 28.144 40.4887 28.144C39.6007 28.144 38.9607 27.896 38.5687 27.4C38.1847 26.896 37.9927 26.092 37.9927 24.988C37.9927 23.884 38.1927 23.088 38.5927 22.6C38.9927 22.104 39.6367 21.856 40.5247 21.856ZM45.2442 28H43.6362V19.6H45.2442V22.288C45.7962 22 46.2922 21.856 46.7322 21.856C47.5322 21.856 48.0842 22.092 48.3882 22.564C48.6922 23.036 48.8442 23.764 48.8442 24.748V28H47.2362V24.784C47.2362 24.28 47.1762 23.908 47.0562 23.668C46.9362 23.42 46.6962 23.296 46.3362 23.296C46.0242 23.296 45.7122 23.344 45.4002 23.44L45.2442 23.488V28ZM50.593 22.684C51.017 22.132 51.725 21.856 52.717 21.856C53.709 21.856 54.417 22.132 54.841 22.684C55.265 23.228 55.477 23.996 55.477 24.988C55.477 27.092 54.557 28.144 52.717 28.144C50.877 28.144 49.957 27.092 49.957 24.988C49.957 23.996 50.169 23.228 50.593 22.684ZM51.829 26.344C51.997 26.632 52.293 26.776 52.717 26.776C53.141 26.776 53.433 26.632 53.593 26.344C53.761 26.056 53.845 25.604 53.845 24.988C53.845 24.372 53.761 23.924 53.593 23.644C53.433 23.364 53.141 23.224 52.717 23.224C52.293 23.224 51.997 23.364 51.829 23.644C51.669 23.924 51.589 24.372 51.589 24.988C51.589 25.604 51.669 26.056 51.829 26.344ZM50.641 20.848V19.264H52.177V20.848H50.641ZM53.233 20.848V19.264H54.769V20.848H53.233ZM56.6557 30.52V22H58.2517V22.324C58.7717 22.012 59.2277 21.856 59.6197 21.856C60.4277 21.856 61.0237 22.1 61.4077 22.588C61.7917 23.068 61.9837 23.888 61.9837 25.048C61.9837 26.208 61.7717 27.016 61.3477 27.472C60.9237 27.92 60.2277 28.144 59.2597 28.144C58.9957 28.144 58.7117 28.12 58.4077 28.072L58.2637 28.048V30.52H56.6557ZM59.3077 23.296C59.0117 23.296 58.7117 23.356 58.4077 23.476L58.2637 23.536V26.68C58.6237 26.728 58.9157 26.752 59.1397 26.752C59.6037 26.752 59.9197 26.616 60.0877 26.344C60.2637 26.072 60.3517 25.608 60.3517 24.952C60.3517 23.848 60.0037 23.296 59.3077 23.296ZM65.0791 23.368V28H63.4711V23.368H62.8231V22H63.4711V21.736C63.4711 20.872 63.5991 20.276 63.8551 19.948C64.1111 19.62 64.5671 19.456 65.2231 19.456C65.5111 19.456 65.8831 19.496 66.3391 19.576L66.5911 19.612L66.5671 20.92C66.2151 20.904 65.9191 20.896 65.6791 20.896C65.4391 20.896 65.2791 20.96 65.1991 21.088C65.1191 21.216 65.0791 21.436 65.0791 21.748V22H66.5311V23.368H65.0791ZM71.0121 22H72.6201V28H71.0241V27.664C70.4481 27.984 69.9481 28.144 69.5241 28.144C68.6921 28.144 68.1321 27.916 67.8441 27.46C67.5561 26.996 67.4121 26.224 67.4121 25.144V22H69.0201V25.168C69.0201 25.76 69.0681 26.164 69.1641 26.38C69.2601 26.596 69.4921 26.704 69.8601 26.704C70.2121 26.704 70.5441 26.648 70.8561 26.536L71.0121 26.488V22ZM75.713 28H74.105V22H75.701V22.336C76.245 22.016 76.745 21.856 77.201 21.856C78.001 21.856 78.553 22.092 78.857 22.564C79.161 23.036 79.313 23.764 79.313 24.748V28H77.705V24.796C77.705 24.284 77.645 23.908 77.525 23.668C77.405 23.42 77.165 23.296 76.805 23.296C76.477 23.296 76.161 23.352 75.857 23.464L75.713 23.512V28ZM86.1738 28.744C86.1738 29.432 85.9098 29.94 85.3818 30.268C84.8538 30.596 84.1378 30.76 83.2338 30.76C82.3378 30.76 81.6458 30.64 81.1578 30.4C80.6778 30.16 80.4378 29.724 80.4378 29.092C80.4378 28.588 80.7258 28.112 81.3018 27.664C81.0058 27.464 80.8578 27.16 80.8578 26.752C80.8578 26.592 80.9778 26.328 81.2178 25.96L81.3258 25.792C80.7818 25.4 80.5098 24.824 80.5098 24.064C80.5098 23.296 80.7378 22.74 81.1938 22.396C81.6578 22.052 82.2698 21.88 83.0298 21.88C83.3738 21.88 83.7138 21.92 84.0498 22L84.2418 22.036L86.1738 21.976V23.26L85.2738 23.188C85.4498 23.46 85.5378 23.732 85.5378 24.004C85.5378 24.804 85.3338 25.356 84.9258 25.66C84.5178 25.964 83.8778 26.116 83.0058 26.116C82.8218 26.116 82.6578 26.1 82.5138 26.068C82.4338 26.276 82.3938 26.448 82.3938 26.584C82.3938 26.712 82.4618 26.8 82.5978 26.848C82.7338 26.896 83.0538 26.924 83.5578 26.932C84.5658 26.94 85.2538 27.076 85.6218 27.34C85.9898 27.596 86.1738 28.064 86.1738 28.744ZM82.0218 28.924C82.0218 29.268 82.4418 29.44 83.2818 29.44C84.1298 29.44 84.5538 29.24 84.5538 28.84C84.5538 28.624 84.4818 28.484 84.3378 28.42C84.1938 28.364 83.8898 28.332 83.4258 28.324L82.3458 28.24C82.1298 28.456 82.0218 28.684 82.0218 28.924ZM82.1178 24.016C82.1178 24.6 82.4218 24.892 83.0298 24.892C83.6458 24.892 83.9538 24.6 83.9538 24.016C83.9538 23.424 83.6458 23.128 83.0298 23.128C82.4218 23.128 82.1178 23.424 82.1178 24.016ZM91.4559 23.5C90.4639 23.372 89.7679 23.308 89.3679 23.308C88.9759 23.308 88.7199 23.344 88.5999 23.416C88.4879 23.488 88.4319 23.604 88.4319 23.764C88.4319 23.916 88.5079 24.024 88.6599 24.088C88.8199 24.144 89.2199 24.232 89.8599 24.352C90.5079 24.464 90.9679 24.652 91.2399 24.916C91.5119 25.18 91.6479 25.608 91.6479 26.2C91.6479 27.496 90.8439 28.144 89.2359 28.144C88.7079 28.144 88.0679 28.072 87.3159 27.928L86.9319 27.856L86.9799 26.512C87.9719 26.64 88.6599 26.704 89.0439 26.704C89.4359 26.704 89.6999 26.668 89.8359 26.596C89.9799 26.516 90.0519 26.4 90.0519 26.248C90.0519 26.096 89.9759 25.984 89.8239 25.912C89.6799 25.84 89.2959 25.752 88.6719 25.648C88.0559 25.544 87.5959 25.368 87.2919 25.12C86.9879 24.872 86.8359 24.432 86.8359 23.8C86.8359 23.16 87.0519 22.68 87.4839 22.36C87.9159 22.032 88.4719 21.868 89.1519 21.868C89.6239 21.868 90.2679 21.944 91.0839 22.096L91.4799 22.168L91.4559 23.5ZM92.1855 22H93.8655L94.8255 26.632H95.1615L96.1695 22H97.8015L96.3615 28H93.6255L92.1855 22ZM99.964 25.684C99.972 26.052 100.068 26.32 100.252 26.488C100.444 26.648 100.716 26.728 101.068 26.728C101.812 26.728 102.476 26.704 103.06 26.656L103.396 26.62L103.42 27.808C102.5 28.032 101.668 28.144 100.924 28.144C100.02 28.144 99.364 27.904 98.956 27.424C98.548 26.944 98.344 26.164 98.344 25.084C98.344 22.932 99.228 21.856 100.996 21.856C102.74 21.856 103.612 22.76 103.612 24.568L103.492 25.684H99.964ZM102.028 24.46C102.028 23.98 101.952 23.648 101.8 23.464C101.648 23.272 101.38 23.176 100.996 23.176C100.62 23.176 100.352 23.276 100.192 23.476C100.04 23.668 99.96 23.996 99.952 24.46H102.028ZM104.761 28V22H106.357V22.636C107.029 22.236 107.669 21.976 108.277 21.856V23.476C107.629 23.612 107.073 23.752 106.609 23.896L106.369 23.98V28H104.761ZM113.822 23.872V26.368C113.838 26.56 113.87 26.696 113.918 26.776C113.966 26.848 114.066 26.9 114.218 26.932L114.17 28.144C113.762 28.144 113.434 28.116 113.186 28.06C112.946 28.004 112.702 27.892 112.454 27.724C111.878 28.004 111.29 28.144 110.69 28.144C109.45 28.144 108.83 27.488 108.83 26.176C108.83 25.536 109.002 25.084 109.346 24.82C109.69 24.548 110.218 24.388 110.93 24.34L112.214 24.244V23.872C112.214 23.624 112.158 23.456 112.046 23.368C111.934 23.272 111.754 23.224 111.506 23.224L109.25 23.32L109.202 22.204C110.058 21.972 110.87 21.856 111.638 21.856C112.414 21.856 112.97 22.016 113.306 22.336C113.65 22.656 113.822 23.168 113.822 23.872ZM111.122 25.456C110.674 25.496 110.45 25.736 110.45 26.176C110.45 26.616 110.646 26.836 111.038 26.836C111.342 26.836 111.674 26.788 112.034 26.692L112.214 26.644V25.36L111.122 25.456ZM116.963 28H115.355V22H116.951V22.336C117.495 22.016 117.995 21.856 118.451 21.856C119.251 21.856 119.803 22.092 120.107 22.564C120.411 23.036 120.563 23.764 120.563 24.748V28H118.955V24.796C118.955 24.284 118.895 23.908 118.775 23.668C118.655 23.42 118.415 23.296 118.055 23.296C117.727 23.296 117.411 23.352 117.107 23.464L116.963 23.512V28ZM125.312 23.368H123.836V25.828C123.836 26.068 123.84 26.24 123.848 26.344C123.864 26.44 123.908 26.524 123.98 26.596C124.06 26.668 124.18 26.704 124.34 26.704L125.252 26.68L125.324 27.964C124.788 28.084 124.38 28.144 124.1 28.144C123.38 28.144 122.888 27.984 122.624 27.664C122.36 27.336 122.228 26.736 122.228 25.864V23.368H121.52V22H122.228V20.332H123.836V22H125.312V23.368ZM125.903 22H127.487L128.219 26.632H128.507L129.419 22.12H131.075L131.987 26.632H132.275L133.007 22H134.591L133.451 28H130.931L130.247 24.328L129.563 28H127.043L125.903 22ZM135.952 22.684C136.376 22.132 137.084 21.856 138.076 21.856C139.068 21.856 139.776 22.132 140.2 22.684C140.624 23.228 140.836 23.996 140.836 24.988C140.836 27.092 139.916 28.144 138.076 28.144C136.236 28.144 135.316 27.092 135.316 24.988C135.316 23.996 135.528 23.228 135.952 22.684ZM137.188 26.344C137.356 26.632 137.652 26.776 138.076 26.776C138.5 26.776 138.792 26.632 138.952 26.344C139.12 26.056 139.204 25.604 139.204 24.988C139.204 24.372 139.12 23.924 138.952 23.644C138.792 23.364 138.5 23.224 138.076 23.224C137.652 23.224 137.356 23.364 137.188 23.644C137.028 23.924 136.948 24.372 136.948 24.988C136.948 25.604 137.028 26.056 137.188 26.344ZM142.015 28V22H143.611V22.636C144.283 22.236 144.923 21.976 145.531 21.856V23.476C144.883 23.612 144.327 23.752 143.863 23.896L143.623 23.98V28H142.015ZM149.804 23.368H148.328V25.828C148.328 26.068 148.332 26.24 148.34 26.344C148.356 26.44 148.4 26.524 148.472 26.596C148.552 26.668 148.672 26.704 148.832 26.704L149.744 26.68L149.816 27.964C149.28 28.084 148.872 28.144 148.592 28.144C147.872 28.144 147.38 27.984 147.116 27.664C146.852 27.336 146.72 26.736 146.72 25.864V23.368H146.012V22H146.72V20.332H148.328V22H149.804V23.368ZM154.391 22H155.999V28H154.403V27.664C153.827 27.984 153.327 28.144 152.903 28.144C152.071 28.144 151.511 27.916 151.223 27.46C150.935 26.996 150.791 26.224 150.791 25.144V22H152.399V25.168C152.399 25.76 152.447 26.164 152.543 26.38C152.639 26.596 152.871 26.704 153.239 26.704C153.591 26.704 153.923 26.648 154.235 26.536L154.391 26.488V22ZM159.092 28H157.484V22H159.08V22.336C159.624 22.016 160.124 21.856 160.58 21.856C161.38 21.856 161.932 22.092 162.236 22.564C162.54 23.036 162.692 23.764 162.692 24.748V28H161.084V24.796C161.084 24.284 161.024 23.908 160.904 23.668C160.784 23.42 160.544 23.296 160.184 23.296C159.856 23.296 159.54 23.352 159.236 23.464L159.092 23.512V28ZM169.553 28.744C169.553 29.432 169.289 29.94 168.761 30.268C168.233 30.596 167.517 30.76 166.613 30.76C165.717 30.76 165.025 30.64 164.537 30.4C164.057 30.16 163.817 29.724 163.817 29.092C163.817 28.588 164.105 28.112 164.681 27.664C164.385 27.464 164.237 27.16 164.237 26.752C164.237 26.592 164.357 26.328 164.597 25.96L164.705 25.792C164.161 25.4 163.889 24.824 163.889 24.064C163.889 23.296 164.117 22.74 164.573 22.396C165.037 22.052 165.649 21.88 166.409 21.88C166.753 21.88 167.093 21.92 167.429 22L167.621 22.036L169.553 21.976V23.26L168.653 23.188C168.829 23.46 168.917 23.732 168.917 24.004C168.917 24.804 168.713 25.356 168.305 25.66C167.897 25.964 167.257 26.116 166.385 26.116C166.201 26.116 166.037 26.1 165.893 26.068C165.813 26.276 165.773 26.448 165.773 26.584C165.773 26.712 165.841 26.8 165.977 26.848C166.113 26.896 166.433 26.924 166.937 26.932C167.945 26.94 168.633 27.076 169.001 27.34C169.369 27.596 169.553 28.064 169.553 28.744ZM165.401 28.924C165.401 29.268 165.821 29.44 166.661 29.44C167.509 29.44 167.933 29.24 167.933 28.84C167.933 28.624 167.861 28.484 167.717 28.42C167.573 28.364 167.269 28.332 166.805 28.324L165.725 28.24C165.509 28.456 165.401 28.684 165.401 28.924ZM165.497 24.016C165.497 24.6 165.801 24.892 166.409 24.892C167.025 24.892 167.333 24.6 167.333 24.016C167.333 23.424 167.025 23.128 166.409 23.128C165.801 23.128 165.497 23.424 165.497 24.016Z" fill="black"/>
<path d="M4.02858 16.2083C8.70069 12.6707 14.9131 11.4916 18.4172 15.6187C15.1395 13.4125 9.07295 15.6187 11.409 20.3354C13.7451 25.0521 26.0094 22.1041 24.2573 12.6707C22.5053 3.23736 6.73689 1.46861 4.40083 13.2603C2.06477 25.0521 10.5094 28.5 15.0094 28.5C17.9294 28.5 22.5053 28 26.0094 23.8729" stroke="black" stroke-width="2" stroke-linejoin="bevel"/>
</g>
<defs>
<clipPath id="clip0_1_2">
<rect width="178" height="34" fill="white"/>
</clipPath>
</defs>
</svg>
