<?xml version="1.0" encoding="utf-8"?>
<!-- Generator: Adobe Illustrator 23.0.3, SVG Export Plug-In . SVG Version: 6.00 Build 0)  -->
<svg version="1.1" xmlns="http://www.w3.org/2000/svg" xmlns:xlink="http://www.w3.org/1999/xlink" x="0px" y="0px"
	 viewBox="0 0 91.1 78.8" style="enable-background:new 0 0 91.1 78.8;" xml:space="preserve">
<style type="text/css">
	.st0{opacity:0.6;}
	.st1{fill:#348BB7;}
	.st2{fill:none;stroke:#94464D;stroke-width:5.748;stroke-linecap:round;stroke-linejoin:round;stroke-miterlimit:10;}
	.st3{fill:none;stroke:#167AAD;stroke-width:5.748;stroke-linecap:round;stroke-linejoin:round;stroke-miterlimit:10;}
	.st4{fill:#167AAD;}
</style>
<g id="Layer_2">
</g>
<g id="Layer_1">
	<path class="st2" d="M85.1,38.9c-0.4,4.6-9.4,34.7-43.2,34.7c-11.5,0-22.1-5.2-27.4-11.2c-3.7-4.2-10-18-4.8-33.7
		c4.6-13.9,19.3-21.3,32-21.6c9.5-0.2,29.8,4.5,30,22.5c0.3,17.7-11.1,26-20.4,29.1c-8.7,2.9-21,0.7-21.7-8
		C28.9,38.1,45,35.2,51.3,39.8C50.1,28,30.2,23,8.1,37.7"/>
	<path class="st3" d="M82.1,35.9c-0.4,4.6-9.4,34.7-43.2,34.7c-11.5,0-22.1-5.2-27.4-11.2c-3.7-4.2-10-18-4.8-33.7
		c4.6-13.9,19.3-21.3,32-21.6c9.5-0.2,29.8,4.5,30,22.5c0.3,17.7-11.1,26-20.4,29.1c-8.7,2.9-21,0.7-21.7-8
		C25.9,35.1,42,32.2,48.3,36.8C47.1,25,27.2,20,5.1,34.7"/>
</g>
</svg>
