<svg width="178" height="34" viewBox="0 0 178 34" fill="none" xmlns="http://www.w3.org/2000/svg">
<g clip-path="url(#clip0_101_2)">
<path d="M25.0094 14L25.5094 24.5L23.5094 26.5L18.5094 28.5L11.5094 28L5.5094 23L4.0094 16.5L8.5094 13.5H14.0094L16.5094 14.5L11.5094 15.5L11.0094 19.5L14.5094 22.5L20.5094 22L25.0094 14Z" fill="#467DB6"/>
<path d="M31.2974 14L33.5774 5.696H35.5934L37.8734 14H36.9614L36.3614 11.864H32.8094L32.2094 14H31.2974ZM34.2734 6.488L33.0134 11.036H36.1574L34.8974 6.488H34.2734ZM39.0218 14V8H39.9098V8.816C40.6058 8.336 41.3378 8.02 42.1058 7.868V8.78C41.7698 8.844 41.4178 8.944 41.0498 9.08C40.6898 9.216 40.4138 9.336 40.2218 9.44L39.9218 9.596V14H39.0218ZM45.8223 7.88C46.6303 7.88 47.1943 8.112 47.5143 8.576C47.8423 9.032 48.0063 9.836 48.0063 10.988C48.0063 12.14 47.8023 12.952 47.3943 13.424C46.9943 13.888 46.2543 14.12 45.1743 14.12C44.8383 14.12 44.2823 14.088 43.5063 14.024L43.1703 13.988V5.384H44.0583V8.3C44.6663 8.02 45.2543 7.88 45.8223 7.88ZM45.1623 13.316C45.9463 13.316 46.4623 13.14 46.7103 12.788C46.9663 12.428 47.0943 11.824 47.0943 10.976C47.0943 10.128 46.9943 9.536 46.7943 9.2C46.5943 8.856 46.2383 8.684 45.7263 8.684C45.2623 8.684 44.7863 8.772 44.2983 8.948L44.0583 9.032V13.256C44.5783 13.296 44.9463 13.316 45.1623 13.316ZM53.5667 13.256L53.9147 13.22L53.9387 13.928C53.0267 14.056 52.2467 14.12 51.5987 14.12C50.7347 14.12 50.1227 13.872 49.7627 13.376C49.4027 12.872 49.2227 12.092 49.2227 11.036C49.2227 8.932 50.0587 7.88 51.7307 7.88C52.5387 7.88 53.1427 8.108 53.5427 8.564C53.9427 9.012 54.1427 9.72 54.1427 10.688L54.0947 11.372H50.1347C50.1347 12.036 50.2547 12.528 50.4947 12.848C50.7347 13.168 51.1507 13.328 51.7427 13.328C52.3427 13.328 52.9507 13.304 53.5667 13.256ZM53.2427 10.652C53.2427 9.916 53.1227 9.396 52.8827 9.092C52.6507 8.788 52.2667 8.636 51.7307 8.636C51.2027 8.636 50.8027 8.796 50.5307 9.116C50.2667 9.436 50.1307 9.948 50.1227 10.652H53.2427ZM55.5453 14V8H56.4453V14H55.5453ZM55.5453 6.644V5.6H56.4453V6.644H55.5453ZM61.2783 8.78H59.3703V11.648C59.3703 12.336 59.4183 12.788 59.5143 13.004C59.6183 13.22 59.8583 13.328 60.2343 13.328L61.3023 13.256L61.3623 14C60.8263 14.088 60.4183 14.132 60.1383 14.132C59.5143 14.132 59.0823 13.98 58.8423 13.676C58.6023 13.372 58.4823 12.792 58.4823 11.936V8.78H57.6303V8H58.4823V6.164H59.3703V8H61.2783V8.78ZM64.2613 8.684C63.3893 8.684 62.9533 8.988 62.9533 9.596C62.9533 9.876 63.0533 10.076 63.2533 10.196C63.4533 10.308 63.9093 10.428 64.6213 10.556C65.3333 10.676 65.8373 10.848 66.1333 11.072C66.4293 11.296 66.5773 11.716 66.5773 12.332C66.5773 12.948 66.3773 13.4 65.9773 13.688C65.5853 13.976 65.0093 14.12 64.2493 14.12C63.7533 14.12 63.1693 14.064 62.4973 13.952L62.1373 13.892L62.1853 13.112C63.0973 13.248 63.7853 13.316 64.2493 13.316C64.7133 13.316 65.0653 13.244 65.3053 13.1C65.5533 12.948 65.6773 12.7 65.6773 12.356C65.6773 12.004 65.5733 11.768 65.3653 11.648C65.1573 11.52 64.7013 11.4 63.9973 11.288C63.2933 11.176 62.7933 11.012 62.4973 10.796C62.2013 10.58 62.0533 10.18 62.0533 9.596C62.0533 9.012 62.2573 8.58 62.6653 8.3C63.0813 8.02 63.5973 7.88 64.2133 7.88C64.7013 7.88 65.3133 7.936 66.0493 8.048L66.3853 8.108L66.3613 8.876C65.4733 8.748 64.7733 8.684 64.2613 8.684ZM70.2128 16.82C69.2528 16.82 68.5808 16.688 68.1968 16.424C67.8208 16.168 67.6328 15.696 67.6328 15.008C67.6328 14.68 67.7048 14.412 67.8488 14.204C67.9928 14.004 68.2368 13.776 68.5808 13.52C68.3568 13.368 68.2448 13.092 68.2448 12.692C68.2448 12.556 68.3448 12.304 68.5448 11.936L68.6528 11.744C68.0208 11.456 67.7048 10.852 67.7048 9.932C67.7048 8.564 68.4528 7.88 69.9488 7.88C70.3328 7.88 70.6888 7.92 71.0168 8L71.1968 8.036L72.9728 7.988V8.756L71.8328 8.732C72.0968 8.996 72.2288 9.396 72.2288 9.932C72.2288 10.684 72.0408 11.212 71.6648 11.516C71.2968 11.812 70.7128 11.96 69.9128 11.96C69.6968 11.96 69.5008 11.944 69.3248 11.912C69.1808 12.264 69.1088 12.492 69.1088 12.596C69.1088 12.844 69.1848 13 69.3368 13.064C69.4888 13.12 69.9488 13.148 70.7168 13.148C71.4848 13.148 72.0368 13.268 72.3728 13.508C72.7088 13.748 72.8768 14.216 72.8768 14.912C72.8768 16.184 71.9888 16.82 70.2128 16.82ZM68.5208 14.936C68.5208 15.36 68.6368 15.652 68.8688 15.812C69.1088 15.98 69.5448 16.064 70.1768 16.064C70.8168 16.064 71.2728 15.976 71.5448 15.8C71.8248 15.624 71.9648 15.328 71.9648 14.912C71.9648 14.504 71.8648 14.24 71.6648 14.12C71.4648 14 71.0728 13.94 70.4888 13.94L69.1928 13.88C68.9288 14.072 68.7488 14.24 68.6528 14.384C68.5648 14.528 68.5208 14.712 68.5208 14.936ZM68.6048 9.932C68.6048 10.404 68.7088 10.74 68.9168 10.94C69.1328 11.14 69.4848 11.24 69.9728 11.24C70.4608 11.24 70.8088 11.14 71.0168 10.94C71.2248 10.74 71.3288 10.404 71.3288 9.932C71.3288 9.452 71.2248 9.112 71.0168 8.912C70.8088 8.712 70.4608 8.612 69.9728 8.612C69.4848 8.612 69.1328 8.716 68.9168 8.924C68.7088 9.124 68.6048 9.46 68.6048 9.932ZM78.1409 13.256L78.4889 13.22L78.5129 13.928C77.6009 14.056 76.8209 14.12 76.1729 14.12C75.3089 14.12 74.6969 13.872 74.3369 13.376C73.9769 12.872 73.7969 12.092 73.7969 11.036C73.7969 8.932 74.6329 7.88 76.3049 7.88C77.1129 7.88 77.7169 8.108 78.1169 8.564C78.5169 9.012 78.7169 9.72 78.7169 10.688L78.6689 11.372H74.7089C74.7089 12.036 74.8289 12.528 75.0689 12.848C75.3089 13.168 75.7249 13.328 76.3169 13.328C76.9169 13.328 77.5249 13.304 78.1409 13.256ZM77.8169 10.652C77.8169 9.916 77.6969 9.396 77.4569 9.092C77.2249 8.788 76.8409 8.636 76.3049 8.636C75.7769 8.636 75.3769 8.796 75.1049 9.116C74.8409 9.436 74.7049 9.948 74.6969 10.652H77.8169ZM81.0195 14H80.1195V8H81.0075V8.42C81.6075 8.06 82.1915 7.88 82.7595 7.88C83.5035 7.88 84.0235 8.084 84.3195 8.492C84.5835 8.332 84.9235 8.192 85.3395 8.072C85.7635 7.944 86.1355 7.88 86.4555 7.88C87.2555 7.88 87.7915 8.096 88.0635 8.528C88.3435 8.952 88.4835 9.72 88.4835 10.832V14H87.5835V10.856C87.5835 10.024 87.5035 9.456 87.3435 9.152C87.1835 8.84 86.8435 8.684 86.3235 8.684C86.0595 8.684 85.7875 8.724 85.5075 8.804C85.2275 8.876 85.0115 8.948 84.8595 9.02L84.6315 9.128C84.7355 9.392 84.7875 9.976 84.7875 10.88V14H83.8875V10.904C83.8875 10.04 83.8075 9.456 83.6475 9.152C83.4955 8.84 83.1555 8.684 82.6275 8.684C82.3715 8.684 82.1075 8.724 81.8355 8.804C81.5715 8.876 81.3675 8.948 81.2235 9.02L81.0195 9.128V14ZM94.2307 13.256L94.5787 13.22L94.6027 13.928C93.6907 14.056 92.9107 14.12 92.2627 14.12C91.3987 14.12 90.7867 13.872 90.4267 13.376C90.0667 12.872 89.8867 12.092 89.8867 11.036C89.8867 8.932 90.7227 7.88 92.3947 7.88C93.2027 7.88 93.8067 8.108 94.2067 8.564C94.6067 9.012 94.8067 9.72 94.8067 10.688L94.7587 11.372H90.7987C90.7987 12.036 90.9187 12.528 91.1587 12.848C91.3987 13.168 91.8147 13.328 92.4067 13.328C93.0067 13.328 93.6147 13.304 94.2307 13.256ZM93.9067 10.652C93.9067 9.916 93.7867 9.396 93.5467 9.092C93.3147 8.788 92.9307 8.636 92.3947 8.636C91.8667 8.636 91.4667 8.796 91.1947 9.116C90.9307 9.436 90.7947 9.948 90.7867 10.652H93.9067ZM96.2093 14V8H97.1093V14H96.2093ZM96.2093 6.644V5.6H97.1093V6.644H96.2093ZM99.7343 14H98.8343V8H99.7223V8.42C100.37 8.06 100.99 7.88 101.582 7.88C102.382 7.88 102.918 8.096 103.19 8.528C103.47 8.96 103.61 9.728 103.61 10.832V14H102.722V10.856C102.722 10.024 102.638 9.456 102.47 9.152C102.31 8.84 101.962 8.684 101.426 8.684C101.17 8.684 100.898 8.724 100.61 8.804C100.33 8.876 100.114 8.948 99.9623 9.02L99.7343 9.128V14ZM107.164 8.684C106.292 8.684 105.856 8.988 105.856 9.596C105.856 9.876 105.956 10.076 106.156 10.196C106.356 10.308 106.812 10.428 107.524 10.556C108.236 10.676 108.74 10.848 109.036 11.072C109.332 11.296 109.48 11.716 109.48 12.332C109.48 12.948 109.28 13.4 108.88 13.688C108.488 13.976 107.912 14.12 107.152 14.12C106.656 14.12 106.072 14.064 105.4 13.952L105.04 13.892L105.088 13.112C106 13.248 106.688 13.316 107.152 13.316C107.616 13.316 107.968 13.244 108.208 13.1C108.456 12.948 108.58 12.7 108.58 12.356C108.58 12.004 108.476 11.768 108.268 11.648C108.06 11.52 107.604 11.4 106.9 11.288C106.196 11.176 105.696 11.012 105.4 10.796C105.104 10.58 104.956 10.18 104.956 9.596C104.956 9.012 105.16 8.58 105.568 8.3C105.984 8.02 106.5 7.88 107.116 7.88C107.604 7.88 108.216 7.936 108.952 8.048L109.288 8.108L109.264 8.876C108.376 8.748 107.676 8.684 107.164 8.684ZM113.102 7.88C113.366 7.88 113.814 7.928 114.446 8.024L114.734 8.06L114.698 8.792C114.058 8.72 113.586 8.684 113.282 8.684C112.602 8.684 112.138 8.848 111.89 9.176C111.65 9.496 111.53 10.096 111.53 10.976C111.53 11.848 111.642 12.456 111.866 12.8C112.098 13.144 112.574 13.316 113.294 13.316L114.71 13.208L114.746 13.952C114.002 14.064 113.446 14.12 113.078 14.12C112.142 14.12 111.494 13.88 111.134 13.4C110.782 12.92 110.606 12.112 110.606 10.976C110.606 9.832 110.798 9.032 111.182 8.576C111.566 8.112 112.206 7.88 113.102 7.88ZM116.984 14H116.084V5.384H116.984V8.336C117.624 8.032 118.24 7.88 118.832 7.88C119.632 7.88 120.168 8.096 120.44 8.528C120.72 8.96 120.86 9.728 120.86 10.832V14H119.96V10.856C119.96 10.024 119.876 9.456 119.708 9.152C119.548 8.84 119.204 8.684 118.676 8.684C118.172 8.684 117.684 8.776 117.212 8.96L116.984 9.044V14ZM126.766 9.812V12.884C126.79 13.18 127.022 13.356 127.462 13.412L127.426 14.12C126.794 14.12 126.318 13.96 125.998 13.64C125.278 13.96 124.558 14.12 123.838 14.12C123.286 14.12 122.866 13.964 122.578 13.652C122.29 13.34 122.146 12.892 122.146 12.308C122.146 11.724 122.294 11.296 122.59 11.024C122.886 10.744 123.35 10.572 123.982 10.508L125.866 10.328V9.812C125.866 9.404 125.778 9.112 125.602 8.936C125.426 8.76 125.186 8.672 124.882 8.672C124.242 8.672 123.578 8.712 122.89 8.792L122.518 8.828L122.482 8.144C123.362 7.968 124.142 7.88 124.822 7.88C125.502 7.88 125.994 8.036 126.298 8.348C126.61 8.66 126.766 9.148 126.766 9.812ZM123.07 12.26C123.07 12.996 123.374 13.364 123.982 13.364C124.526 13.364 125.062 13.272 125.59 13.088L125.866 12.992V11.012L124.09 11.18C123.73 11.212 123.47 11.316 123.31 11.492C123.15 11.668 123.07 11.924 123.07 12.26ZM129.693 8.78V14H128.793V8.78H128.037V8H128.793V7.46C128.793 6.612 128.913 6.036 129.153 5.732C129.393 5.42 129.813 5.264 130.413 5.264L131.625 5.348L131.613 6.092C131.165 6.076 130.793 6.068 130.497 6.068C130.209 6.068 130.001 6.164 129.873 6.356C129.753 6.548 129.693 6.92 129.693 7.472V8H131.433V8.78H129.693ZM135.622 8.78H133.714V11.648C133.714 12.336 133.762 12.788 133.858 13.004C133.962 13.22 134.202 13.328 134.578 13.328L135.646 13.256L135.706 14C135.17 14.088 134.762 14.132 134.482 14.132C133.858 14.132 133.426 13.98 133.186 13.676C132.946 13.372 132.826 12.792 132.826 11.936V8.78H131.974V8H132.826V6.164H133.714V8H135.622V8.78ZM34.4054 21.136C33.5334 21.136 33.0974 21.424 33.0974 22C33.0974 22.256 33.2054 22.452 33.4214 22.588C33.6374 22.724 34.1414 22.92 34.9334 23.176C35.7334 23.432 36.2934 23.724 36.6134 24.052C36.9334 24.372 37.0934 24.868 37.0934 25.54C37.0934 26.396 36.8334 27.044 36.3134 27.484C35.7934 27.924 35.1134 28.144 34.2734 28.144C33.6494 28.144 32.8854 28.048 31.9814 27.856L31.5494 27.772L31.7174 26.488C32.7894 26.632 33.6094 26.704 34.1774 26.704C35.0254 26.704 35.4494 26.352 35.4494 25.648C35.4494 25.392 35.3494 25.192 35.1494 25.048C34.9574 24.904 34.5694 24.748 33.9854 24.58C33.0574 24.316 32.4014 24.004 32.0174 23.644C31.6414 23.276 31.4534 22.768 31.4534 22.12C31.4534 21.304 31.7014 20.696 32.1974 20.296C32.6934 19.896 33.3734 19.696 34.2374 19.696C34.8294 19.696 35.5814 19.776 36.4934 19.936L36.9254 20.02L36.7934 21.328C35.6654 21.2 34.8694 21.136 34.4054 21.136ZM40.5247 21.856C40.9407 21.856 41.4727 21.92 42.1207 22.048L42.4447 22.12L42.3967 23.392C41.7647 23.328 41.2967 23.296 40.9927 23.296C40.4407 23.296 40.0727 23.416 39.8887 23.656C39.7127 23.888 39.6247 24.332 39.6247 24.988C39.6247 25.644 39.7127 26.096 39.8887 26.344C40.0727 26.584 40.4447 26.704 41.0047 26.704L42.3967 26.608L42.4447 27.892C41.5887 28.06 40.9367 28.144 40.4887 28.144C39.6007 28.144 38.9607 27.896 38.5687 27.4C38.1847 26.896 37.9927 26.092 37.9927 24.988C37.9927 23.884 38.1927 23.088 38.5927 22.6C38.9927 22.104 39.6367 21.856 40.5247 21.856ZM45.2442 28H43.6362V19.6H45.2442V22.288C45.7962 22 46.2922 21.856 46.7322 21.856C47.5322 21.856 48.0842 22.092 48.3882 22.564C48.6922 23.036 48.8442 23.764 48.8442 24.748V28H47.2362V24.784C47.2362 24.28 47.1762 23.908 47.0562 23.668C46.9362 23.42 46.6962 23.296 46.3362 23.296C46.0242 23.296 45.7122 23.344 45.4002 23.44L45.2442 23.488V28ZM50.593 22.684C51.017 22.132 51.725 21.856 52.717 21.856C53.709 21.856 54.417 22.132 54.841 22.684C55.265 23.228 55.477 23.996 55.477 24.988C55.477 27.092 54.557 28.144 52.717 28.144C50.877 28.144 49.957 27.092 49.957 24.988C49.957 23.996 50.169 23.228 50.593 22.684ZM51.829 26.344C51.997 26.632 52.293 26.776 52.717 26.776C53.141 26.776 53.433 26.632 53.593 26.344C53.761 26.056 53.845 25.604 53.845 24.988C53.845 24.372 53.761 23.924 53.593 23.644C53.433 23.364 53.141 23.224 52.717 23.224C52.293 23.224 51.997 23.364 51.829 23.644C51.669 23.924 51.589 24.372 51.589 24.988C51.589 25.604 51.669 26.056 51.829 26.344ZM50.641 20.848V19.264H52.177V20.848H50.641ZM53.233 20.848V19.264H54.769V20.848H53.233ZM56.6557 30.52V22H58.2517V22.324C58.7717 22.012 59.2277 21.856 59.6197 21.856C60.4277 21.856 61.0237 22.1 61.4077 22.588C61.7917 23.068 61.9837 23.888 61.9837 25.048C61.9837 26.208 61.7717 27.016 61.3477 27.472C60.9237 27.92 60.2277 28.144 59.2597 28.144C58.9957 28.144 58.7117 28.12 58.4077 28.072L58.2637 28.048V30.52H56.6557ZM59.3077 23.296C59.0117 23.296 58.7117 23.356 58.4077 23.476L58.2637 23.536V26.68C58.6237 26.728 58.9157 26.752 59.1397 26.752C59.6037 26.752 59.9197 26.616 60.0877 26.344C60.2637 26.072 60.3517 25.608 60.3517 24.952C60.3517 23.848 60.0037 23.296 59.3077 23.296ZM65.0791 23.368V28H63.4711V23.368H62.8231V22H63.4711V21.736C63.4711 20.872 63.5991 20.276 63.8551 19.948C64.1111 19.62 64.5671 19.456 65.2231 19.456C65.5111 19.456 65.8831 19.496 66.3391 19.576L66.5911 19.612L66.5671 20.92C66.2151 20.904 65.9191 20.896 65.6791 20.896C65.4391 20.896 65.2791 20.96 65.1991 21.088C65.1191 21.216 65.0791 21.436 65.0791 21.748V22H66.5311V23.368H65.0791ZM71.0121 22H72.6201V28H71.0241V27.664C70.4481 27.984 69.9481 28.144 69.5241 28.144C68.6921 28.144 68.1321 27.916 67.8441 27.46C67.5561 26.996 67.4121 26.224 67.4121 25.144V22H69.0201V25.168C69.0201 25.76 69.0681 26.164 69.1641 26.38C69.2601 26.596 69.4921 26.704 69.8601 26.704C70.2121 26.704 70.5441 26.648 70.8561 26.536L71.0121 26.488V22ZM75.713 28H74.105V22H75.701V22.336C76.245 22.016 76.745 21.856 77.201 21.856C78.001 21.856 78.553 22.092 78.857 22.564C79.161 23.036 79.313 23.764 79.313 24.748V28H77.705V24.796C77.705 24.284 77.645 23.908 77.525 23.668C77.405 23.42 77.165 23.296 76.805 23.296C76.477 23.296 76.161 23.352 75.857 23.464L75.713 23.512V28ZM86.1738 28.744C86.1738 29.432 85.9098 29.94 85.3818 30.268C84.8538 30.596 84.1378 30.76 83.2338 30.76C82.3378 30.76 81.6458 30.64 81.1578 30.4C80.6778 30.16 80.4378 29.724 80.4378 29.092C80.4378 28.588 80.7258 28.112 81.3018 27.664C81.0058 27.464 80.8578 27.16 80.8578 26.752C80.8578 26.592 80.9778 26.328 81.2178 25.96L81.3258 25.792C80.7818 25.4 80.5098 24.824 80.5098 24.064C80.5098 23.296 80.7378 22.74 81.1938 22.396C81.6578 22.052 82.2698 21.88 83.0298 21.88C83.3738 21.88 83.7138 21.92 84.0498 22L84.2418 22.036L86.1738 21.976V23.26L85.2738 23.188C85.4498 23.46 85.5378 23.732 85.5378 24.004C85.5378 24.804 85.3338 25.356 84.9258 25.66C84.5178 25.964 83.8778 26.116 83.0058 26.116C82.8218 26.116 82.6578 26.1 82.5138 26.068C82.4338 26.276 82.3938 26.448 82.3938 26.584C82.3938 26.712 82.4618 26.8 82.5978 26.848C82.7338 26.896 83.0538 26.924 83.5578 26.932C84.5658 26.94 85.2538 27.076 85.6218 27.34C85.9898 27.596 86.1738 28.064 86.1738 28.744ZM82.0218 28.924C82.0218 29.268 82.4418 29.44 83.2818 29.44C84.1298 29.44 84.5538 29.24 84.5538 28.84C84.5538 28.624 84.4818 28.484 84.3378 28.42C84.1938 28.364 83.8898 28.332 83.4258 28.324L82.3458 28.24C82.1298 28.456 82.0218 28.684 82.0218 28.924ZM82.1178 24.016C82.1178 24.6 82.4218 24.892 83.0298 24.892C83.6458 24.892 83.9538 24.6 83.9538 24.016C83.9538 23.424 83.6458 23.128 83.0298 23.128C82.4218 23.128 82.1178 23.424 82.1178 24.016ZM91.4559 23.5C90.4639 23.372 89.7679 23.308 89.3679 23.308C88.9759 23.308 88.7199 23.344 88.5999 23.416C88.4879 23.488 88.4319 23.604 88.4319 23.764C88.4319 23.916 88.5079 24.024 88.6599 24.088C88.8199 24.144 89.2199 24.232 89.8599 24.352C90.5079 24.464 90.9679 24.652 91.2399 24.916C91.5119 25.18 91.6479 25.608 91.6479 26.2C91.6479 27.496 90.8439 28.144 89.2359 28.144C88.7079 28.144 88.0679 28.072 87.3159 27.928L86.9319 27.856L86.9799 26.512C87.9719 26.64 88.6599 26.704 89.0439 26.704C89.4359 26.704 89.6999 26.668 89.8359 26.596C89.9799 26.516 90.0519 26.4 90.0519 26.248C90.0519 26.096 89.9759 25.984 89.8239 25.912C89.6799 25.84 89.2959 25.752 88.6719 25.648C88.0559 25.544 87.5959 25.368 87.2919 25.12C86.9879 24.872 86.8359 24.432 86.8359 23.8C86.8359 23.16 87.0519 22.68 87.4839 22.36C87.9159 22.032 88.4719 21.868 89.1519 21.868C89.6239 21.868 90.2679 21.944 91.0839 22.096L91.4799 22.168L91.4559 23.5ZM92.1855 22H93.8655L94.8255 26.632H95.1615L96.1695 22H97.8015L96.3615 28H93.6255L92.1855 22ZM99.964 25.684C99.972 26.052 100.068 26.32 100.252 26.488C100.444 26.648 100.716 26.728 101.068 26.728C101.812 26.728 102.476 26.704 103.06 26.656L103.396 26.62L103.42 27.808C102.5 28.032 101.668 28.144 100.924 28.144C100.02 28.144 99.364 27.904 98.956 27.424C98.548 26.944 98.344 26.164 98.344 25.084C98.344 22.932 99.228 21.856 100.996 21.856C102.74 21.856 103.612 22.76 103.612 24.568L103.492 25.684H99.964ZM102.028 24.46C102.028 23.98 101.952 23.648 101.8 23.464C101.648 23.272 101.38 23.176 100.996 23.176C100.62 23.176 100.352 23.276 100.192 23.476C100.04 23.668 99.96 23.996 99.952 24.46H102.028ZM104.761 28V22H106.357V22.636C107.029 22.236 107.669 21.976 108.277 21.856V23.476C107.629 23.612 107.073 23.752 106.609 23.896L106.369 23.98V28H104.761ZM113.822 23.872V26.368C113.838 26.56 113.87 26.696 113.918 26.776C113.966 26.848 114.066 26.9 114.218 26.932L114.17 28.144C113.762 28.144 113.434 28.116 113.186 28.06C112.946 28.004 112.702 27.892 112.454 27.724C111.878 28.004 111.29 28.144 110.69 28.144C109.45 28.144 108.83 27.488 108.83 26.176C108.83 25.536 109.002 25.084 109.346 24.82C109.69 24.548 110.218 24.388 110.93 24.34L112.214 24.244V23.872C112.214 23.624 112.158 23.456 112.046 23.368C111.934 23.272 111.754 23.224 111.506 23.224L109.25 23.32L109.202 22.204C110.058 21.972 110.87 21.856 111.638 21.856C112.414 21.856 112.97 22.016 113.306 22.336C113.65 22.656 113.822 23.168 113.822 23.872ZM111.122 25.456C110.674 25.496 110.45 25.736 110.45 26.176C110.45 26.616 110.646 26.836 111.038 26.836C111.342 26.836 111.674 26.788 112.034 26.692L112.214 26.644V25.36L111.122 25.456ZM116.963 28H115.355V22H116.951V22.336C117.495 22.016 117.995 21.856 118.451 21.856C119.251 21.856 119.803 22.092 120.107 22.564C120.411 23.036 120.563 23.764 120.563 24.748V28H118.955V24.796C118.955 24.284 118.895 23.908 118.775 23.668C118.655 23.42 118.415 23.296 118.055 23.296C117.727 23.296 117.411 23.352 117.107 23.464L116.963 23.512V28ZM125.312 23.368H123.836V25.828C123.836 26.068 123.84 26.24 123.848 26.344C123.864 26.44 123.908 26.524 123.98 26.596C124.06 26.668 124.18 26.704 124.34 26.704L125.252 26.68L125.324 27.964C124.788 28.084 124.38 28.144 124.1 28.144C123.38 28.144 122.888 27.984 122.624 27.664C122.36 27.336 122.228 26.736 122.228 25.864V23.368H121.52V22H122.228V20.332H123.836V22H125.312V23.368ZM125.903 22H127.487L128.219 26.632H128.507L129.419 22.12H131.075L131.987 26.632H132.275L133.007 22H134.591L133.451 28H130.931L130.247 24.328L129.563 28H127.043L125.903 22ZM135.952 22.684C136.376 22.132 137.084 21.856 138.076 21.856C139.068 21.856 139.776 22.132 140.2 22.684C140.624 23.228 140.836 23.996 140.836 24.988C140.836 27.092 139.916 28.144 138.076 28.144C136.236 28.144 135.316 27.092 135.316 24.988C135.316 23.996 135.528 23.228 135.952 22.684ZM137.188 26.344C137.356 26.632 137.652 26.776 138.076 26.776C138.5 26.776 138.792 26.632 138.952 26.344C139.12 26.056 139.204 25.604 139.204 24.988C139.204 24.372 139.12 23.924 138.952 23.644C138.792 23.364 138.5 23.224 138.076 23.224C137.652 23.224 137.356 23.364 137.188 23.644C137.028 23.924 136.948 24.372 136.948 24.988C136.948 25.604 137.028 26.056 137.188 26.344ZM142.015 28V22H143.611V22.636C144.283 22.236 144.923 21.976 145.531 21.856V23.476C144.883 23.612 144.327 23.752 143.863 23.896L143.623 23.98V28H142.015ZM149.804 23.368H148.328V25.828C148.328 26.068 148.332 26.24 148.34 26.344C148.356 26.44 148.4 26.524 148.472 26.596C148.552 26.668 148.672 26.704 148.832 26.704L149.744 26.68L149.816 27.964C149.28 28.084 148.872 28.144 148.592 28.144C147.872 28.144 147.38 27.984 147.116 27.664C146.852 27.336 146.72 26.736 146.72 25.864V23.368H146.012V22H146.72V20.332H148.328V22H149.804V23.368ZM154.391 22H155.999V28H154.403V27.664C153.827 27.984 153.327 28.144 152.903 28.144C152.071 28.144 151.511 27.916 151.223 27.46C150.935 26.996 150.791 26.224 150.791 25.144V22H152.399V25.168C152.399 25.76 152.447 26.164 152.543 26.38C152.639 26.596 152.871 26.704 153.239 26.704C153.591 26.704 153.923 26.648 154.235 26.536L154.391 26.488V22ZM159.092 28H157.484V22H159.08V22.336C159.624 22.016 160.124 21.856 160.58 21.856C161.38 21.856 161.932 22.092 162.236 22.564C162.54 23.036 162.692 23.764 162.692 24.748V28H161.084V24.796C161.084 24.284 161.024 23.908 160.904 23.668C160.784 23.42 160.544 23.296 160.184 23.296C159.856 23.296 159.54 23.352 159.236 23.464L159.092 23.512V28ZM169.553 28.744C169.553 29.432 169.289 29.94 168.761 30.268C168.233 30.596 167.517 30.76 166.613 30.76C165.717 30.76 165.025 30.64 164.537 30.4C164.057 30.16 163.817 29.724 163.817 29.092C163.817 28.588 164.105 28.112 164.681 27.664C164.385 27.464 164.237 27.16 164.237 26.752C164.237 26.592 164.357 26.328 164.597 25.96L164.705 25.792C164.161 25.4 163.889 24.824 163.889 24.064C163.889 23.296 164.117 22.74 164.573 22.396C165.037 22.052 165.649 21.88 166.409 21.88C166.753 21.88 167.093 21.92 167.429 22L167.621 22.036L169.553 21.976V23.26L168.653 23.188C168.829 23.46 168.917 23.732 168.917 24.004C168.917 24.804 168.713 25.356 168.305 25.66C167.897 25.964 167.257 26.116 166.385 26.116C166.201 26.116 166.037 26.1 165.893 26.068C165.813 26.276 165.773 26.448 165.773 26.584C165.773 26.712 165.841 26.8 165.977 26.848C166.113 26.896 166.433 26.924 166.937 26.932C167.945 26.94 168.633 27.076 169.001 27.34C169.369 27.596 169.553 28.064 169.553 28.744ZM165.401 28.924C165.401 29.268 165.821 29.44 166.661 29.44C167.509 29.44 167.933 29.24 167.933 28.84C167.933 28.624 167.861 28.484 167.717 28.42C167.573 28.364 167.269 28.332 166.805 28.324L165.725 28.24C165.509 28.456 165.401 28.684 165.401 28.924ZM165.497 24.016C165.497 24.6 165.801 24.892 166.409 24.892C167.025 24.892 167.333 24.6 167.333 24.016C167.333 23.424 167.025 23.128 166.409 23.128C165.801 23.128 165.497 23.424 165.497 24.016Z" fill="black"/>
<path d="M4.02858 16.2083C8.70069 12.6707 14.9131 11.4916 18.4172 15.6187C15.1395 13.4125 9.07295 15.6187 11.409 20.3354C13.7451 25.0521 26.0094 22.1041 24.2573 12.6707C22.5053 3.23736 6.73689 1.46861 4.40083 13.2603C2.06477 25.0521 10.5094 28.5 15.0094 28.5C17.9294 28.5 22.5053 28 26.0094 23.8729" stroke="black" stroke-width="2" stroke-linejoin="bevel"/>
</g>
<defs>
<clipPath id="clip0_101_2">
<rect width="178" height="34" fill="white"/>
</clipPath>
</defs>
</svg>
