<?xml version="1.0" encoding="utf-8"?>
<!-- Generator: Adobe Illustrator 23.0.3, SVG Export Plug-In . SVG Version: 6.00 Build 0)  -->
<svg version="1.1" xmlns="http://www.w3.org/2000/svg" xmlns:xlink="http://www.w3.org/1999/xlink" x="0px" y="0px"
	 viewBox="0 0 439.7 805.5" style="enable-background:new 0 0 439.7 805.5;" xml:space="preserve">
<style type="text/css">
	.st0{display:none;}
	.st1{display:inline;}
	.st2{fill:#467DB6;}
	.st3{fill:#AA2020;}
	.st4{fill:url(#SVGID_1_);}
	.st5{fill:none;}
</style>
<g id="Layer_1" class="st0">
	<g class="st1">
		<path class="st2" d="M5.6,80.5c-1.1-2-0.7-4.1-0.5-6.2c0.2-2.1,0.6-4.1,1-6.1c1-4,2.4-7.9,4.5-11.6c2.1-3.6,4.7-7,8.1-9.7
			c0.8-0.7,1.8-1.3,2.6-1.8c0.8-0.6,1.7-1.1,2.6-1.6c1.7-1.1,3.5-2,5.3-3c3.7-1.8,7.5-3.3,11.6-4.3c4-1,8.3-1.5,12.6-1.1
			c4.3,0.4,8.6,1.7,12.3,4.3c0.9,0.6,1.8,1.4,2.6,2.2c0.8,0.8,1.6,1.8,2.1,2.8c0.6,1,1.1,2,1.5,3c0.4,1,0.8,2,1.1,3.2
			c0.3,1.4-0.5,2.7-1.9,3.1c-0.9,0.2-1.7,0-2.3-0.6L68.7,53c-2.3-2.1-6.1-2.9-9.6-2.4c-3.5,0.5-6.9,2.4-8.6,5.2
			c-0.9,1.4-1.4,3-1.5,4.8c0,0.4,0,0.9,0,1.3c0,0.5,0.1,0.8,0.1,1.2c0.1,0.8,0.4,1.5,0.8,2.1c1.4,2.7,5,4.3,8.6,4.9
			c3.7,0.6,7.7,0.3,11.3-0.8c3.7-1.2,7.3-2.9,10.3-5.2c3-2.4,5.4-5.4,6.9-8.9c1.6-3.5,2.4-7.3,2.7-11.3c0.3-4,0.1-7.9-1.1-11.4
			c-1.2-3.5-3.4-6.7-6.3-9.2c-2.9-2.5-6.4-4.4-10.1-5.7c-3.7-1.3-7.7-2.1-11.5-2.1c-7.8,0.1-15.8,2.5-22.3,6.9
			c-3.3,2.2-6.1,4.9-8.4,8.1c-1.1,1.6-2.1,3.3-2.9,5c-0.4,0.9-0.8,1.8-1.1,2.7c-0.3,0.9-0.6,1.9-0.9,2.9c-2,7.7-1.7,15.9,0.8,23.5
			c0.6,1.9,1.4,3.7,2.2,5.5c0.9,1.8,1.9,3.4,3.1,4.8c2.5,3,5.7,5.4,9.2,7.2c7,3.6,15.3,4.8,23.3,4c8-0.8,15.9-3.5,22.2-8.3
			c1.5-1.2,3-2.5,4.3-4c0.7-0.7,1.2-1.5,1.8-2.3c0.6-0.8,1.1-1.6,1.7-2.5c2.2-3.4,4.1-7.1,6-10.8c2-3.7,3.9-7.5,6.3-11.2
			c1.3-1.8,2.6-3.6,4.7-5.1l0.4-0.3c0,0,0.2-0.1,0.3-0.2l0.2-0.1c0.3-0.1,0.6-0.3,0.8-0.4c0.6-0.2,1.1-0.4,1.7-0.6
			c1.2-0.3,2.4-0.5,3.7-0.4c1.3,0.1,2.6,0.4,3.7,1c1.2,0.6,2.2,1.5,2.9,2.4c0.4,0.5,0.7,0.9,1,1.4c0.3,0.4,0.6,0.9,0.9,1.3l1.7,2.7
			c2.2,3.6,4.4,7.1,6.8,10.5c2.4,3.4,5,6.6,7.9,9.5c2.9,2.9,6.2,5.3,9.9,7l-0.1,0l1.2,0.4l0,0c0,0,0.1,0,0.1,0
			c1.1,0.5,2.4,0.7,3.7,0.7c1.3,0,2.6-0.1,4-0.3c2.7-0.4,5.3-1.1,7.9-2c5.2-1.8,10.2-4,15.1-6.6c4.8-2.6,9.7-5.4,13.9-8.8
			c1-0.8,2.1-1.8,2.7-2.7c0.1-0.2,0.2-0.5,0.2-0.4c0,0,0,0.2,0.1,0.2c0,0,0,0-0.1,0c-0.4-0.1-1.1-0.1-1.7,0
			c-1.2,0.1-2.3,0.6-3.1,1.4c-0.8,0.8-1.2,2-1.3,3.2c-0.2,2.5,0.6,5.1,1.8,7.4c0.6,1.2,1.4,2.2,2.3,3.2c0.9,0.9,1.9,1.7,3,2.1
			c0.6,0.2,1.1,0.3,1.7,0.3c0.6,0,1.2-0.1,1.8-0.3c1.2-0.3,2.4-0.9,3.7-1.5c2.4-1.2,4.8-2.7,7.2-4.1c4.8-2.8,9.8-5.4,15.2-7.2
			c5.4-1.8,11.1-2.6,16.8-2.4c5.7,0.2,11.4,1.4,16.6,3.7c5.2,2.3,9.7,5.8,14.5,8.4c2.4,1.3,4.8,2.3,7.4,2.7c2.6,0.4,5.2,0.2,7.8-0.3
			c5.3-1.1,10.4-3.2,15.6-5.2c5.2-1.9,10.6-3.7,16.3-4.5c2.8-0.4,5.7-0.6,8.6-0.4c2.9,0.2,5.6,0.7,8.4,1c11,1.6,22,3.6,32.8,7.1
			c5.3,1.8,10.6,3.9,15.5,6.9c2.4,1.5,4.8,3.4,6.8,5.6c2,2.3,3.6,5.1,4.2,8.2c0.3,1.6,0.4,3.1,0.1,4.8c-0.3,1.7-1.1,3.4-2.3,4.6
			c-1.1,1.3-2.4,2.2-3.8,2.9c-1.3,0.7-2.7,1.3-4.1,1.8c-5.5,1.9-11,2.9-16.5,3.9c-11,1.9-21.9,3.6-32.6,6
			c-10.7,2.5-21.2,5.7-31.2,10.1c-10,4.4-19.4,10-27.8,16.9c-8.4,6.9-15.8,15-21.9,23.9c-3.1,4.5-5.9,9.1-8.4,14
			c-1.3,2.4-2.4,4.9-3.6,7.4c-0.6,1.2-1.1,2.5-1.6,3.7l-0.8,1.9c-0.2,0.6-0.6,1.4-0.9,2.1c-1.4,2.8-3.3,5.2-5.4,7.4
			c-2.1,2.1-4.4,4-6.7,5.6c-4.7,3.3-9.8,6-14.9,8.3c-20.5,9.4-42,15.3-62.2,23.9c-5,2.2-10,4.5-14.7,7.2c-4.7,2.7-9.2,5.7-12.8,9.4
			c-3.7,3.7-6.3,8.2-6.7,13.1c-0.5,4.9,1.2,9.9,3.7,14.5c2.6,4.6,5.9,8.9,9.7,12.7c3.8,3.8,8,7.1,12.6,9.9
			c9.2,5.6,19.6,9.2,30.2,11.6c10.7,2.3,21.6,3.5,32.6,4c11,0.5,22,0.4,33.1-0.1c22.1-0.9,44.1-3.2,66.3-5.1
			c11.1-0.9,22.2-1.8,33.4-1.9c5.6-0.1,11.2,0,16.9,0.5c5.7,0.5,11.4,1.4,17,3.4c2.8,1,5.6,2.4,8.1,4.3c2.5,1.9,4.7,4.5,6.1,7.4
			l0.5,1.1l0.4,1.1c0.2,0.7,0.5,1.5,0.6,2.2c0.4,1.5,0.6,3,0.7,4.5c0.3,3,0.1,6-0.3,9c-0.8,5.9-2.7,11.4-5,16.7
			c-2.3,5.3-5.2,10.2-8.3,15c-6.2,9.5-13.5,18.1-21.4,26.1c-7.9,8-16.4,15.4-25.2,22.2c-17.8,13.7-37.1,25.2-57.8,34.1
			c-5.2,2.2-10.5,4.2-15.9,5.8c-5.4,1.6-10.9,2.9-16.5,3.9c-5.6,0.9-11.3,1.5-17,1.5c-2.9,0-5.7-0.1-8.6-0.4
			c-2.8-0.2-5.8-0.7-8.4-1.2c-10.9-2-21.8-4-32.7-5.1c-5.5-0.6-10.9-1-16.4-1c-5.4,0-10.9,0.3-16.1,1.3c-5.3,0.9-10.4,2.6-15,5.1
			c-2.3,1.3-4.4,2.8-6.3,4.6c-1.9,1.8-3.5,3.8-4.9,6c-2.8,4.4-4.4,9.5-5.3,14.8c-0.8,5.3-1.2,10.8-1.1,16.2
			c0.1,10.9,2,21.7,5.8,31.9c3.8,10.2,9.6,19.6,17.2,27.2c7.7,7.6,17.2,13.3,27.5,16.7c10.3,3.5,21.2,4.9,32.2,5
			c11,0.1,21.9-1.3,32.7-3.4c5.4-1,10.7-2.4,16.1-3.8l16.1-4.3c10.7-2.9,21.4-5.9,31.9-9.2c10.6-3.2,21.1-6.7,31.4-10.7
			c5.1-2,10.2-4.2,15.1-6.6c4.9-2.5,9.6-5.2,13.8-8.6c4.2-3.3,7.8-7.3,10.4-12c2.6-4.6,4.1-9.9,5.4-15.2l0.4-2
			c0.1-0.7,0.3-1.2,0.3-1.9c0.2-1.2,0.1-2.5,0-3.7c-0.3-2.5-1.4-4.8-2.9-6.8c-3.1-4.1-7.8-6.9-12.7-8.8c-5-1.9-10.4-2.8-15.7-2.9
			c-5.3-0.1-10.7,0.7-15.6,2.6c-4.9,1.9-9.1,5.3-11.3,10c-1.1,2.3-1.7,4.8-1.8,7.4c-0.1,1.3,0,2.6,0.1,3.9c0.1,1.3,0.3,2.7,0.5,4
			c1.9,10.7,6.1,20.9,10.8,30.9c4.8,9.9,10.3,19.5,15.8,29.1c5.5,9.6,11.3,19.1,16.3,29.1c2.5,5,4.8,10.1,6.4,15.7
			c0.7,2.8,1.3,5.7,1.1,8.7c-0.2,3-1,5.9-2.3,8.5c-2.5,5.3-6.4,9.6-10.7,13.4c-4.3,3.7-9,6.9-13.9,9.6c-9.8,5.5-20.4,9.5-31.2,12.3
			c-5.4,1.4-10.9,2.4-16.5,3c-2.8,0.3-5.6,0.5-8.3,0.7c-2.6,0.2-5.2,0.8-7.7,1.8c-5,2-9.4,5.3-13.4,9c-4,3.7-7.6,7.9-10.8,12.4
			c-6.4,8.9-11.5,18.8-15.3,29.2c-3.7,10.4-6.2,21.3-6,32.3c0.1,5.5,1,11,3.2,16.1c2.2,5,5.9,9.4,10.7,12.1l-0.1,0.3
			c-4.9-2.6-8.8-7.1-11.2-12.2c-2.4-5.1-3.3-10.7-3.6-16.3c-0.4-11.2,2-22.3,5.6-32.8c3.7-10.5,8.7-20.6,15.1-29.8
			c3.2-4.6,6.8-8.9,10.9-12.8c4.1-3.9,8.7-7.3,14-9.6c2.6-1.1,5.5-1.9,8.4-2.1c2.8-0.2,5.5-0.4,8.2-0.7c5.5-0.7,10.9-1.7,16.2-3.1
			c10.6-2.8,21-6.8,30.5-12.2c4.8-2.7,9.3-5.8,13.4-9.4c4-3.6,7.7-7.7,9.9-12.5c1.1-2.4,1.8-4.9,2-7.5c0.1-2.5-0.4-5.1-1.1-7.7
			c-1.5-5.2-3.8-10.2-6.2-15.1c-5-9.8-10.7-19.3-16.3-28.9c-5.6-9.6-11.1-19.3-16-29.3c-2.4-5-4.7-10.1-6.7-15.4
			c-1.9-5.3-3.6-10.7-4.5-16.3c-0.2-1.4-0.4-2.8-0.6-4.2c-0.1-1.5-0.2-2.9-0.1-4.4c0.1-3,0.9-5.9,2.1-8.7c0.7-1.4,1.5-2.6,2.4-3.8
			c0.9-1.2,2-2.3,3.1-3.2c1.1-1,2.4-1.8,3.6-2.6c1.3-0.7,2.6-1.4,3.9-2c5.4-2.2,11.2-3,17-2.9c5.7,0.1,11.4,1.1,16.9,3.1
			c2.7,1,5.3,2.3,7.8,3.9c2.4,1.6,4.7,3.6,6.5,6c1.8,2.4,3.1,5.3,3.5,8.4c0.2,1.5,0.3,3.1,0.1,4.6c-0.1,0.8-0.2,1.5-0.4,2.2
			l-0.5,2.1c-1.3,5.5-2.9,11-5.7,16.1c-2.8,5.1-6.8,9.5-11.3,13c-4.5,3.6-9.4,6.4-14.4,9c-5,2.5-10.2,4.7-15.4,6.8
			c-10.4,4.1-21,7.5-31.6,10.8c-10.6,3.3-21.3,6.3-32,9.2l-16.1,4.3c-5.4,1.4-10.8,2.8-16.3,3.8c-11,2.2-22.2,3.5-33.4,3.5
			c-11.2,0-22.6-1.4-33.3-5.1c-10.7-3.6-20.8-9.5-29-17.5c-8.2-8-14.3-17.9-18.3-28.5c-4-10.6-6-21.9-6.2-33.2
			c-0.1-5.7,0.2-11.3,1.1-17c0.9-5.7,2.7-11.4,5.8-16.4c1.6-2.5,3.4-4.8,5.6-6.9c2.2-2,4.6-3.8,7.1-5.3c5.1-2.9,10.7-4.7,16.3-5.8
			c5.6-1.1,11.3-1.4,17-1.5c5.7,0,11.3,0.3,16.9,0.9c11.2,1.1,22.2,2.9,33.1,4.7c2.8,0.5,5.3,0.9,8,1.1c2.7,0.2,5.4,0.3,8.1,0.3
			c5.4-0.1,10.8-0.6,16.1-1.5c5.3-0.9,10.6-2.2,15.9-3.7c5.2-1.5,10.4-3.2,15.5-5.2c5.1-2,10.1-4.2,15.1-6.6
			c4.9-2.4,9.7-5.1,14.4-7.9c9.4-5.6,18.4-12,27-18.8c17.1-13.7,32.7-29.6,44.8-47.6c3-4.5,5.7-9.2,7.9-14.1
			c2.2-4.9,3.9-9.9,4.7-15.1c0.4-2.6,0.5-5.1,0.3-7.6c-0.1-1.3-0.3-2.5-0.6-3.7c-0.1-0.6-0.3-1.2-0.5-1.8l-0.3-0.8l-0.3-0.8
			c-1.9-4.2-6-7.1-10.8-8.9c-4.8-1.8-10.2-2.7-15.5-3.2c-5.4-0.5-10.9-0.7-16.3-0.6c-11,0.1-22,0.9-33.1,1.7
			c-22.1,1.8-44.2,4.1-66.5,5c-11.1,0.4-22.3,0.6-33.5,0c-11.2-0.6-22.4-1.8-33.4-4.2c-11-2.5-21.9-6.2-31.7-12.1
			c-4.9-3-9.5-6.5-13.5-10.6c-4.1-4.1-7.6-8.6-10.5-13.7c-1.4-2.6-2.6-5.3-3.4-8.2c-0.8-2.9-1.2-6-0.9-9.1c0.3-3.1,1.2-6.1,2.7-8.8
			c1.4-2.7,3.3-5.1,5.4-7.2c4.2-4.2,9-7.4,13.9-10.2c4.9-2.8,10.1-5.2,15.2-7.4c10.3-4.4,20.8-8.1,31.2-11.9
			c10.4-3.8,20.8-7.6,30.7-12.2c4.9-2.3,9.7-4.9,14.1-8c4.3-3.1,8.2-6.7,10.4-11.1c0.5-1,1-2.4,1.6-3.7c0.5-1.3,1.1-2.6,1.7-3.9
			c1.2-2.6,2.4-5.1,3.7-7.6c2.6-5,5.5-9.9,8.8-14.5c6.5-9.3,14.3-17.7,23.1-24.8c8.8-7.1,18.7-12.9,29.1-17.3
			c10.4-4.5,21.2-7.7,32.1-10.1c10.9-2.5,22-4,32.9-5.7c5.4-0.9,10.9-1.8,15.9-3.5c2.5-0.9,4.9-2,6.3-3.6c0.7-0.8,1.2-1.7,1.4-2.8
			c0.2-1,0.1-2.3-0.1-3.5c-0.4-2.4-1.6-4.6-3.3-6.5c-1.6-1.9-3.7-3.6-5.9-5c-4.5-2.9-9.5-5-14.7-6.8c-10.4-3.5-21.3-5.6-32.2-7.3
			c-2.7-0.4-5.5-0.9-8.1-1.1c-2.7-0.2-5.4-0.1-8,0.3c-5.3,0.7-10.6,2.4-15.8,4.3c-5.2,1.8-10.4,4-16,5.1c-2.8,0.6-5.8,0.7-8.7,0.3
			c-2.9-0.5-5.7-1.6-8.1-3c-2.5-1.4-4.8-3-7.1-4.4c-2.3-1.5-4.7-2.8-7.1-4c-4.9-2.3-10.3-3.4-15.7-3.6c-5.4-0.2-10.9,0.5-16,2.2
			c-5.2,1.6-10.1,4.2-14.8,6.9c-2.4,1.4-4.8,2.8-7.3,4.1c-1.3,0.6-2.6,1.2-4,1.6c-0.7,0.2-1.5,0.3-2.3,0.4c-0.8,0-1.6-0.2-2.4-0.4
			c-1.5-0.6-2.7-1.5-3.8-2.6c-1-1.1-1.9-2.3-2.6-3.6c-1.4-2.6-2.2-5.5-2-8.5c0.1-1.5,0.6-3.1,1.8-4.4c1.1-1.2,2.8-1.8,4.3-2
			c0.8-0.1,1.5-0.2,2.5,0.1c0.2,0.1,0.5,0.2,0.8,0.5c0.3,0.3,0.5,0.7,0.5,1.1c0,0.8-0.3,1.1-0.5,1.5c-0.9,1.4-2,2.2-3.1,3.2
			c-4.5,3.5-9.3,6.3-14.2,8.9c-5,2.6-10,4.9-15.4,6.7c-2.7,0.9-5.4,1.7-8.2,2.2c-1.4,0.2-2.8,0.4-4.3,0.4c-1.5,0-3-0.2-4.5-0.8
			l0.1,0l-1.3-0.4c0,0-0.1,0-0.1,0l0,0c-4-1.7-7.6-4.3-10.7-7.2c-3.2-2.9-5.9-6.2-8.5-9.6c-2.6-3.4-4.9-7-7.2-10.4l-1.8-2.6
			l-0.9-1.2c-0.3-0.4-0.6-0.8-0.9-1.1c-1.1-1.3-2.6-2-4.3-2.1c-0.8,0-1.7,0.1-2.5,0.4c-0.4,0.1-0.8,0.3-1.3,0.5
			c-0.2,0.1-0.4,0.2-0.6,0.3l-0.1,0.1c-0.1,0,0,0-0.1,0l-0.2,0.2c-1.3,1-2.5,2.6-3.6,4.3c-2.2,3.4-3.9,7.1-5.8,10.9
			c-1.8,3.8-3.7,7.6-5.9,11.4c-1.1,1.9-2.4,3.7-4,5.4c-1.5,1.7-3.2,3.1-5,4.5c-7.2,5.3-15.8,8.1-24.5,8.9
			c-8.7,0.8-17.7-0.3-25.7-4.3c-4-2-7.7-4.7-10.6-8.1c-1.6-1.7-2.8-3.7-3.8-5.7c-1-2-1.9-4-2.6-6.1c-2.8-8.4-3.2-17.6-1-26.2
			c0.3-1.1,0.6-2.1,0.9-3.2c0.4-1.1,0.8-2.1,1.2-3.2c0.9-2.1,2.1-4,3.4-5.9c2.6-3.7,5.9-6.8,9.6-9.3c3.7-2.5,7.7-4.4,12-5.8
			c4.2-1.3,8.6-2.1,13.1-2.1c4.6,0,9,0.9,13.2,2.4c4.2,1.5,8.3,3.6,11.7,6.6c3.5,3,6.3,7,7.8,11.4c1.6,4.4,1.7,9.2,1.4,13.5
			c-0.3,4.4-1.2,8.9-3.1,13.1c-1.9,4.2-4.8,8-8.5,10.8c-3.6,2.8-7.8,4.8-12,6.1c-4.4,1.3-9,1.7-13.6,0.9c-2.3-0.4-4.6-1-6.8-2.2
			c-2.2-1.2-4.2-2.9-5.6-5.3c-0.7-1.2-1.1-2.5-1.3-3.8c-0.1-0.6-0.2-1.3-0.2-1.9c0-0.6,0-1.2,0-1.8c0.1-2.5,0.9-5,2.2-7.1
			c1.3-2.2,3.3-3.9,5.4-5.2c2.1-1.3,4.5-2,6.8-2.4c2.4-0.4,4.8-0.3,7.2,0.3c2.4,0.5,4.8,1.7,6.7,3.5l-4.3,2.4
			c-0.2-0.7-0.5-1.6-0.8-2.4c-0.3-0.8-0.7-1.6-1.1-2.3c-0.4-0.7-0.9-1.3-1.4-1.9c-0.6-0.6-1.2-1.1-1.9-1.6c-2.8-2-6.2-3-9.8-3.4
			c-3.6-0.3-7.3,0-10.9,0.9c-3.6,0.9-7.1,2.3-10.5,3.9c-1.7,0.8-3.4,1.7-5,2.7c-0.8,0.5-1.6,1-2.4,1.5c-0.8,0.5-1.6,1-2.3,1.6
			c-2.8,2.2-5.2,5.1-7,8.2c-1.9,3.2-3.3,6.7-4.2,10.3c-0.5,1.8-0.8,3.7-1.1,5.5c-0.3,1.9,0,3.7-1.1,5.6L5.6,80.5z"/>
	</g>
</g>
<g id="Layer_3">
	<g>
		<g>
			<g>
				<g>
					<g>
						<path class="st3" d="M280.8,678.2c-3.8,0.2-2.4,0.3-3,0.4C284.2,678.2,280.6,678.1,280.8,678.2z"/>
						<path class="st3" d="M339.2,658.1l-0.8,0.8c2.3-2.1,4.3-4.5,6-7.2C342.9,654.1,341.1,656.2,339.2,658.1z"/>
						<path class="st3" d="M340.5,603c0.7,2.7,2.3,7.7,4,13.3c1.7,5.6,3.2,12,3.8,17.2l0.1,1.7c0.2,1.6,0.4,3.2,0.4,4.8
							c0.2-3.3-0.2-6.7-0.8-10.1c-0.6-3.4-1.4-6.8-2.3-10.1C343.8,613.2,341.8,607.2,340.5,603z"/>
						<path class="st3" d="M331.3,573.4c0.5,1.9-2.3-6.3,2.3,6.9c-0.2-0.7-0.3-0.9-0.4-1.3C332.8,577.8,332.3,576.1,331.3,573.4z"/>
						<path class="st3" d="M333.2,579C335.2,584.8,332,575.1,333.2,579L333.2,579z"/>
						<path class="st3" d="M324.5,552.1c0.8,2.6,1.6,5.1,2.5,7.7c-0.4-1.6-2.5-8.5-1.7-5.9c-0.6-2-1-3.3-1.3-4.2
							c-0.1-0.4-0.2-0.8-0.3-1c-0.1-0.2-0.1-0.3-0.1-0.3c0,0,0.1,0.4,0.2,1.1C323.9,550.1,324.2,551,324.5,552.1z"/>
						<path class="st3" d="M322.1,544.9c0.4,1.3,0.8,2.7,1.2,4C323.1,548.2,322.8,547.1,322.1,544.9z"/>
						<path class="st3" d="M325.9,557.3c-0.9-2.8-1.8-5.6-2.6-8.4c0.3,1.1,0.2,1.3,1.2,3.9C324.2,552.1,324.8,553.8,325.9,557.3z"/>
						<path class="st3" d="M327.4,562.1c1.3,4.3,3.1,9.9,0.5,2.2c2.4,7.3,3.5,10.4,3.4,9.8C331.2,573.6,329.8,569.4,327.4,562.1z"/>
						<path class="st3" d="M339.2,600.3l1.8,5.8l1.7,5C341.9,608.5,339.2,599.9,339.2,600.3z"/>
						<path class="st3" d="M321.5,505.9c0.1-0.2-0.4,0.2-0.9,0.7c-0.6,0.5-1.1,1.1-1.3,1.3c-1.1,1.5-1.7,3.2-2.1,4.9
							c0.3-1.4,1.1-3.2,2.1-4.6C320.2,506.9,321.3,506,321.5,505.9z"/>
						<path class="st3" d="M319.3,507.9c1.6-2.2,3.8-3.9,6.4-5.2c-3.4,1.6-4.9,3.3-5.7,4.2C319.2,507.8,319.1,508.1,319.3,507.9z"/>
						<path class="st3" d="M321.4,543.6c1.3,4.7,2.8,9.3,4.3,13.9c-1.8-5.5-3.5-11.1-5.1-16.7C320.9,541.8,321.1,542.7,321.4,543.6z
							"/>
						<path class="st3" d="M352.4,503c-1.5-0.5-3.1-0.9-4.7-1.2c2.8,0.6,5.6,1.4,8.2,2.6C354.7,503.9,353.6,503.4,352.4,503z"/>
						<path class="st3" d="M365,517.2c0-1.6-0.1-0.5-0.3,0.5c-0.2,1.1-0.6,2.1-0.2,0.4c-0.1,0.3-0.1,0.6-0.2,1
							c-0.1,0.4-0.2,0.7-0.3,1.1c-0.2,0.7-0.4,1.4-0.6,2.1c-0.4,1.4-0.7,2.7-1.1,3.9c-0.7,2.5-1.5,4.8-2.3,6.9
							c1-2.2,1.7-4.6,2.6-7.3c0.4-1.3,0.8-2.7,1.3-4.2c0.2-0.7,0.4-1.5,0.7-2.3c0.1-0.4,0.2-0.7,0.3-1.1
							C364.9,517.9,365,517.6,365,517.2z"/>
						<path class="st3" d="M356.5,539.8c1.4-2,2.5-4.1,3.6-6.7C359,535.5,357.9,537.7,356.5,539.8z"/>
						<path class="st3" d="M339.9,500.3c0.3,0,0.8,0.1,1.8,0.2c1,0.1,2.5,0.3,4.9,0.8c-1.1-0.3-2.2-0.5-3.3-0.7
							C342.3,500.4,341.1,500.3,339.9,500.3z"/>
						<path class="st3" d="M343.2,500.5l0.1,0c3.7,0.4,6.1,1.2,7.2,1.5C349.6,501.8,347.5,501,343.2,500.5z"/>
						<path class="st3" d="M339.1,500.2c0.3,0,0.5,0,0.9,0C339.6,500.2,339.4,500.2,339.1,500.2z"/>
						<path class="st3" d="M316.7,520.8c-0.2-1.3-0.5-2.9-0.5-4.4c0-1.5,0.2-3,0.4-3.9c0.2-1,0.4-1.4,0.2-1.1
							c-0.1,0.3-0.7,1.5-0.9,4.1c0,1.8,0.1,1.3,0.2,1.2c0,0,0.1,0.1,0.1,0.6C316.3,517.9,316.4,518.9,316.7,520.8z"/>
						<path class="st3" d="M334.8,500.2c-3.1,0.3-6.1,0.9-8.9,2.1c0.2,0,1.7-0.6-0.5,0.5C328.3,501.3,331.5,500.5,334.8,500.2z"/>
						<path class="st3" d="M339.3,499.9c-1.5,0-3,0.1-4.5,0.2c1.1-0.1,2.3-0.2,3.4-0.2L339.3,499.9z"/>
						<path class="st3" d="M363.1,525.6c-1.1,3.9-2.5,8.1-5,12.3c2.8-4.4,4.5-9.7,5.9-14.8C364.2,522.3,364.8,520.1,363.1,525.6z"/>
						<path class="st3" d="M361.8,508.2c0.2,0.2,0.4,0.4,0.6,0.6C362,508.4,361.7,508.1,361.8,508.2z"/>
						<path class="st3" d="M316.9,562.4c0.3-0.1,0.5-0.1,0.8-0.2c0.1,0,0.1-0.1,0.2-0.1L316.9,562.4z"/>
						<path class="st3" d="M364.4,522.2c0.3-1,0.5-1.9,0.8-2.7c0.2-0.8,0.3-1.4,0.4-2.1c0.1-1.3,0-2.4-0.2-3.4
							c0.3,1.3,0.3,2.8,0.1,4.2c-0.1,0.4-0.2,0.7-0.3,1.1c-0.1,0.4-0.2,0.8-0.3,1.2c-0.2,0.8-0.5,1.6-0.7,2.4
							C364,523.4,364,523.5,364.4,522.2z"/>
						<path class="st3" d="M346.8,548.9c0.9-0.6,1.8-1.1,2.7-1.8c0.9-0.7,1.8-1.4,2.8-2.2C350.8,546.1,347.4,548.5,346.8,548.9z"/>
						<path class="st3" d="M363.1,509.8c-0.1-0.1-0.2-0.3-0.4-0.4C363.5,510.4,363.4,510.2,363.1,509.8z"/>
						<path class="st3" d="M363.1,509.8c1.2,1.5,1.8,2.9,2.2,4.3c-0.5-2.2-1.7-4-2.9-5.3C362.7,509.1,362.9,509.5,363.1,509.8z"/>
						<path class="st3" d="M303,568.4c0.6-0.4,10.8-3.7,19.6-6.7c4.3-1.6,4.9-2.1,3.6-1.9c-0.7,0.1-1.8,0.4-3.3,0.9
							c-1.5,0.4-3.3,0.9-5.2,1.5c-0.2,0.2-0.2,0.3-9,3.3c1.6-0.5,6.5-2,10.1-3.2c3.6-1.2,5.9-2,2.2-0.5c-5.8,2.1-8.2,2.8-9.9,3.3
							c-1.7,0.5-2.6,0.7-5.5,1.6c2.5-0.7-1.2,0.6-5.3,2c-4,1.3-8.4,2.7-7,2.5c3.5-1,6.9-2.1,10.4-3.2
							C303.8,568,300.1,569.2,303,568.4z"/>
						<path class="st3" d="M334.2,555.9c1.2-0.5,2.3-1,3.5-1.6c-4,1.8-6.8,3-12.3,4.9c-5.9,2.3-7.2,2.8-7.6,3
							c6-2.1,11.9-4.2,17.6-6.8L334.2,555.9z"/>
						<path class="st3" d="M351.9,545.3c-1,1.1-3.3,3-4.9,4.1c-0.8,0.6-1.4,1-1.4,1.1c-0.1,0.1,0.4-0.1,1.6-0.8
							c0.6-0.4,1.1-0.8,1.6-1.1c0.5-0.4,0.9-0.7,1.3-1c0.8-0.6,1.4-1.1,1.9-1.6c1-0.9,1.6-1.5,2.1-2c0.5-0.5,0.8-0.9,1.3-1.5
							c0.5-0.6,1.1-1.4,2.1-2.8c-2.6,3.6-4.2,4.8-4.5,5.2c-0.4,0.4,0.1-0.2,0.8-0.9c0.7-0.7,1.4-1.5,1.4-1.6c0,0-0.2,0.1-0.6,0.6
							c-0.2,0.2-0.5,0.5-0.9,0.9c-0.4,0.4-0.8,0.9-1.5,1.4c2.6-2.3,4.5-4.8,6.1-7.3c-1.7,2.7-3.7,5-5.9,6.9c0.1-0.1,0.2-0.2,0.3-0.3
							l0.1-0.1l0,0c0.6-0.5,0.7-0.7,0.1-0.1c0,0-0.2,0.2-0.3,0.3C352.4,544.8,352.2,545,351.9,545.3c-4,3.3-0.6,0.5,0.5-0.6
							c0,0,0.1-0.2,0.1-0.2c0,0,0,0,0,0c-4.3,4-9.5,7.1-14.9,9.7c0.9-0.4,1.8-0.9,2.8-1.4c1-0.5,2.1-1.1,3.2-1.8
							C346,549.7,348.8,548,351.9,545.3z"/>
						<path class="st3" d="M318.8,506.5c0.4-0.4,0.4-0.4,0.4-0.4c0.4-0.5,0.7-0.7,0.6-0.7c0,0-0.1,0.1-0.3,0.3
							C319.4,505.8,319.2,506.1,318.8,506.5z"/>
						<path class="st3" d="M324.7,502.1c-0.6,0.3-1.1,0.6-1.9,1.1c-0.8,0.6-1.9,1.3-3.4,2.8c-2.4,2.8-0.1-0.1-0.2,0
							c-0.4,0.5-1,1.2-1.4,1.9c-0.4,0.7-0.8,1.4-0.9,1.9c-0.2,0.4-0.2,0.6,0,0.1c0.2-0.4,0.7-1.5,1.9-3c0.2-0.3,0.5-0.7,0.8-1
							c1.2-1.3,2.8-2.4,4.5-3.3c1.7-0.9,3.4-1.4,4.8-1.8c3-0.8,5-0.8,4.4-0.8c-1.1,0.1-2,0.1-3.4,0.4
							C328.6,500.7,327,501.1,324.7,502.1z"/>
						<path class="st3" d="M363.6,509.3c1.5,1.9,2.4,4.2,2.5,6.6c0,1.2-0.1,2.4-0.4,3.6l-1,3.7l1.1-3.7c0.4-1.2,0.6-2.4,0.5-3.7
							l-0.1,0.4c0-2.1-0.5-3.5-0.9-4.4c-0.4-0.9-0.8-1.4-1-1.7C363.9,509.5,363.9,509.7,363.6,509.3z"/>
						<path class="st3" d="M315.2,562.9l1.8-0.9c-2.7,1.1-5.5,2-8.2,3.1L315.2,562.9z"/>
						<polygon class="st3" points="296.4,568.8 297,568.4 292.1,570 						"/>
						<path class="st3" d="M227.7,194c0.4-0.6,0.7-1.2,1.1-1.8c0.3-0.6,0.6-1.3,0.9-1.9C228.9,192.1,228.2,193.2,227.7,194z"/>
						<path class="st3" d="M202.6,212.8l-0.7,0.4C203.2,212.5,203.7,212.2,202.6,212.8z"/>
						<path class="st3" d="M302.3,455.7c5.7-3.3,11.8-7.2,11-7l-1.8,1C307.8,452.3,304.9,454.1,302.3,455.7z"/>
						<path class="st3" d="M236.6,325.2c0.6,0,1.3,0,1.9-0.1c1.6-0.2,3-0.4,4.4-0.6C241,324.7,238.8,325,236.6,325.2z"/>
						<path class="st3" d="M232.1,326.4c-2.9,0.1-5.7,0.2-8.6,0.3C225.4,326.6,228.2,326.6,232.1,326.4z"/>
						<path class="st3" d="M372.1,109.8l5.1-0.9C369.2,109.9,372.7,109.6,372.1,109.8z"/>
						<path class="st3" d="M112.8,546.5c-2.9-4.7-4.7-8.8-6.3-12.3c0.7,1.5,1.3,3,1.9,4.3c0.6,1.3,1.3,2.5,1.8,3.6
							c0.3,0.5,0.5,1,0.8,1.5c0.3,0.4,0.5,0.8,0.7,1.2C112.2,545.6,112.6,546.1,112.8,546.5z"/>
						<path class="st3" d="M220.5,204.6c2.2-1.7,3-2.6,2.9-2.6c-1.1,1-1.9,1.7-2.5,2.1C220.5,204.6,220.3,204.8,220.5,204.6z"/>
						<path class="st3" d="M101.6,519c0.2,0.9,0.5,1.9,0.7,2.8c1,3.9,2.4,7.8,4.3,12.3C104.7,529.6,102.9,524.3,101.6,519z"/>
						<path class="st3" d="M74.5,12.6c0.4,0.2,1,0.4,1.4,0.5C76,13.2,75.4,13,74.5,12.6z"/>
						<path class="st3" d="M35.8,35.9c0.4-0.2,0.9-0.4,1.5-0.6c0.6-0.2,1.2-0.4,1.8-0.5c0.7-0.2,1.3-0.4,2-0.6
							c0.7-0.1,1.4-0.3,2.1-0.4C42,34.1,39.6,34.5,35.8,35.9z"/>
						<path class="st3" d="M219.5,588C223.6,587.4,220.2,587.9,219.5,588L219.5,588z"/>
						<path class="st3" d="M239.6,585.1c-0.9,0.2-1.5,0.4-1.6,0.5C238.3,585.5,238.9,585.3,239.6,585.1z"/>
						<path class="st3" d="M102.5,478.4c0.1-0.1,0.1-0.2,0.2-0.3C102,479.2,102.2,479,102.5,478.4z"/>
						<path class="st3" d="M225.7,587.2c-1.5,0.3-3.3,0.4-5.3,0.7C221.3,587.8,222.9,587.7,225.7,587.2z"/>
						<path class="st3" d="M224.9,587.2c1.4-0.3,2.5-0.5,3.6-0.7C229,586.5,228.5,586.5,224.9,587.2z"/>
						<path class="st3" d="M213.8,588.7c0.6-0.1,1.2-0.1,1.7-0.2c0.6-0.1,1.1-0.2,1.7-0.2c1.1-0.1,2.2-0.3,3.2-0.4
							c-0.8,0.1-1.2,0.1-0.9,0.1c-0.6,0.1-1.3,0.2-2.3,0.3C216.3,588.4,215.2,588.6,213.8,588.7z"/>
						<path class="st3" d="M196.5,57.7c0.2-0.2,0.4-0.5,0.7-0.7c0.8-0.8,1.6-1.1,1.9-1.3c0.4-0.1,0.4-0.2,0.3-0.1
							C199.1,55.7,197.6,56.2,196.5,57.7z"/>
						<path class="st3" d="M379.8,379.8c-0.1,0.2-0.2,0.2-0.3,0.4c0.1-0.2,0.3-0.4,0.4-0.5L379.8,379.8z"/>
						<path class="st3" d="M387.4,367c-2.8,5.7-4.8,8.7-7.6,12.7c1.1-1.2,2.2-2.5,3.2-3.8C384.7,373,386.1,370,387.4,367z"/>
						<path class="st3" d="M276.4,135c-3.1,1.8-6.1,3.7-9,5.7c5.1-3.9,10-6.7,12.3-8.1c1.2-0.7,1.7-1,1.4-0.8
							c-0.3,0.1-1.5,0.7-3.7,1.9c-0.5,0.6-9.6,5.9-17.4,12.8c-3.9,3.4-7.6,7.1-10.2,10.2c-1.3,1.5-2.3,2.9-3.1,3.8
							c-0.7,1-1.1,1.7-1.2,1.9c-1.5,1.8-2.8,3.7-4.2,5.6c1.1-1.7,1.3-1.9,2.5-3.6c-1,1.4-1.9,2.6-2.6,3.6c-0.7,1-1.2,1.9-1.7,2.7
							c-1,1.6-1.6,2.9-2.3,4.2c-0.7,1.3-1.4,2.8-2.4,5c-0.5,1-1.1,2.3-1.8,3.8c-0.7,1.5-1.4,3.2-2.3,5.2c-0.6,1.4-1.1,2.6-1.7,3.6
							c-0.3,0.5-0.5,0.9-0.8,1.3c-0.3,0.4-0.5,0.7-0.7,0.9c-0.7,1-0.8,1,0.3-0.7c-2.3,3.6-5.6,6.7-9.1,9.4c-1.6,1.2-2.2,1.5-2,1.4
							c0.2-0.1,1.1-0.9,2.7-2c-5.4,4.1-11.4,7.5-17.5,10.5l0.1-0.1c-2.6,1.4-8.6,4.3-11.5,5.7c-4.9,2,2.4-1.1,1.1-0.7
							c-3.5,1.6-7,3.1-10.5,4.6c-4.4,1.6,4.4-2.1,11.6-5.3c-10,3.6-8.6,3.9-30.1,12.3l10-4.2c-3.3,1.1-6.9,2.5-11.1,4.2
							c-4.2,1.7-9,3.7-14.6,6.2c1.3-0.6,7-3,11-4.5c3.9-1.5,6.1-2.2,0.4,0.3c-3.2,1.3-7.5,3.1-13.5,6.2c-0.1-0.1-1.6,0.6-4,1.8
							c-2.4,1.2-5.7,3-9.2,5.1l0.3-0.6c-3.8,2.4-5.5,3.7-6.7,4.7c-1.2,1-2.1,1.8-4.1,3.5c-3.8,3.3-5.7,5.7-7.1,7.4
							c-0.6,0.9-1.1,1.5-1.5,2.1c-0.4,0.6-0.7,1.1-1.1,1.6c-0.4,1-0.8,1.8-1,2.4c-0.2,0.7-0.4,1.2-0.5,1.6c-0.1,0.4-0.2,0.7-0.2,0.9
							c0,0.2-0.1,0.3,0,0.3c0,0,0.1-0.3,0.3-0.8c0.1-0.5,0.4-1.1,0.6-1.7c0.4-1.2,1-2.2,0.9-1.8c0,0.2-0.3,0.7-0.7,1.8
							c-0.3,1.1-0.9,2.7-1.2,5.2c-0.4,3.4,0,6.7,0.8,9.6c0.8,3,2,5.7,3.5,8.3c1.5,2.6,3.3,5.2,5.4,7.8c1,1.3,2.2,2.6,3.4,3.9
							c0.6,0.6,1.3,1.3,2,1.9c0.3,0.3,0.7,0.7,1,1c0.4,0.3,0.7,0.6,1.1,1c0.9,0.8,1.5,1.3,2,1.7c0.5,0.4,0.7,0.6,0.9,0.7
							c0.3,0.2-0.1,0-0.6-0.3c-0.9-0.7-2.4-1.9-1.2-0.8c2.2,1.7,4.5,3.3,6.9,4.7c1.7,1.1,1.1,0.8,0.8,0.7c3,1.7,3.2,1.7,3.8,2
							c0.3,0.1,0.7,0.3,1.7,0.7c1,0.4,2.4,1.2,4.9,2.2c0.4,0.1,0.9,0.3,1.7,0.7c0.8,0.3,1.8,0.7,2.9,1.1c1.1,0.5,2.4,0.9,3.9,1.4
							c0.7,0.2,1.5,0.5,2.2,0.8c0.8,0.2,1.6,0.5,2.4,0.7c6.6,2,14.7,3.5,21.4,4.1c3.3,0.4-1.6,0-0.6,0.2c9.2,0.9,13.1,0.9,16.7,1.1
							c3.5,0,6.7,0.1,14.2-0.1c4.3,0,8.6,0,12.9-0.1c-9.5,0.1,2.6-0.5,13.1-1.5c-3.3,0.1-6.2,0.2-8.1,0.3c5.6-0.4,11.2-0.8,16.8-1.4
							c2-0.1,0.4,0.1-2.4,0.5c1.1-0.1,2.2-0.2,3.1-0.3c6-0.4,2.9,0-1.4,0.6c-2.1,0.1-4.1,0.2-6.1,0.3c-4.1,0.5-8,0.9-7.1,1.1
							c1.1-0.1,3.2-0.3,5.5-0.5c-1.1,0.1-1.8,0.2-1.3,0.2c0.6,0,2.3-0.2,5.1-0.5l3.9,0l0.9-0.2c7.3-0.6,14.7-1.2,22-2
							c7.8-1.1,15.1-2.2,23.5-3.4c8.4-1.2,18-2.7,30.4-4.1c-6.1,1-1.3,0.6-1.6,0.9c-6.8,0.4-19.2,2.4-32.1,4
							c6.7-0.8,5.3-0.5,3.6-0.2l22.9-3.1c-0.5,0.3,4.9-0.4,10.9-0.9c-2.3,0,2-0.6,8-1.2c6-0.6,13.8-1.2,18.5-1.4
							c0.3,0.1-0.1,0.2-2,0.3c-1.9,0.2-5.3,0.3-11,0.8c6.3-0.3,10.4-0.7,14.4-1c4-0.3,8.1-0.5,14.2-0.1c-2.8-0.1-4.3-0.2-5.4-0.1
							c3.3,0,8.9,0.2,13.1,0.9c4.3,0.6,7.1,1.6,5.3,1.2l-2.7-0.6c1.1,0.3,2.3,0.4,3.5,0.8c0.6,0.2,1.2,0.3,1.9,0.5
							c0.6,0.2,1.3,0.5,1.9,0.7c2.6,1,5.2,2.4,7.3,4.4l0.8,0.8l0.7,0.9c0.2,0.3,0.5,0.6,0.7,0.9l0.6,1c0.4,0.6,0.7,1.3,0.9,2
							c0.3,0.7,0.5,1.5,0.7,2.2c0.7,3,0.9,6.1,0.7,9.1c-0.2,3-0.6,5.8-1.3,8.4c-0.3,1.3-0.7,2.5-1,3.7c-0.4,1.1-0.7,2.2-1,3.2
							c-0.4,1-0.7,1.9-1,2.7c-0.3,0.8-0.6,1.5-0.8,2.2c-0.5,1.2-0.8,2.1-0.9,2.4c-0.1,0.1,0.1-0.5,0.3-1.3c0.2-0.8,0.4-1.7,0.6-2.2
							c-3.8,10.3-9.4,20-15.6,29.2c0.7-1.3-0.8,0.2-1.3,0.4c-0.6,0.2,0-0.7,4.2-7.1c-2.5,3.6-5.7,8-11.5,15.3c2-2.3,5.1-5.5,2.6-2.3
							c-1.9,2.1-3.1,3.6-4.1,4.7c-1,1.1-1.7,1.9-2.5,2.7c-1.6,1.7-3.3,3.7-8.2,8.6c3.1-3.2,0.2,0.9-4.9,5.9c0.7-0.8-0.8,0,1-1.9
							c-4,4.3-8.2,8.5-12.5,12.6c3.2-3.1,0.3-0.9-2.8,1.6c0.7-0.6-2.2,2-5.8,4.9c-3.6,3-8,6.3-9.8,7.8c2-1.5,4-3,6-4.5
							c-7.9,6.2-11.9,9.2-15.8,12.1c-4,2.9-7.9,5.9-16.6,10.9c2-1.3,4.8-3.6-4,1.4c-2,1.3-6.3,4-12.3,7.2c-6,3.2-13.7,6.7-22.2,9.4
							l-3.3,0.8c-4.4,1.2-8.8,2.2-13.3,3c1-0.2,2.3-0.5,3.8-0.8c1.5-0.3,3.1-0.8,4.8-1.2c3.5-1,7.5-2.2,11.5-3.7
							c8.1-3,16.3-6.9,22-10c-3.4,1.6-3.9,1.7-4.8,2.1c-0.5,0.2-1,0.4-2.1,0.9c-0.5,0.2-1.2,0.5-2.1,0.9c-0.9,0.4-1.9,0.8-3.2,1.3
							c-1.9,0.7-0.5,0,1.8-0.9c1.1-0.5,2.4-1.1,3.7-1.6c1.2-0.5,2.4-1.1,3.1-1.4c-7.9,3.7-16,6.8-24.3,9.1c0.6,0-4.1,1.5-9,2.5
							c-4.9,1.1-9.9,1.6-9.4,1.7c9.4-1.1,18.5-3.5,27.4-6.8c0.6-0.1-3.1,1.7-9.4,3.6c-6.3,1.9-15.1,4-24.4,4.2
							c-2.4,0-1.5-0.2-0.1-0.4c1.4-0.2,3.3-0.5,3.2-0.5c-1.2,0.1-5.5,0.4-9.8,0.2c-4.3-0.2-8.4-1-9.2-1.2c1.3,0.2,2.6,0.4,3.9,0.5
							l1.9,0.2l1.9,0.1c-5.1-0.5-9.2-1.2-13.6-2.1c-4.4-0.9-9-1.9-15-3.6c-4.2-1.1-12.3-3.6-13.1-3.5c6.7,2,7.8,3.5,3.2,2.7
							c-0.7-0.2-6.2-1.7-12.1-3.1c-5.9-1.5-12.2-2.8-14.6-3.3c-3.5-0.7-0.8-0.5,2-0.2c2.8,0.3,5.7,0.7,2.7,0c-0.3,0-4.1-0.6-5.8-0.8
							c-2.2-0.4-1.8-0.4-1.9-0.5c-0.2-0.1-1-0.3-5.9-0.9c-0.8,0.1-5.8-0.4-8.7-0.5c-1.4-0.1-2.4-0.1-1.9,0c0.4,0,2.2,0,6,0.4
							c-4.8-0.3-7.4-0.3-10.2-0.2c-1.4,0-2.8,0.1-4.6,0.3c-1.8,0.2-4,0.5-6.7,1.2c0.9-0.2,0.7-0.1-0.2,0.3c-0.9,0.3-2.5,0.9-4.4,1.7
							c-1.9,0.9-4.1,2.1-6.2,3.7c-2,1.6-3.9,3.5-5.2,5.5c0.3-0.5-1.1,1.2-1.6,2.1c-2.4,4.3-3.4,8.6-4,12.6c-0.2,2-0.5,3.9-0.5,5.8
							c0,1-0.1,1.9-0.1,2.8c0,0.9,0,1.9,0,2.8c0,3.7,0.4,7.3,1,11.2c0.3,1.9,0.7,3.9,1.1,5.9c0.3,1,0.5,2,0.8,3.1
							c0.1,0.5,0.3,1.1,0.4,1.6c0.2,0.5,0.3,1.1,0.5,1.6c0.1,0.4,0.4,1.2,0.6,2.2c0.1,0.5,0.3,1,0.5,1.5c0.2,0.5,0.4,1,0.5,1.5
							c0.7,1.8,1.1,3.1,0.3,1.3c0.3,0.6,0.5,1.2,0.8,1.8c0.3,0.6,0.6,1.3,1,2c0.4,0.7,0.8,1.6,1.2,2.5c0.4,1,1.1,2,1.7,3.3
							c1.2,2.5,1.5,3,1.2,2.5c-0.3-0.4-1.1-1.9-1.9-3.5c-0.9-1.5-1.6-3.2-2-4c-0.4-0.8-0.4-0.7,0.4,1.3c0.1,0.1,0.5,1.1,1.3,2.4
							c0.4,0.7,0.8,1.5,1.3,2.3c0.2,0.4,0.5,0.9,0.8,1.4c0.3,0.5,0.6,0.9,0.9,1.4c0.6,1,1.3,2,1.9,3c0.7,1,1.4,2,2.2,3
							c0.4,0.5,0.7,1,1.1,1.5c0.4,0.5,0.7,0.9,1.1,1.4c0.7,0.9,1.4,1.7,2.1,2.5c-0.3-0.5-1.2-1.7-2.5-3.3c-0.6-0.8-1.2-1.7-1.9-2.7
							c-0.7-1-1.5-2-2.2-3.2c-3-4.5-5.7-9.9-7.4-13.6c0.1,0,0.6,0.7,1.3,2.1c0.4,0.7,0.8,1.6,1.4,2.6c0.6,1,1.2,2.1,2,3.4
							c3,5.1,7.7,11.9,14.4,18.7c1.4,1.3,2.5,2.4,3.3,3.2c0.9,0.9,1.6,1.5,2.1,1.9c1,0.9,1.3,1.2,1.3,1.2c0,0.1-1.2-0.8-0.2,0
							c0.7,0.6,1.3,1.1,2,1.7c0.6,0.5,1.3,1,1.9,1.4c1.3,0.9,2.4,1.8,3.5,2.5c1.1,0.7,2.2,1.3,3.1,1.9c1,0.6,1.9,1.2,2.8,1.6
							c1.8,0.9,3.3,1.7,4.7,2.4c1.4,0.6,2.7,1.1,4,1.7c5.1,2,9.6,3.8,21.1,6.5c1.1,0.3,2,0.4,2.6,0.6c0.6,0.1,1.1,0.2,1.3,0.3
							c0.5,0.1,0.3,0.2-0.1,0.2c-0.8,0-2.5-0.2-1.5,0.1c-1.5-0.2-3-0.6-4.3-0.9c-1.3-0.3-2.6-0.6-3.8-0.9c-2.4-0.7-4.5-1.4-6.6-2
							c-2-0.7-3.9-1.5-5.7-2.2c-0.9-0.3-1.8-0.8-2.8-1.2c-0.9-0.4-1.8-0.8-2.8-1.3c1.6,0.7,3.1,1.5,4.7,2.2l4.8,1.9
							c-3.8-1.2-11.4-4.4-15.3-6.8c0.9,0.5,2.2,1.2,3.8,2.1c1.7,0.8,3.8,1.8,6.2,2.9c4.9,1.9,11,4.1,17.8,5.5
							c13.5,3.1,29.3,3.1,40.3,2.2c1-0.1,2.1-0.2,3.3-0.3c1.1-0.2,2.2-0.4,3.1-0.5c1.8-0.3,2.6-0.5,1-0.3l-3.5,0.5
							c-1.2,0.2-2.3,0.2-3.5,0.3c-3.2,0.1,0.1-0.2,3-0.5c2.9-0.5,5.6-0.9,1.2-0.3c9.3-1.2,19.5-3.6,32.2-6.8l2.5-0.3
							c-0.3,0-8.4,2.1-12,2.9c1.3-0.4,3.2-0.8,5.4-1.3c2.2-0.5,4.6-1.2,7.1-1.8c5-1.2,10-2.6,12.8-3.5l-9,2.2c9-2.6,20.2-5.9,31.4-9
							c-5.2,1.2-2.6,0.8-10.7,2.7c3.5-0.8-3.7,1.3-10.4,3.1c-6.7,1.8-12.8,3.4-7.2,2.2c-8.3,1.8-14.3,3.7-25.1,5.8
							c0.2,0,1.1-0.2,0.9-0.1c-0.3,0.1-1.8,0.4-6.6,1.3c-0.4,0.1-1.4,0.3-2.1,0.5c-0.3,0.1-0.4,0.1-0.6,0.1c0.2,0,0.3-0.1,0.5-0.1
							c-0.4,0.1-0.4,0.1,0.2,0c2.3-0.4,4.1-0.7,4.9-0.8c-1.2,0.3-3,0.7-5.2,1.1c-1.1,0.2-2.3,0.4-3.5,0.6c-1.2,0.2-2.5,0.4-3.8,0.5
							c-1.3,0.2-2.5,0.4-3.8,0.5c-1.2,0.1-2.5,0.2-3.6,0.3c-2.3,0.2-4.2,0.4-5.5,0.5c-5.8,0.1,2.4-0.2-0.7-0.2
							c-2.6,0.1-5.2,0.3-7.8,0.4c-0.8-0.3-15.3-0.9-1.7-0.6l-6.1-0.2l-6.1-0.6c-1.8-0.1-3.7-0.6-5.7-0.9c-1-0.2-2-0.3-3-0.5
							c-1-0.2-2-0.5-3-0.7c-4-0.8-7.8-2.1-10.8-2.9c-1.3-0.5-2.9-1.1-4.3-1.6c-0.7-0.3-1.4-0.5-2.1-0.8c-0.6-0.3-1.2-0.5-1.8-0.8
							c-2.1-0.9-3-1.3-0.7-0.3l-2.2-1l-1.1-0.5l-1.1-0.6l-4.2-2.2c-2.7-1.7-5.5-3.2-8-5.2l-0.1-0.1c-3.8-2.7-7.4-5.9-10.9-9.3
							c-3.3-3.5-6.6-7.2-9.4-11.4c-1.5-2-2.7-4.2-4.1-6.4c-0.6-1.1-1.2-2.3-1.8-3.4c-0.3-0.6-0.6-1.1-0.9-1.7l-0.8-1.8
							c-2.2-4.7-4-9.7-5.2-15c-0.2-0.8-0.4-1.5-0.6-2.3c-0.2-0.8-0.3-1.6-0.5-2.4c-0.2-0.8-0.3-1.7-0.5-2.5
							c-0.2-0.9-0.3-1.8-0.4-2.7c-0.1-0.9-0.3-1.9-0.4-2.9c-0.1-1-0.2-2.1-0.3-3.2c-0.1-1.1-0.1-2.2-0.2-3.5c0-1.2-0.1-2.5,0-3.8
							l0.3-2.1c0-0.5,0-1,0.1-1.6c0.1-0.6,0.1-1.1,0.2-1.8c0.1-1.2,0.2-2.5,0.5-3.8c0.4-2.6,1.2-5.4,2.3-7.8
							c1.1-2.4,2.5-4.5,3.8-6.1c1.3-1.6,2.6-2.6,3.2-3.2c1.7-1.2,4.7-3,8.7-4.2c4-1.3,9-2,14.3-2.1c10.5-0.3,21.8,1.6,28.8,3.1
							l0.6-0.1c9.7,2,19,4.3,31.1,7.2l-0.7-0.4c5.2,1.2,11.9,3,19.4,4.5c7.6,1.6,16.2,2,24.7,1c-0.6,0.1-1.9,0.3-3.6,0.4
							c-1.6,0.1-3.5,0.2-5,0.2c10.3,0.1,21-2.2,30.9-5.5c10-3.3,19.3-7.6,27.6-11.7c2-1.1,3.7-2.1,5.3-2.9c1.6-0.9,3-1.7,4.4-2.5
							c-0.4,0.2-0.7,0.4-1,0.6c0.4-0.2,1-0.6,1.6-0.9c1.8-1,3.6-2,5.5-3.2c-1.7,1-3.3,1.9-4.6,2.7c3-1.8,7.6-4.6,11.9-7.6
							c0.7-0.3,1.3-0.7,2-1.1c0.4-0.2,0.6-0.4,1-0.7c4.3-2.9,3.3-2.5,1-1c2.1-1.6,4.1-3,5.6-4.2c3.6-2.1,10.9-8.4,15.5-11.8
							c1.3-1.2,6.3-5.5,11-10c4.7-4.5,9.2-9.1,10-10.3c0.2-0.1,1.3-1.2-0.7,0.9c4.1-4.1,8.1-8.4,11.5-12.5l1.8-1.7
							c2.6-3.3,5.2-6.8,7.6-10.3c2.4-3.1,4-5.3,4.5-5.9c0.5-0.6,0,0.4-2.2,3.6c5.3-7.7,7.1-11,8.9-14c0.9-1.5,1.6-2.9,2.6-4.9
							c1-2,2.2-4.4,3.7-8.1l-0.1,0.8c1.2-2.6,2.4-6.1,3.3-9.4c0.5-1.6,0.8-3.2,1.2-4.6c0.2-1.4,0.5-2.6,0.7-3.4
							c0.2-1.6,0.6-3.8,0.5-6.5c-0.1-2.7-0.3-5.9-1.7-9.3c-0.6-1.7-1.7-3.3-3-4.9c-1.4-1.4-3-2.8-4.9-3.8c-3.7-2.1-8-3.4-12.5-4.1
							c-9-1.5-18.8-1.4-28.3-1c-9.4,0.5-18.6,1.3-26.7,2.1c3.2-0.1-0.6,0.3-5.3,0.7c-4.7,0.5-10.3,1.1-10.9,1.4
							c-1.9,0.1-6.4,0.6-1.2-0.2c-16.4,2.2-24.7,2.9-36,4.6c-1.9,0.1,3.5-0.6,1.8-0.5c-1.3,0.2-5.2,0.7-6.9,0.8
							c-1.7,0.1,2.4-0.4,5-0.7c-16.8,1.9-18.4,2.3-19.6,2.9c-8.5,0.6-12.8,0.9-18.9,1.5c-3,0-7.9,0.2,2.5-0.5
							c-2.9,0.2-11.9,0.7-20.3,0.8c-2.1,0-4.1,0-6,0c-1.9,0-3.6,0-5.1,0c-3-0.1-5-0.1-5.1,0c-0.9-0.1-3-0.2-5-0.3
							c-2-0.1-4-0.3-4.8-0.3c-3.3-0.3-5.8-0.6-8-0.9c-2.2-0.3-3.9-0.6-5.7-0.9c-3.5-0.6-7-1.2-13.2-2.9c1.1,0.3,2.3,0.7,3.5,0.9
							c-1.3-0.2-2.6-0.5-3.9-0.8c-0.7-0.2-1.4-0.4-2.1-0.6c-0.7-0.2-1.5-0.5-2.3-0.7c-3.2-1-7-2.5-11.7-4.7l0.3,0.1
							c-2.7-1.3-4.7-2.6-6.4-3.6c-1.6-1.1-2.9-1.9-3.9-2.6c-1.9-1.5-3-2.2-3.9-3.1c-0.9-0.8-2-1.6-3.6-3.3c-0.4-0.4-0.9-0.9-1.4-1.4
							c-0.5-0.6-1.1-1.2-1.7-2c-0.3-0.4-0.6-0.8-1-1.2c-0.3-0.4-0.7-0.9-1-1.4c-0.4-0.5-0.7-1-1.1-1.5c-0.4-0.6-0.8-1.1-1.2-1.7
							l0.5,1.2c-0.4-0.4-1.4-1.6-2.5-3.6c-0.6-1-1.2-2.1-1.8-3.4c-0.6-1.3-1.2-2.8-1.7-4.4c-1-3.2-1.5-6.8-1-10.4
							c0.2-1.8,0.7-3.6,1.3-5.2c0.7-1.6,1.5-3.2,2.4-4.7c-0.2,0.3-0.5,0.7-0.7,1l-0.6,1.1c-0.4,0.7-0.7,1.4-1.1,2.2
							c0.6-1.7,1.8-3.7,3.2-5.6c1.4-1.9,3.3-3.8,5.3-5.5c3.9-3.4,8.4-6.1,11.6-8c1.4-0.8-2.2,1.4-4,2.7c4.1-2.7,6.4-3.9,7.6-4.6
							c1.2-0.7,1.3-0.8,1.3-0.9c0-0.1-0.2,0,0.4-0.5c0.6-0.4,2.1-1.3,5.4-2.9c2.5-1-3,1.9,6-2.3c2.3-1,8.7-4,16.3-7.3
							c7.6-3.3,16.2-6.8,22.5-9.3c-2.8,1-5.6,2.1,0.7-0.7c4.8-2.1,11.4-4.8,17.6-8c6.3-3.1,12.1-6.9,15.7-10.1
							c1.1-0.9,1.5-1.2,1.5-1.2c1.5-1.4,3.4-3.3,5.2-5.7c0.4-0.6,0.9-1.2,1.3-1.9c0.4-0.7,0.8-1.3,1.1-2.1c0.7-1.5,1.2-2.9,1.8-4.3
							c2.3-5.6,5-10.7,6.1-12.8c0.6-0.7,1.3-2,2.4-3.5c0.5-0.8,1.1-1.6,1.7-2.5c0.6-0.9,1.3-1.9,2-2.9c2.9-4,6.7-8.7,10.7-12.8
							c4-4.1,8.2-7.7,11.4-10.1c3.2-2.4,5.5-3.8,5.5-3.6c6.8-4.5,14.1-8.3,21.6-11.4l-0.6,0.3c7.2-3,12.3-4.6,16.2-5.8
							c3.9-1.2,6.5-2,9.2-2.7c3.5-0.8,1-0.1,0.7,0c11.2-2.6,17.5-3.5,23.2-4.4c5.8-0.9,11.1-1.7,20.7-3.1l2,0c1.3-0.2,4-0.5,7.7-0.9
							c3.7-0.4,8.4-1,13.6-1.8c2.6-0.4,5.3-0.9,8.1-1.6c2.8-0.7,5.7-1.5,8.4-2.8c2.7-1.3,5.5-3.1,7.2-5.9c0.9-1.4,1.3-3,1.5-4.5
							l0.1-1.2c0-0.4-0.1-0.8-0.1-1.2c0-0.4-0.1-0.8-0.1-1.1l-0.3-1.1c0,0.1,0.1,0.3,0.2,0.7c0.2,0.4,0.2,1,0.3,2
							c0-0.4-0.1-0.9-0.1-1.3c-0.1-0.4-0.2-0.9-0.3-1.3c-0.2-0.9-0.6-1.7-0.9-2.5c-0.2-0.4-0.4-0.8-0.7-1.2
							c-0.2-0.4-0.4-0.8-0.7-1.1c-0.6-0.7-1.1-1.4-1.7-2c-2.5-2.6-5.5-4.6-8.7-6.3c-6.4-3.3-13.2-5.6-19.6-7.4
							c-6.4-1.7-12.4-3-17.4-3.9c-5-0.9-8.9-1.4-11.3-1.5l-8.3-1.1l-4.2-0.5c-1.4-0.1-2.8-0.2-4.3-0.2c2.8,0.1,4.8,0.4,6.1,0.6
							c1.4,0.2,2.2,0.3,2.6,0.4c0.8,0.2,0,0.1-1.2,0c-2.4-0.2-6.4-0.6-2,0c-0.5-0.1-1.1-0.1-1.6-0.2c-0.6,0-1.1-0.1-1.7-0.1
							c-0.6-0.1-1.2-0.1-1.8-0.2c-0.6,0-1.2,0-1.8,0c-0.6,0-1.1,0-1.7,0c-0.6,0-1.1,0.1-1.6,0.2c-1,0.1-2,0.2-2.7,0.4
							c-3.1,0.6-3.9,0.6,1.3-0.4l1.6-0.2c1-0.2-0.3-0.2-2.6,0.1c-2.3,0.4-5.8,1.3-9.1,2.6c-3.4,1.3-6.7,2.8-9.2,4
							c-2.5,1.1-4.2,1.9-4.1,1.7c-2.4,1.1-4.8,2.2-7.3,3c-2.5,0.8-5,1.5-7.5,1.4c-2.5,0.1-5-0.6-7.2-1.8c-2.2-1.2-4.3-2.8-6.3-4.5
							c-4-3.4-7.9-7-12.7-9.6c-4.7-2.6-10-4-15.4-4.1c-5.3-0.2-10.6,0.7-15.6,2.4c-5,1.7-9.5,4.3-13.9,7.1c-2.2,1.4-4.3,2.9-6.4,4.2
							c-2.1,1.4-4.2,2.7-6.4,3.5c-1.1,0.4-2.1,0.5-3.1,0.2c-1-0.3-1.9-0.9-2.7-1.6c-1.6-1.6-2.7-3.8-3.3-6c0.2,1.4,0.7,2.8,1.4,4.1
							c-1.2-1.9-1.9-4.1-2.1-6.2c-0.2-2.2,0.2-4.5,1.6-6c1.2-1.1,2.3-1.2,1.9-1.1c-0.1,0-0.3,0.1-0.5,0.3c-0.3,0.1-0.6,0.4-1,0.7
							c-0.7,0.7-1.7,2-1.8,4.3c0.1-1.2,0.5-2.7,1.5-3.8c0.5-0.6,1.1-1,1.8-1.3c0.8-0.3,1.3-0.4,1.8-0.4c0.2,0,0.5,0,0.7,0.1
							c0.2,0.1,0.4,0.3,0.3,0.5c-0.1,0.4-0.3,0.7-0.5,1c-0.1,0.1-0.2,0.3-0.3,0.4c-0.2,0.2-0.3,0.3-0.4,0.4
							c-0.2,0.2-0.4,0.4-0.4,0.4c-1.8,1.6-3.2,2.6-4.1,3.2c-0.9,0.6-1.4,0.9-1.5,1c-0.3,0.1,0.8-0.7,2.2-1.8c1.4-1.1,3-2.5,3.9-3.5
							c0.3-0.3,0.4-0.4,0.4-0.5c0,0,0,0-0.3,0.3l-0.2,0.2l-0.3,0.3l-0.7,0.7c-0.5,0.4-1,0.9-1.5,1.3c-1,0.8-2.1,1.6-3.2,2.4l1.5-1
							c-2.6,2-4,3-6.1,4.4c-2.1,1.3-4.7,3-10,5.8c-3.4,1.7-4.3,2-4.7,2.1c-0.4,0.1-0.2,0-1.6,0.6c0,0-0.1,0-0.2,0.1
							c-0.1,0.1-0.4,0.1-0.7,0.3c-0.6,0.3-1.7,0.7-3.3,1.4c-2.7,1-5.4,2-8.2,2.6c-1.4,0.3-2.8,0.5-4.2,0.6c-1.4,0.1-2.8,0-4-0.4
							c1.9,0.7,4.3,0.6,6.5,0.3c-1.9,0.4-3.8,0.5-5.5,0.3c-0.4-0.1-0.8-0.2-1.2-0.3c-0.2-0.1-0.3-0.1-0.5-0.2
							c-0.3-0.1-0.4-0.1-0.6-0.2c-0.2-0.1-0.4-0.1-0.5-0.1c-0.2-0.1-0.2-0.1-0.4-0.1c-0.3-0.1-0.5-0.3-0.8-0.4
							c-0.9-0.5-1.4-0.7-1.3-0.6c0.1,0.1,0.3,0.2,0.8,0.5c0.2,0.1,0.5,0.3,0.8,0.5c0.2,0.1,0.3,0.2,0.5,0.3c0.1,0.1,0.4,0.1,0.6,0.2
							c-0.2-0.1-0.3-0.1-0.5-0.2c-0.1-0.1-0.3-0.2-0.5-0.3c-0.4-0.2-0.8-0.5-1.2-0.7c-0.9-0.4-1.8-1.2-2.9-1.9
							c-2-1.6-4.2-3.7-6.2-6.4c-4.1-5.4-7.6-12.6-10-20.1c-0.6-1.9-1.2-3.7-1.7-5.6c-0.3-0.9-0.5-1.9-0.7-2.8
							c-0.1-0.5-0.3-1-0.4-1.5c-0.2-0.5-0.4-0.9-0.6-1.4c-1-1.8-2.7-3.1-4.5-3.7c-1.8-0.6-3.6-0.6-5.3-0.3c-1.6,0.3-3.1,0.8-4.4,1.4
							c-0.3,0.1-0.6,0.3-0.9,0.5c-0.3,0.2-0.6,0.3-0.9,0.6c-0.6,0.4-1,0.9-1.4,1.3c-1.5,1.8-2.2,3.3-2.7,4.1
							c-2.4,5-4.1,10.2-6.1,15.5c-1,2.7-2,5.4-3.2,8.2c-1.2,2.8-2.5,5.7-4.3,8.4c0.9-1.3,1.6-2.4,1.4-1.9c-0.1,0.2-0.4,0.9-1.1,2
							c-0.4,0.6-0.9,1.3-1.6,2c-0.4,0.4-0.7,0.8-1.2,1.2c-0.5,0.4-0.9,0.9-1.5,1.3c1.3-1.7-2.4,2.2-8.7,4.8
							c-3.2,1.3-6.9,2.3-10.4,2.7c-3.5,0.4-6.8,0.3-9.1,0c2,0.2,1,0.2-1.4,0.1c-2.4-0.2-6.3-0.8-9.8-2c-3.6-1.1-6.8-2.7-8.4-3.6
							c-0.8-0.4-1.2-0.7-1.1-0.6c0.1,0.1,0.7,0.6,2.1,1.4c-4.1-2.4-4.1-2.7-3.9-2.6c0.1,0,0.2,0.1,0-0.2c-0.2-0.2-0.9-0.7-2.2-1.8
							c-4.4-3.5-8.1-8.2-10.3-13.9c-2.3-5.6-3.1-12.1-2-18.5c0.1-0.8,0.3-1.6,0.5-2.4l0.3-1.2l0.3-1.2c0.2-0.8,0.4-1.6,0.7-2.4
							c0.3-0.8,0.6-1.5,0.9-2.3c1.3-3,3.1-5.9,5.2-8.5c4.2-5.3,9.9-9.5,16.2-12.2c0.2-0.1-0.8,0.2-1.2,0.3c-0.2,0.1-0.2,0,0.2-0.2
							c0.4-0.2,1.1-0.5,2.5-1.1c2.3-0.7,4.7-1.3,7.1-1.5c1.2-0.2,2.4-0.1,3.6-0.2c1.2,0,2.4,0.1,3.6,0.3c2.7,0.3,3.9,0.5,5.7,0.8
							c0.9,0.2,1.9,0.5,3.3,0.9c1.4,0.5,3.1,1.2,5.3,2.4c-0.6-0.3-1.4-0.8-1.6-0.9c-0.2-0.1,0.2,0,1.8,0.8c5,2.6,9.4,6.5,12.2,11.4
							c1.3,2.5,2.2,5.2,2.6,8c0.4,2.8,0.3,5.7,0,8.5l-0.3,2.1L93.7,49c-0.1,0.3-0.1,0.7-0.2,1l-0.3,1c-0.2,0.7-0.4,1.4-0.6,2
							c-1,2.7-2.3,5.3-3.9,7.6c-3.2,4.7-7.8,8.5-13,11c-1.3,0.6-2.7,1.1-4,1.6c-1.4,0.4-2.8,0.6-4.2,0.8c-2.9,0.3-5.8,0.1-8.6-0.4
							c-2.8-0.5-5.6-1.4-8.1-2.8c-2.5-1.4-4.7-3.3-5.7-5.8c-0.3-0.6-0.4-1.3-0.4-2c0-0.7-0.1-1.4,0-2.1c0.1-1.4,0.3-2.8,0.8-4.1
							c0.9-2.7,2.5-5.1,4.6-7c2.1-1.9,4.6-3.4,7.3-4.2c1.3-0.4,2.7-0.6,4.1-0.5c0.3,0,0.7,0.1,1,0.1l0.5,0.1l0.2,0
							c0.2,0.1,0.3,0.1,0.4,0.1l0.8,0.3c0.1,0,0.1,0,0.2,0.1l0.2,0.2l0.5,0.3c0.3,0.2,0.6,0.4,1,0.7l1.2,0.9
							c0.1-0.3,0.2-0.3,0.4-0.4c0.1-0.1,0.2,0,0.4,0l0.1,0l0,0c0,0,0-0.1,0-0.1l-0.1-0.5c-0.1-0.3-0.1-0.7-0.2-1
							c-0.2-1.3-0.8-2.8-1.7-4.4c-0.1-0.2-0.2-0.4-0.3-0.6c-0.1-0.2-0.2-0.3-0.3-0.4L65.2,40c-0.4-0.5-0.8-0.9-1.3-1.4
							C63,37.8,62,37,61,36.3c-4.3-2.6-9.4-3.5-14.3-3.1c0.5,0,0.9-0.1,1.3-0.1c0.4,0,0.7,0,1,0c0.6,0,1,0,1.3,0.1
							c0.5,0,0.4,0-0.1,0.1c-0.5,0-1.5,0-2.7,0c-1.2,0.1-2.7,0.2-4.1,0.5c3.8-0.6-0.1,0.2,0.7,0.2c-4,0.5-7.8,1.8-11.4,3.3l-2.7,1.2
							c-0.9,0.4-1.8,0.9-2.6,1.4c-0.9,0.5-1.8,0.9-2.6,1.4l-2.5,1.5c-0.9,0.6-2.7,1.8-4.7,3.6c-2,1.8-4.1,4.2-5.8,6.8
							c-1.7,2.6-3.1,5.3-4,7.6c-0.9,2.3-1.3,4-1.4,4.6c0.7-2.4,1.6-4.8,2.6-7.1c-1,2.3-1,2.7-0.6,2c0.2-0.4,0.5-1,1-1.8
							c0.5-0.8,1-1.7,1.6-2.7c1.2-1.9,2.8-3.9,4.1-5.2c1.3-1.3,2.2-2.1,2.1-1.7c0.9-1,2-2,3.2-3c1.2-1,2.7-1.8,4.2-2.7
							c3-1.9,6.5-3.6,10.2-5.1c3.8-1.4,7.9-2.6,12.2-2.9c2.2-0.2,4.3-0.1,6.5,0.2c2.1,0.4,4.3,1,6.2,2c1.6,1.1,0.9,0.7,0,0.1
							c-1-0.4-2.1-0.9-1.2-0.4c1.7,0.7,3.5,1.7,5.2,3.6c0.4,0.5,0.8,1,1.2,1.5c0.2,0.4,0.5,0.8,0.7,1.2c0.2,0.5,0.4,0.9,0.5,1.5
							c0,0.1,0.1,0.3,0.1,0.4l-0.3-0.3c-0.2-0.2-0.5-0.4-0.8-0.5c-0.3-0.2-0.7-0.4-1.1-0.5c-0.1,0-0.2-0.1-0.3-0.1
							c-0.2,0-0.4-0.1-0.6-0.1c-0.4-0.1-0.8-0.1-1.2-0.1c0.4,0,0.8,0,1.2,0.1c-3.9-0.6-7.4,0.6-10.3,2.3c-2.9,1.7-5.2,3.9-6.8,6.4
							c-1.6,2.5-2.6,5.4-2.8,8.2L43,61.7l0,1.1c0,0.7,0.1,1.5,0.3,2.2c0.4,1.4,1.1,2.7,2.1,3.9c1.9,2.2,4.4,3.7,7.1,4.9
							c2.7,1.1,5.7,1.8,8.8,2.2c3.2,0.3,6.6,0.3,10.2-0.6c1.8-0.5,3.5-1.2,5.3-2c1.7-0.9,3.5-1.8,5.2-3.1L81,70.8l-1.1,0.6
							c0.4-0.2,0.7-0.5,1.1-0.7c0.3-0.2,0.6-0.5,0.9-0.7c0.6-0.4,1.1-0.8,1.6-1.2c0.9-0.8,1.7-1.4,2.3-2c1.3-1.1,2.1-2.1,3.2-3.4
							c1.2-1.7,1-1.6,0.1-0.5c-0.8,1.1-2.5,3-4.4,4.7c-3.9,3.4-8.7,5.6-5.4,3.7c2.1-1.1,5.8-3.5,9.2-7.6c1.6-2.1,3.3-4.5,4.5-7.2
							c0.3-0.7,0.6-1.4,0.9-2.1l0.4-1.1l0.3-1.1c0.2-0.7,0.5-1.5,0.6-2.2l0.5-2.3c0.2-0.7,0.2-1.5,0.3-2.3c0.1-0.8,0.2-1.5,0.2-2.3
							c0-0.7,0.1-1.5,0.1-2.2c0-0.7,0.1-1.5,0-2.2c-0.1-2.9-0.6-5.7-1.5-8c-0.8-2.3-1.9-4.3-2.9-5.8c-0.5-0.8-1-1.4-1.4-1.9
							c-0.4-0.5-0.8-0.9-1-1.3c-1.9-2-3-2.7-3.3-2.9c-0.3-0.2,0,0.1,0.3,0.3c0.3,0.3,0.6,0.6,0.3,0.3c-0.3-0.2-1.2-1-3.5-2.5
							c-0.8-0.6-1.6-1.1-2.4-1.6c-0.8-0.4-1.7-0.7-2.6-1.1c-3.3-1.5-5.9-2.3-7.7-2.8c-1.8-0.5-2.7-0.7-2.9-0.8
							c1.7,0.3,4.9,1.1,6.7,1.7c-2.2-0.8-5-1.6-7.9-2c-1.5-0.2-3-0.3-4.6-0.3c-0.8,0-1.5,0.1-2.3,0.1c-0.4,0-0.8,0-1.1,0.1
							c-0.4,0.1-0.7,0.1-1.1,0.2c-5.9,0.8-10.5,3.2-12,3.9c3.2-1.6,6.6-2.8,10.1-3.4c-7.4,1.5-14.7,5.4-20.6,11.1
							c-2.9,2.9-5.5,6.2-7.4,9.8c-2,3.7-3.3,7.7-4,11.8c-0.8,4.1-0.9,8.3-0.3,12.4c0.6,4.1,1.9,8,3.8,11.6c1.8,3.6,4.3,6.8,7.1,9.4
							c2.8,2.7,5.9,4.8,9.1,6.5c-0.6-0.4-1.3-0.8-1.9-1.2c4.8,2.8,8.5,3.9,11.5,4.8c3,0.8,5.2,1.2,7.5,1.5c2.3,0.3,4.7,0.4,8.1,0.3
							c3.3-0.2,7.7-0.6,13.3-2.9l-0.8,0.3c4.5-1.7,10.4-5.1,14.5-10.5c-0.9,1.3-1,1.3-0.5,0.8c0.5-0.5,1.3-1.7,2-2.8
							c0.7-1.1,1.3-2.3,1.5-2.6c0.2-0.4,0.1,0-0.8,1.8c1.4-2.7,2.3-4.9,3-6.7c0.7-1.8,1.3-3.3,1.7-4.4c0.8-2.3,1.2-3.4,1.5-4.4
							c0.3-0.9,0.5-1.6,0.9-3c0.5-1.4,1.1-3.4,2.5-7c0.5-1.1,1.1-2.1,1.6-3.2c1.1-2.4,1.7-3.6,3.1-5.3c0.4-0.4,0.8-0.8,1.3-1.2
							c0.3-0.2,0.6-0.4,0.9-0.6c0.3-0.2,0.7-0.4,1.1-0.5c0.8-0.3,1.7-0.7,2.8-0.9c1.1-0.2,2.4-0.3,3.8-0.1c-2.3-0.2-3.1,0.1-3,0.1
							c0.1,0,1,0,1.8,0c0.4,0,0.8,0.1,1.1,0.2c0.3,0.1,0.4,0.1,0.4,0.2c0,0-0.3,0-0.8-0.1c-0.3,0-0.6-0.1-1.1,0
							c-0.4,0-1,0.1-1.6,0.1c2.9-0.4,5.7,0.5,7.1,2.4c0.7,0.9,1.2,2,1.5,3.2c0.3,1.3,0.6,2.5,0.9,3.7c1.3,4.7,2.8,8.7,4.4,12.2
							c1.6,3.5,3.1,6.5,4.8,9.2c1.7,2.7,3.4,5.1,5.3,7.4c0.5,0.5,0.9,0.9,1.2,1.2c0.3,0.2,0.5,0.4,0.6,0.4c0.2,0.1,0-0.1-0.6-0.6
							c-0.5-0.5-1.2-1.3-2.1-2.3c-0.4-0.5-0.8-1-1.3-1.6c-0.5-0.6-0.9-1.2-1.3-1.8c-3.6-5-6.3-11.2-4.8-8.3
							c-0.6-1.2-0.5-1.3-0.2-0.7c0.2,0.3,0.5,0.9,0.8,1.5c0.4,0.7,0.8,1.4,1.3,2.3c0.5,0.9,1.1,1.8,1.7,2.8c0.7,1,1.4,2,2.1,2.9
							c0.8,0.9,1.5,1.9,2.3,2.8c0.8,0.8,1.5,1.7,2.3,2.3c0.8,0.7,1.4,1.3,2.2,1.9c0.8,0.6,1.5,1.2,2.4,1.7c0.4,0.2,0.9,0.5,1.3,0.8
							c0.2,0.1,0.5,0.3,0.7,0.4l0.4,0.2c0.1,0.1,0.3,0.1,0.4,0.2c0.3,0.1,0.5,0.2,0.8,0.3c0.2,0.1,0.2,0.1,0.3,0.1l0.4,0.2
							c0.6,0.2,1.2,0.4,1.8,0.5c2.6,0.4,5.5,0,8.9-0.8c3.4-0.9,7.4-2.2,12-4.3c-1.8,0.8-2,0.9-3.8,1.7c3.5-1.4,6.9-3,10.3-4.9
							c3.5-1.9,7-3.9,11-6.4c2.1-1.6,4.6-3.3,6.6-4.9c0.5-0.4,1-0.8,1.4-1.2c0.2-0.2,0.4-0.4,0.6-0.6c0.1-0.1,0.2-0.2,0.3-0.3
							c0.1-0.1,0.2-0.2,0.3-0.3c0.4-0.4,0.8-0.9,1-1.3c0.2-0.4,0.3-0.7,0.3-0.9c-0.3,0.8-1,1.7-1.7,2.4c-0.6,0.6-1.1,1.1-1.7,1.6
							c-1.2,1-2.4,2-3.7,2.9c-2.5,1.8-5.1,3.5-7.7,5.1c2.2-1.4,4.4-2.8,6.6-4.4c2.2-1.6,4.3-3.2,6.5-5.4c0.6-0.6,1.2-1.4,1.5-2.1
							c0.1-0.4,0.3-0.8,0.1-1.2c-0.2-0.4-0.6-0.6-1.1-0.7c-0.4-0.1-0.9-0.1-1.4-0.1l-0.7,0l-0.7,0.1c-0.9,0.2-1.7,0.5-2.5,1.1
							c-0.8,0.5-1.4,1.3-1.9,2.1c-0.4,0.9-0.7,1.8-0.9,2.8c-0.3,2,0,4.1,0.7,6.2c-0.3-0.6-0.8-2.2-1-4.2c-0.2-1.9,0.2-4.3,1.5-5.9
							c-0.9,1.1-1.3,2.4-1.5,3.7c-0.2,1.3-0.1,2.6,0.1,3.9c0.5,2.5,1.5,4.9,3.1,7.1c-0.3-0.2-1.5-1.5-2.4-3.8
							c-0.5-1.1-0.9-2.5-1.1-4.1c-0.2-1.6-0.1-3.4,0.6-5.2c0.7-1.8,2.3-3.5,4.3-4c0.2-0.1,0.5-0.2,0.8-0.2l0.9-0.2l1,0l0.5,0
							l0.4,0.1c0.6,0.1,1.1,0.3,1.5,0.7c0.4,0.4,0.4,1.1,0.3,1.6c-0.1,0.5-0.4,1.1-0.8,1.6c-0.4,0.5-0.8,1-1.2,1.3
							c-0.6,0.6-1.3,1.2-1.9,1.8c-1.3,1.1-2.5,2.1-3.7,2.9c1.1-0.8,2.8-2,4.4-3.4c0.4-0.4,0.8-0.8,1.2-1.2c0.4-0.4,1.1-1.1,1.5-1.8
							c0.4-0.7,0.6-1.3,0.6-2c0-0.3-0.2-0.7-0.4-0.9c-0.2-0.2-0.5-0.4-0.8-0.5c-0.6-0.2-1.3-0.3-1.9-0.2c-0.3,0-0.7,0-0.9,0.1
							c-0.3,0-0.5,0.1-0.8,0.1c-0.9,0.2-1.5,0.5-1.9,0.7c-0.4,0.2-0.6,0.3-0.5,0.2c0.1-0.1,0.4-0.4,1.2-0.7
							c-1.1,0.5-2.2,1.3-2.9,2.4c-0.8,1.1-1.2,2.4-1.4,3.7c-0.4,2.7,0.1,5.5,1.4,8.3c0.6,1.4,1.4,2.7,2.6,3.9
							c1.1,1.2,2.6,2.3,4.4,2.6c0.9,0.2,1.9,0.1,2.8-0.1c0.9-0.2,1.7-0.5,2.5-0.9c1.6-0.7,3-1.7,4.4-2.6l-0.6,0.7
							c1.9-1.2,5.4-3.9,8.7-6c-1.9,1.4-3.8,2.8-5.8,4.2c4.5-3.2,8.9-6.1,13.5-8.3c4.6-2.2,9.5-3.6,14.6-4.2
							c-5.3,0.6-8.1,1.7-9.7,2.2c-1.5,0.5-1.7,0.6-1.6,0.5c0.1-0.1,0.7-0.4,0.6-0.4c-0.1,0-0.7,0.1-2.8,1c6.1-2.8,10.4-3.5,13.6-3.8
							c3.1-0.3,5.2-0.1,7.3,0.2c2.1,0.3,4.2,0.7,7.5,1.8c1.6,0.6,3.5,1.4,5.7,2.7c2.2,1.3,4.7,3.1,7.6,5.5c-1.6-1.3-4.5-3.7-6.6-5
							c-1-0.7-1.8-1.1-2-1.3c-0.2-0.1,0.3,0.1,1.6,0.8c4.8,2.9,10.2,8.4,13.1,10.6c4.2,3.2,6.8,3.9,7.6,4.1c0.8,0.2,0,0-1.1-0.5
							c-1.1-0.5-2.5-1.2-3-1.6c-0.6-0.4-0.4-0.3,1.6,0.7c3.2,1.7,6.1,2,8.9,1.7c2.9-0.4,5.8-1.2,10-3l0.1,0.2
							c2.7-1.1,4.8-2.1,6.4-2.8c1.6-0.8,2.8-1.3,3.7-1.8c1.8-0.9,2.4-1.2,2.9-1.5c0.5-0.3,1-0.6,2.6-1.2c0.8-0.4,1.8-0.7,3.3-1.3
							c0.7-0.3,1.6-0.5,2.5-0.8c0.5-0.1,1-0.3,1.5-0.5c0.6-0.1,1.1-0.2,1.8-0.4c-2.8,0.7-5.5,1.8-8.1,2.9c3.3-1.3,6.7-2.4,10.1-3
							c-0.7,0.2-1.4,0.5-2.1,0.7c0.7-0.2,1.4-0.4,2-0.5c0.6-0.1,1.3-0.2,1.9-0.3c1.2-0.2,2.3-0.2,3.4-0.3c1.1-0.1,2,0,3,0.1
							c0.9,0.1,1.9,0.1,2.8,0.3c3.8,0.5,7.5,1.1,13.2,2c-1.3-0.3-0.9-0.3,1.1-0.1c2,0.2,5.5,0.7,10.5,1.7c3.4,0.7,2.4,0.6,2.4,0.6
							c0,0,0,0,0.2,0.1c0.2,0,0.5,0.1,1.1,0.2c1.1,0.2,3.1,0.6,6.6,1.4c-3.2-0.6-6.7-1.2-12.8-2.5c-0.6,0-3.2-0.4-3.9-0.4
							c3.7,0.7,8.3,1.6,12.6,2.5c4.3,0.9,8.3,1.9,10.8,2.6c-1.9-0.5-4.2-1.2-5.4-1.5c6.8,1.6,13.5,3.4,19.8,6.2
							c2.9,1.5,0.6,0.4-1.8-0.5c1.9,0.8,3.5,1.5,5.3,2.5c1.8,0.9,3.7,2,6,4c-0.7-0.4-0.9-0.6-1.9-1.2c-0.5-0.3-1.2-0.7-2.2-1.3
							c-0.5-0.3-1.1-0.6-1.8-1c-0.7-0.4-1.5-0.8-2.5-1.3c2.9,1.4,5.8,3,8.2,5c2.4,2,4.5,4.5,5.2,7.3c0,0.1,0.1,0.4,0.1,0.7
							c0.1,0.3,0,0.7,0.1,1.2c0,0.2,0,0.4,0,0.7c0,0.2,0,0.5-0.1,0.7c0,0.2,0,0.5-0.1,0.7c-0.1,0.2-0.1,0.4-0.2,0.7
							c-0.4,1.7-1.3,2.8-0.8,1.8c-0.5,1-1.3,2-2.3,2.9c-1,0.9-2.3,1.7-3.6,2.4c-2.8,1.4-6,2.4-9.5,3.3c-6.9,1.7-14.6,2.7-21.8,3.5
							c-0.8,0.1-2.3,0.3-5.4,0.7c-6.9,0.8-13.3,1.5-20.1,2.4c-6.8,0.9-13.9,2.1-21.9,4c-3.1,0.6-6.1,1.2-9.2,1.8
							c-12.4,3.5,12.3-3-8.3,3c-3.6,1.2-5.7,1.9-7,2.4c-1.3,0.4-1.6,0.5-1.8,0.5c-0.2,0,0.7-0.5-1.8,0.4c-3.5,1.5-8.2,3.6-13.5,6.4
							c-5.3,2.8-11.1,6.4-16.8,10.5C269.6,139.2,272.7,137.2,276.4,135z M158.4,231.8c2.8-1.3,8.4-3.7,10.5-4.4
							C165.8,229,163.2,229.9,158.4,231.8z M259.8,323.5c-2.3,0.3-5.8,0.6-9.7,0.9C252.9,324.2,256.2,323.9,259.8,323.5z
							 M174.2,587.5c-0.1,0-0.2,0-0.3-0.1C167.3,585.8,169.6,586.4,174.2,587.5z M188.1,589.4c1.4,0.1,1.3,0.1,0.7,0
							c-1-0.1-4.1-0.3-7.7-0.7C182.1,588.9,183.9,589,188.1,589.4z M173.6,75.7c0.8-0.3,1.7-0.7,2.5-1c-2.8,1.3-3.8,1.7-4,1.7
							C172,76.4,172.8,76.1,173.6,75.7z"/>
						<path class="st3" d="M232.7,326.2c-0.9,0-1.1,0-1.3,0C230.1,326.3,230.1,326.3,232.7,326.2z"/>
						<path class="st3" d="M371.2,109.9l0.5-0.1c0.3,0,0.4-0.1,0.5-0.1L371.2,109.9z"/>
						<path class="st3" d="M154.4,465.2c2.9,0.5,4.5,0.9,5.5,1.1C160.1,466.2,158.8,465.9,154.4,465.2z"/>
						<path class="st3" d="M261.6,578.4l-8.8,2.4c4.2-1.1,5.8-1.5,7.9-2C260.5,578.8,258.8,579.1,261.6,578.4z"/>
						<path class="st3" d="M337,555.8c1.2-0.6,2.5-1.2,3.7-1.8l-0.4,0.1c-2.5,1.3-4.7,2.3-5.6,2.7C333.9,557.2,334.3,557,337,555.8z
							"/>
						<path class="st3" d="M269.9,577c0.7,0,6.2-1.6,12.3-3.3c-0.4,0.1-0.7,0.2-1.1,0.3C282.9,573.2,276.4,575.1,269.9,577z"/>
						<path class="st3" d="M283.7,573.2c1.9-0.5,3.8-1.1,5.7-1.6C290,571.3,287,572.2,283.7,573.2z"/>
						<path class="st3" d="M205.9,589.5c3-0.1,1.9-0.4,3.6-0.4c1.7-0.3-3.3,0.3-6.7,0.4C199.5,589.6,197.7,589.7,205.9,589.5z"/>
						<polygon class="st3" points="275,576.2 272.8,576.6 269.4,577.7 						"/>
						<path class="st3" d="M226.3,588.2l5-0.9c1.7-0.3,3.3-0.6,5-1c-0.2,0,1.1-0.3,2.6-0.7c-1.5,0.4-3.1,0.7-4.6,1.1
							c-1.5,0.3-2.9,0.5-4.1,0.8C227.8,587.9,226.2,588.2,226.3,588.2z"/>
						<path class="st3" d="M238.9,585.6c3.2-0.8,6.2-1.5,7.9-2C245.1,584.1,241.4,584.9,238.9,585.6z"/>
						<polygon class="st3" points="261.7,580 258.7,580.7 251.8,582.5 						"/>
						<path class="st3" d="M124.6,562.8c-2.6-2.6-5.1-5.3-7.4-8.3c-0.4-0.4-0.1,0,0.6,0.9c0.7,0.9,1.8,2.3,3.2,3.8
							c0.9,1,2.1,2.2,2.9,3C124.7,563,125.1,563.4,124.6,562.8z"/>
						<path class="st3" d="M151.8,582.2c-2.7-1.3-2.9-1.4-4.4-2.2L147,580c0.8,0.4,1.6,0.8,2.4,1.1L151.8,582.2z"/>
						<path class="st3" d="M124.9,564.2c-0.2-0.2-1.1-0.9-2-1.9c-0.9-1-2-2.1-2.7-2.9c-1.5-1.6-1.7-1.7,3.1,3.5
							c0.4,0.4,2.7,2.5,3.9,3.6c0.6,0.6,1,0.8,0.7,0.6C127.6,566.8,126.7,566,124.9,564.2z"/>
						<polygon class="st3" points="171.1,469.3 168.3,468.7 168.6,469.3 						"/>
						<path class="st3" d="M309.4,448c-5.5,3.6-6.1,4-6.6,4.4c-0.5,0.4-0.8,0.7-5.9,3.7c-1.3,0.8,0.8-0.4,2.9-1.6
							c2.1-1.2,4.1-2.5,2.8-1.6C309.1,448.6,312.5,446.2,309.4,448z"/>
						<path class="st3" d="M302.5,452.9c-1.1,0.7-2.2,1.4-3.4,2.2C301.1,453.9,302,453.3,302.5,452.9z"/>
						<path class="st3" d="M10.5,54.1c-1.6,2.4-2.9,5.1-3.9,7.8l0.5-1.3l0.6-1.3c0.4-0.9,0.9-1.7,1.3-2.5C9.5,55.8,10,55,10.5,54.1z
							"/>
						<path class="st3" d="M5,69.7c-0.2,0.6-0.4,1.3-0.6,2c-0.1,0.9,0,1.7-0.1,2.6c0,0.9,0.1,1.7,0.1,2.6c0-1,0-2.4,0.1-3.8
							c0-0.7,0.1-1.4,0.2-1.9C4.8,70.5,4.9,70,5,69.7z"/>
						<path class="st3" d="M136.7,241.3l-0.5,0.4c1.2-0.6,3-1.5,6.6-3.3C140.7,239.3,138.7,240.3,136.7,241.3z"/>
						<path class="st3" d="M231.9,184.4c-0.3,0.6-0.6,1.2-0.8,1.8c0.6-1.1,1.2-2.2,1.8-3.3L231.9,184.4z"/>
						<path class="st3" d="M303.2,122.2c-3.8,1.3-8.1,2.9-11.8,4.5C299.4,123.3,304.4,122.2,303.2,122.2z"/>
					</g>
				</g>
			</g>
		</g>
	</g>
</g>
<g id="Layer_2">
	<linearGradient id="SVGID_1_" gradientUnits="userSpaceOnUse" x1="204.1714" y1="608.5783" x2="204.1714" y2="16.2056">
		<stop  offset="0" style="stop-color:#467DB6;stop-opacity:0"/>
		<stop  offset="1" style="stop-color:#467DB6"/>
	</linearGradient>
	<path class="st4" d="M350.9,614.8c-5-9.8-10.7-19.3-16.3-28.9c-5.6-9.6-11.1-19.3-16-29.3c-2.4-5-4.7-10.1-6.7-15.4
		c-1.9-5.3-3.6-10.7-4.5-16.3c-0.2-1.4-0.4-2.8-0.6-4.2c-0.1-1.5-0.2-2.9-0.1-4.4c0.1-3,0.9-5.9,2.1-8.7c0.7-1.4,1.5-2.6,2.4-3.8
		c0.9-1.2,2-2.3,3.1-3.2c1.1-1,2.4-1.8,3.6-2.6c1.3-0.7,2.6-1.4,3.9-2c5.4-2.2,11.2-3,17-2.9c5.7,0.1,11.4,1.1,16.9,3.1
		c2.7,1,5.3,2.3,7.8,3.9c2.4,1.6,4.7,3.6,6.5,6c1.8,2.4,3.1,5.3,3.5,8.4c0.2,1.5,0.3,3.1,0.1,4.6c-0.1,0.8-0.2,1.5-0.4,2.2l-0.5,2.1
		c-1.3,5.5-2.9,11-5.7,16.1c-2.8,5.1-6.8,9.5-11.3,13c-4.5,3.6-9.4,6.4-14.4,9c-5,2.5-10.2,4.7-15.4,6.8c-10.4,4.1-21,7.5-31.6,10.8
		c-10.6,3.3-21.3,6.3-32,9.2l-16.1,4.3c-5.4,1.4-10.8,2.8-16.3,3.8c-11,2.2-22.2,3.5-33.4,3.5c-11.2,0-22.6-1.4-33.3-5.1
		c-10.7-3.6-20.8-9.5-29-17.5c-8.2-8-14.3-17.9-18.3-28.5c-4-10.6-6-21.9-6.2-33.2c-0.1-5.7,0.2-11.3,1.1-17
		c0.9-5.7,2.7-11.4,5.8-16.4c1.6-2.5,3.4-4.8,5.6-6.9c2.2-2,4.6-3.8,7.1-5.3c5.1-2.9,10.7-4.7,16.3-5.8c5.6-1.1,11.3-1.4,17-1.5
		c5.7,0,11.3,0.3,16.9,0.9c11.2,1.1,22.2,2.9,33.1,4.7c2.8,0.5,5.3,0.9,8,1.1c2.7,0.2,5.4,0.3,8.1,0.3c5.4-0.1,10.8-0.6,16.1-1.5
		c5.3-0.9,10.6-2.2,15.9-3.7c5.2-1.5,10.4-3.2,15.5-5.2c5.1-2,10.1-4.2,15.1-6.6c4.9-2.4,9.7-5.1,14.4-7.9c9.4-5.6,18.4-12,27-18.8
		c17.1-13.7,32.7-29.6,44.8-47.6c3-4.5,5.7-9.2,7.9-14.1c2.2-4.9,3.9-9.9,4.7-15.1c0.4-2.6,0.5-5.1,0.3-7.6
		c-0.1-1.3-0.3-2.5-0.6-3.7c-0.1-0.6-0.3-1.2-0.5-1.8l-0.3-0.8l-0.3-0.8c-1.9-4.2-6-7.1-10.8-8.9c-4.8-1.8-10.2-2.7-15.5-3.2
		c-5.4-0.5-10.9-0.7-16.3-0.6c-11,0.1-22,0.9-33.1,1.7c-22.1,1.8-44.2,4.1-66.5,5c-11.1,0.4-22.3,0.6-33.5,0
		c-11.2-0.6-22.4-1.8-33.4-4.2c-11-2.5-21.9-6.2-31.7-12.1c-4.9-3-9.5-6.5-13.5-10.6c-4.1-4.1-7.6-8.6-10.5-13.7
		c-1.4-2.6-2.6-5.3-3.4-8.2c-0.8-2.9-1.2-6-0.9-9.1c0.3-3.1,1.2-6.1,2.7-8.8c1.4-2.7,3.3-5.1,5.4-7.2c4.2-4.2,9-7.4,13.9-10.2
		c4.9-2.8,10.1-5.2,15.2-7.4c10.3-4.4,20.8-8.1,31.2-11.9c10.4-3.8,20.8-7.6,30.7-12.2c4.9-2.3,9.7-4.9,14.1-8
		c4.3-3.1,8.2-6.7,10.4-11.1c0.5-1,1-2.4,1.6-3.7c0.5-1.3,1.1-2.6,1.7-3.9c1.2-2.6,2.4-5.1,3.7-7.6c2.6-5,5.5-9.9,8.8-14.5
		c6.5-9.3,14.3-17.7,23.1-24.8c8.8-7.1,18.7-12.9,29.1-17.3c10.4-4.5,21.2-7.7,32.1-10.1c10.9-2.5,22-4,32.9-5.7
		c5.4-0.9,10.9-1.8,15.9-3.5c2.5-0.9,4.9-2,6.3-3.6c0.7-0.8,1.2-1.7,1.4-2.8c0.2-1,0.1-2.3-0.1-3.5c-0.4-2.4-1.6-4.6-3.3-6.5
		c-1.6-1.9-3.7-3.6-5.9-5c-4.5-2.9-9.5-5-14.7-6.8c-10.4-3.5-21.3-5.6-32.2-7.3c-2.7-0.4-5.5-0.9-8.1-1.1c-2.7-0.2-5.4-0.1-8,0.3
		c-5.3,0.7-10.6,2.4-15.8,4.3c-5.2,1.8-10.4,4-16,5.1c-2.8,0.6-5.8,0.7-8.7,0.3c-2.9-0.5-5.7-1.6-8.1-3c-2.5-1.4-4.8-3-7.1-4.4
		c-2.3-1.5-4.7-2.8-7.1-4c-4.9-2.3-10.3-3.4-15.7-3.6c-5.4-0.2-10.9,0.5-16,2.2c-5.2,1.6-10.1,4.2-14.8,6.9
		c-2.4,1.4-4.8,2.8-7.3,4.1c-1.3,0.6-2.6,1.2-4,1.6c-0.7,0.2-1.5,0.3-2.3,0.4c-0.8,0-1.6-0.2-2.4-0.4c-1.5-0.6-2.7-1.5-3.8-2.6
		c-1-1.1-1.9-2.3-2.6-3.6c-1.4-2.6-2.2-5.5-2-8.5c0.1-1.5,0.6-3.1,1.8-4.4c1.1-1.2,2.8-1.8,4.3-2c0.8-0.1,1.5-0.2,2.5,0.1
		c0.2,0.1,0.5,0.2,0.8,0.5c0.3,0.3,0.5,0.7,0.5,1.1c0,0.8-0.3,1.1-0.5,1.5c-0.9,1.4-2,2.2-3.1,3.2c-4.5,3.5-9.3,6.3-14.2,8.9
		c-5,2.6-10,4.9-15.4,6.7c-2.7,0.9-5.4,1.7-8.2,2.2c-1.4,0.2-2.8,0.4-4.3,0.4c-1.5,0-3-0.2-4.5-0.8l0.1,0l-1.3-0.4c0,0-0.1,0-0.1,0
		l0,0c-4-1.7-7.6-4.3-10.7-7.2c-3.2-2.9-5.9-6.2-8.5-9.6c-2.6-3.4-4.9-7-7.2-10.4l-1.8-2.6l-0.9-1.2c-0.3-0.4-0.6-0.8-0.9-1.1
		c-1.1-1.3-2.6-2-4.3-2.1c-0.8,0-1.7,0.1-2.5,0.4c-0.4,0.1-0.8,0.3-1.3,0.5c-0.2,0.1-0.4,0.2-0.6,0.3l-0.1,0.1c-0.1,0,0,0-0.1,0
		l-0.2,0.2c-1.3,1-2.5,2.6-3.6,4.3c-2.2,3.4-3.9,7.1-5.8,10.9c-1.8,3.8-3.7,7.6-5.9,11.4c-1.1,1.9-2.4,3.7-4,5.4
		c-1.5,1.7-3.2,3.1-5,4.5c-7.2,5.3-15.8,8.1-24.5,8.9c-8.7,0.8-17.7-0.3-25.7-4.3c-4-2-7.7-4.7-10.6-8.1c-1.6-1.7-2.8-3.7-3.8-5.7
		c-1-2-1.9-4-2.6-6.1c-2.8-8.4-3.2-17.6-1-26.2c0.3-1.1,0.6-2.1,0.9-3.2c0.4-1.1,0.8-2.1,1.2-3.2c0.9-2.1,2.1-4,3.4-5.9
		c2.6-3.7,5.9-6.8,9.6-9.3c3.7-2.5,7.7-4.4,12-5.8c4.2-1.3,8.6-2.1,13.1-2.1c4.6,0,9,0.9,13.2,2.4c4.2,1.5,8.3,3.6,11.7,6.6
		c3.5,3,6.3,7,7.8,11.4c1.6,4.4,1.7,9.2,1.4,13.5c-0.3,4.4-1.2,8.9-3.1,13.1c-1.9,4.2-4.8,8-8.5,10.8c-3.6,2.8-7.8,4.8-12,6.1
		c-4.4,1.3-9,1.7-13.6,0.9c-2.3-0.4-4.6-1-6.8-2.2c-2.2-1.2-4.2-2.9-5.6-5.3c-0.7-1.2-1.1-2.5-1.3-3.8c-0.1-0.6-0.2-1.3-0.2-1.9
		c0-0.6,0-1.2,0-1.8c0.1-2.5,0.9-5,2.2-7.1c1.3-2.2,3.3-3.9,5.4-5.2c2.1-1.3,4.5-2,6.8-2.4c2.4-0.4,4.8-0.3,7.2,0.3
		c2.4,0.5,4.8,1.7,6.7,3.5l-4.3,2.4c-0.2-0.7-0.5-1.6-0.8-2.4c-0.3-0.8-0.7-1.6-1.1-2.3c-0.4-0.7-0.9-1.3-1.4-1.9
		c-0.6-0.6-1.2-1.1-1.9-1.6c-2.8-2-6.2-3-9.8-3.4c-3.6-0.3-7.3,0-10.9,0.9c-3.6,0.9-7.1,2.3-10.5,3.9c-1.7,0.8-3.4,1.7-5,2.7
		c-0.8,0.5-1.6,1-2.4,1.5c-0.8,0.5-1.6,1-2.3,1.6c-2.8,2.2-5.2,5.1-7,8.2c-1.9,3.2-3.3,6.7-4.2,10.3c-0.5,1.8-0.8,3.7-1.1,5.5
		c-0.3,1.9,0,3.7-1.1,5.6l-2.8,0.1c-1.1-2-0.7-4.1-0.5-6.2c0.2-2.1,0.6-4.1,1-6.1c1-4,2.4-7.9,4.5-11.6c2.1-3.6,4.7-7,8.1-9.7
		c0.8-0.7,1.8-1.3,2.6-1.8c0.8-0.6,1.7-1.1,2.6-1.6c1.7-1.1,3.5-2,5.3-3c3.7-1.8,7.5-3.3,11.6-4.3c4-1,8.3-1.5,12.6-1.1
		c4.3,0.4,8.6,1.7,12.3,4.3c0.9,0.6,1.8,1.4,2.6,2.2c0.8,0.8,1.6,1.8,2.1,2.8c0.6,1,1.1,2,1.5,3c0.4,1,0.8,2,1.1,3.2
		c0.3,1.4-0.5,2.7-1.9,3.1c-0.9,0.2-1.7,0-2.3-0.6L68.7,53c-2.3-2.1-6.1-2.9-9.6-2.4c-3.5,0.5-6.9,2.4-8.6,5.2
		c-0.9,1.4-1.4,3-1.5,4.8c0,0.4,0,0.9,0,1.3c0,0.5,0.1,0.8,0.1,1.2c0.1,0.8,0.4,1.5,0.8,2.1c1.4,2.7,5,4.3,8.6,4.9
		c3.7,0.6,7.7,0.3,11.3-0.8c3.7-1.2,7.3-2.9,10.3-5.2c3-2.4,5.4-5.4,6.9-8.9c1.6-3.5,2.4-7.3,2.7-11.3c0.3-4,0.1-7.9-1.1-11.4
		c-1.2-3.5-3.4-6.7-6.3-9.2c-2.9-2.5-6.4-4.4-10.1-5.7c-3.7-1.3-7.7-2.1-11.5-2.1c-7.8,0.1-15.8,2.5-22.3,6.9
		c-3.3,2.2-6.1,4.9-8.4,8.1c-1.1,1.6-2.1,3.3-2.9,5c-0.4,0.9-0.8,1.8-1.1,2.7c-0.3,0.9-0.6,1.9-0.9,2.9c-2,7.7-1.7,15.9,0.8,23.5
		c0.6,1.9,1.4,3.7,2.2,5.5c0.9,1.8,1.9,3.4,3.1,4.8c2.5,3,5.7,5.4,9.2,7.2c7,3.6,15.3,4.8,23.3,4c8-0.8,15.9-3.5,22.2-8.3
		c1.5-1.2,3-2.5,4.3-4c0.7-0.7,1.2-1.5,1.8-2.3c0.6-0.8,1.1-1.6,1.7-2.5c2.2-3.4,4.1-7.1,6-10.8c2-3.7,3.9-7.5,6.3-11.2
		c1.3-1.8,2.6-3.6,4.7-5.1l0.4-0.3c0,0,0.2-0.1,0.3-0.2l0.2-0.1c0.3-0.1,0.6-0.3,0.8-0.4c0.6-0.2,1.1-0.4,1.7-0.6
		c1.2-0.3,2.4-0.5,3.7-0.4c1.3,0.1,2.6,0.4,3.7,1c1.2,0.6,2.2,1.5,2.9,2.4c0.4,0.5,0.7,0.9,1,1.4c0.3,0.4,0.6,0.9,0.9,1.3l1.7,2.7
		c2.2,3.6,4.4,7.1,6.8,10.5c2.4,3.4,5,6.6,7.9,9.5c2.9,2.9,6.2,5.3,9.9,7l-0.1,0l1.2,0.4l0,0c0,0,0.1,0,0.1,0
		c1.1,0.5,2.4,0.7,3.7,0.7c1.3,0,2.6-0.1,4-0.3c2.7-0.4,5.3-1.1,7.9-2c5.2-1.8,10.2-4,15.1-6.6c4.8-2.6,9.7-5.4,13.9-8.8
		c1-0.8,2.1-1.8,2.7-2.7c0.1-0.2,0.2-0.5,0.2-0.4c0,0,0,0.2,0.1,0.2c0,0,0,0-0.1,0c-0.4-0.1-1.1-0.1-1.7,0c-1.2,0.1-2.3,0.6-3.1,1.4
		c-0.8,0.8-1.2,2-1.3,3.2c-0.2,2.5,0.6,5.1,1.8,7.4c0.6,1.2,1.4,2.2,2.3,3.2c0.9,0.9,1.9,1.7,3,2.1c0.6,0.2,1.1,0.3,1.7,0.3
		c0.6,0,1.2-0.1,1.8-0.3c1.2-0.3,2.4-0.9,3.7-1.5c2.4-1.2,4.8-2.7,7.2-4.1c4.8-2.8,9.8-5.4,15.2-7.2c5.4-1.8,11.1-2.6,16.8-2.4
		c5.7,0.2,11.4,1.4,16.6,3.7c5.2,2.3,9.7,5.8,14.5,8.4c2.4,1.3,4.8,2.3,7.4,2.7c2.6,0.4,5.2,0.2,7.8-0.3c5.3-1.1,10.4-3.2,15.6-5.2
		c5.2-1.9,10.6-3.7,16.3-4.5c2.8-0.4,5.7-0.6,8.6-0.4c2.9,0.2,5.6,0.7,8.4,1c11,1.6,22,3.6,32.8,7.1c5.3,1.8,10.6,3.9,15.5,6.9
		c2.4,1.5,4.8,3.4,6.8,5.6c2,2.3,3.6,5.1,4.2,8.2c0.3,1.6,0.4,3.1,0.1,4.8c-0.3,1.7-1.1,3.4-2.3,4.6c-1.1,1.3-2.4,2.2-3.8,2.9
		c-1.3,0.7-2.7,1.3-4.1,1.8c-5.5,1.9-11,2.9-16.5,3.9c-11,1.9-21.9,3.6-32.6,6c-10.7,2.5-21.2,5.7-31.2,10.1
		c-10,4.4-19.4,10-27.8,16.9c-8.4,6.9-15.8,15-21.9,23.9c-3.1,4.5-5.9,9.1-8.4,14c-1.3,2.4-2.4,4.9-3.6,7.4
		c-0.6,1.2-1.1,2.5-1.6,3.7l-0.8,1.9c-0.2,0.6-0.6,1.4-0.9,2.1c-1.4,2.8-3.3,5.2-5.4,7.4c-2.1,2.1-4.4,4-6.7,5.6
		c-4.7,3.3-9.8,6-14.9,8.3c-20.5,9.4-42,15.3-62.2,23.9c-5,2.2-10,4.5-14.7,7.2c-4.7,2.7-9.2,5.7-12.8,9.4
		c-3.7,3.7-6.3,8.2-6.7,13.1c-0.5,4.9,1.2,9.9,3.7,14.5c2.6,4.6,5.9,8.9,9.7,12.7c3.8,3.8,8,7.1,12.6,9.9
		c9.2,5.6,19.6,9.2,30.2,11.6c10.7,2.3,21.6,3.5,32.6,4c11,0.5,22,0.4,33.1-0.1c22.1-0.9,44.1-3.2,66.3-5.1
		c11.1-0.9,22.2-1.8,33.4-1.9c5.6-0.1,11.2,0,16.9,0.5c5.7,0.5,11.4,1.4,17,3.4c2.8,1,5.6,2.4,8.1,4.3c2.5,1.9,4.7,4.5,6.1,7.4
		l0.5,1.1l0.4,1.1c0.2,0.7,0.5,1.5,0.6,2.2c0.4,1.5,0.6,3,0.7,4.5c0.3,3,0.1,6-0.3,9c-0.8,5.9-2.7,11.4-5,16.7
		c-2.3,5.3-5.2,10.2-8.3,15c-6.2,9.5-13.5,18.1-21.4,26.1c-7.9,8-16.4,15.4-25.2,22.2c-17.8,13.7-37.1,25.2-57.8,34.1
		c-5.2,2.2-10.5,4.2-15.9,5.8c-5.4,1.6-10.9,2.9-16.5,3.9c-5.6,0.9-11.3,1.5-17,1.5c-2.9,0-5.7-0.1-8.6-0.4
		c-2.8-0.2-5.8-0.7-8.4-1.2c-10.9-2-21.8-4-32.7-5.1c-5.5-0.6-10.9-1-16.4-1c-5.4,0-10.9,0.3-16.1,1.3c-5.3,0.9-10.4,2.6-15,5.1
		c-2.3,1.3-4.4,2.8-6.3,4.6c-1.9,1.8-3.5,3.8-4.9,6c-2.8,4.4-4.4,9.5-5.3,14.8c-0.8,5.3-1.2,10.8-1.1,16.2c0.1,10.9,2,21.7,5.8,31.9
		c3.8,10.2,9.6,19.6,17.2,27.2c7.7,7.6,17.2,13.3,27.5,16.7c10.3,3.5,21.2,4.9,32.2,5c11,0.1,21.9-1.3,32.7-3.4
		c5.4-1,10.7-2.4,16.1-3.8l16.1-4.3c10.7-2.9,21.4-5.9,31.9-9.2c10.6-3.2,21.1-6.7,31.4-10.7c5.1-2,10.2-4.2,15.1-6.6
		c4.9-2.5,9.6-5.2,13.8-8.6c4.2-3.3,7.8-7.3,10.4-12c2.6-4.6,4.1-9.9,5.4-15.2l0.4-2c0.1-0.7,0.3-1.2,0.3-1.9c0.2-1.2,0.1-2.5,0-3.7
		c-0.3-2.5-1.4-4.8-2.9-6.8c-3.1-4.1-7.8-6.9-12.7-8.8c-5-1.9-10.4-2.8-15.7-2.9c-5.3-0.1-10.7,0.7-15.6,2.6
		c-4.9,1.9-9.1,5.3-11.3,10c-1.1,2.3-1.7,4.8-1.8,7.4c-0.1,1.3,0,2.6,0.1,3.9c0.1,1.3,0.3,2.7,0.5,4c1.9,10.7,6.1,20.9,10.8,30.9
		c4.8,9.9,10.3,19.5,15.8,29.1c5.5,9.6,11.3,19.1,16.3,29.1"/>
	<path id="SVGID_x5F_2_x5F_" class="st5" d="M249.3,55.8c22.3,0.5,27.7,14.7,41.4,15.2c13.7,0.5,29.6-12.8,48.9-10.1
		c19.3,2.7,92.1,16.7,93.3,30.9"/>
	<text>	<textPath  xlink:href="#SVGID_x5F_2_x5F_" startOffset="7.8127%">
<tspan  style="font-family:'Tahoma'; font-size:6px;">Spinnen Sie den Faden mit uns weiter!</tspan>	</textPath>
</text>
</g>
</svg>
