<?xml version="1.0" encoding="utf-8"?>
<!-- Generator: Adobe Illustrator 23.0.3, SVG Export Plug-In . SVG Version: 6.00 Build 0)  -->
<svg version="1.1" xmlns="http://www.w3.org/2000/svg" xmlns:xlink="http://www.w3.org/1999/xlink" x="0px" y="0px"
	 viewBox="0 0 439.7 805.5" style="enable-background:new 0 0 439.7 805.5;" xml:space="preserve">
<style type="text/css">
	.st0{fill:none;}
	.st1{fill:url(#SVGID_2_);}
</style>
<g id="Layer_2">
</g>
<g id="Layer_1">
	<path id="SVGID_x5F_1_x5F_" class="st0" d="M249.3,55.8c22.3,0.5,27.7,14.7,41.4,15.2c13.7,0.5,29.6-12.8,48.9-10.1
		c19.3,2.7,92.1,16.7,93.3,30.9"/>
	<text>	<textPath  xlink:href="#SVGID_x5F_1_x5F_" startOffset="7.8125%">
<tspan  style="font-family:'Tahoma'; font-size:6px;">Spinnen Sie den Faden mit uns weiter!</tspan>	</textPath>
</text>
	<linearGradient id="SVGID_2_" gradientUnits="userSpaceOnUse" x1="219.2238" y1="798.6057" x2="219.2238" y2="10.4652">
		<stop  offset="0" style="stop-color:#FFFFFF"/>
		<stop  offset="4.189944e-02" style="stop-color:#F7FAFC"/>
		<stop  offset="1" style="stop-color:#467DB6"/>
	</linearGradient>
	<path class="st1" d="M5.6,80.5c-1.1-2-0.7-4.1-0.5-6.2c0.2-2.1,0.6-4.1,1-6.1c1-4,2.4-7.9,4.5-11.6c2.1-3.6,4.7-7,8.1-9.7
		c1.7-1.4,3.4-2.3,5.2-3.5c0.4-0.3,0.9-0.5,1.3-0.8l1.3-0.7l2.7-1.4c3.7-1.8,7.5-3.4,11.6-4.3c4-1,8.3-1.5,12.6-1.1
		c4.3,0.4,8.6,1.7,12.3,4.3l1.4,1c0.4,0.4,0.8,0.8,1.3,1.2c0.4,0.4,0.8,0.9,1.2,1.4c0.4,0.5,0.7,1,1,1.4c0.6,1,1.1,2,1.5,3
		c0.4,1.1,0.7,2,1,3.2l0,0c0.3,1.4-0.5,2.7-1.9,3.1c-0.9,0.2-1.7-0.1-2.3-0.6l0,0c-2.3-2.1-6.1-2.9-9.6-2.3
		c-3.5,0.5-6.8,2.4-8.6,5.2c-0.9,1.4-1.4,3-1.5,4.7c0,0.4,0,0.9,0,1.3c0,0.2,0,0.4,0,0.6l0.1,0.6l0.1,0.6c0,0.2,0.1,0.4,0.2,0.5
		c0.1,0.3,0.2,0.7,0.4,1c0.7,1.3,1.9,2.4,3.4,3.2c1.5,0.8,3.3,1.3,5.1,1.7c1.8,0.3,3.7,0.4,5.6,0.3c1.9-0.1,3.8-0.4,5.6-1
		c1.8-0.5,3.7-1.3,5.4-2.1c0.9-0.4,1.7-0.9,2.5-1.4c0.8-0.5,1.6-1,2.3-1.6c3-2.3,5.4-5.3,7-8.7c1.6-3.4,2.5-7.3,2.8-11.2
		c0.1-2,0.2-4,0.1-5.9c-0.1-1.9-0.5-3.7-1.1-5.5c-1.2-3.5-3.3-6.7-6.1-9.2c-2.8-2.5-6.2-4.5-9.9-5.8c-3.7-1.3-7.6-2.1-11.4-2.2
		c-7.8,0-15.8,2.3-22.3,6.7c-3.3,2.2-6.2,4.8-8.5,7.9c-1.2,1.5-2.2,3.2-3,4.9c-0.8,1.7-1.5,3.6-2,5.5c-2.2,7.6-2.2,15.9,0,23.6
		c0.5,1.9,1.3,3.8,2.1,5.6c0.8,1.8,1.9,3.5,3,4.8c1.3,1.3,2.9,2.5,4.6,3.6c1.7,1.1,3.5,2,5.3,2.9c3.7,1.7,7.5,3.1,11.5,3.9
		c2,0.5,4,0.7,6,0.8c1,0,2,0,3,0c1-0.1,2.1-0.1,3.1-0.2c4.1-0.4,8.1-1.1,11.9-2.4c3.8-1.3,7.3-3.1,10.4-5.6c1.6-1.2,3-2.6,4.4-4
		c1.3-1.3,2.5-2.8,3.6-4.5c2.2-3.3,4.1-7,6-10.8c1.9-3.7,3.7-7.5,6.2-11.2c1.2-1.8,2.6-3.6,4.7-5.1c0.6-0.5,1.2-0.6,1.7-0.9
		c0.6-0.2,1.1-0.4,1.7-0.5c1.2-0.3,2.4-0.4,3.7-0.3c1.3,0.1,2.5,0.5,3.7,1.1c0.5,0.3,1.1,0.7,1.6,1.1c0.5,0.4,0.9,0.9,1.3,1.3
		c1.4,1.8,2.4,3.6,3.6,5.4c2.2,3.6,4.4,7.1,6.8,10.5c2.4,3.4,5,6.6,7.9,9.4c2.9,2.8,6.2,5.3,9.9,7l-0.1,0l1.2,0.4c0,0,0.1,0,0.1,0
		c1.1,0.5,2.4,0.7,3.8,0.7c1.3,0,2.7-0.1,4.1-0.3c2.7-0.4,5.4-1.2,8.1-2.1c5.3-1.8,10.5-4.2,15.4-6.8c2.5-1.3,4.9-2.7,7.3-4.2
		c2.4-1.5,4.7-3.1,6.8-4.9c0.5-0.5,1-0.9,1.4-1.4c0.2-0.2,0.4-0.5,0.5-0.7c0.1-0.1,0.1-0.2,0.1-0.2c0,0,0,0,0,0.1
		c0.1,0.2,0.1,0.1-0.2,0c-0.3,0-0.5,0-0.9,0c-0.6,0-1.3,0.1-1.8,0.3c-1.2,0.4-2.1,1.1-2.6,2.2c-0.5,1-0.7,2.4-0.6,3.7
		c0.2,2.6,1.2,5.2,2.7,7.4c0.8,1.1,1.6,2.1,2.7,2.8c1,0.8,2.2,1.2,3.3,1.2c0.3,0,0.6-0.1,0.9-0.1c0.3-0.1,0.6-0.1,0.9-0.2
		c0.6-0.2,1.3-0.4,1.9-0.7c1.2-0.5,2.5-1.2,3.7-1.9l7.4-4.3c5-2.8,10.3-5.3,15.9-6.7c5.6-1.5,11.5-1.9,17.3-1.4
		c5.8,0.6,11.5,2.4,16.6,5.2c5.1,2.7,9.6,6.4,14.7,8.3c5,2.1,10.6,1.2,15.9-0.4c5.3-1.6,10.6-3.9,16-5.7c5.4-1.8,11.2-3.3,17.1-3.3
		l2.2,0c0.7,0,1.5,0.1,2.2,0.2c1.5,0.1,2.9,0.3,4.3,0.5c2.8,0.4,5.6,0.9,8.4,1.4c11.2,2,22.4,4.2,33.5,6.9
		c11.1,2.7,22.1,5.6,32.9,9.9c2.7,1.1,5.3,2.2,7.9,3.6c2.6,1.4,5.2,2.9,7.4,5.4c0.6,0.6,1.1,1.3,1.5,2.2c0.2,0.4,0.4,0.9,0.5,1.3
		c0.1,0.2,0.1,0.5,0.2,0.7c0,0.2,0.1,0.5,0.1,0.9c0,0.7-0.3,1.4-0.7,2c-0.4,0.5-0.8,0.9-1.2,1.2c-0.8,0.6-1.6,1-2.3,1.3
		c-3,1.2-5.8,1.6-8.7,2.1c-5.7,0.9-11.4,1.6-17,2.2c-5.6,0.7-11.3,1.4-16.9,2.2c-11.2,1.6-22.3,3.6-33.3,6.2
		c-10.9,2.7-21.7,6-32.1,10.3c-10.4,4.3-20.3,9.6-29.4,16c-9.1,6.4-17.4,14-24.5,22.5c-7.1,8.6-12.9,18.2-17.4,28.3
		c-0.6,1.3-1.1,2.6-1.6,3.8c-0.3,0.7-0.7,1.5-1,2.2c-0.4,0.7-0.8,1.4-1.2,2c-1.7,2.6-3.9,4.9-6.1,6.9c-4.6,3.9-9.6,7-14.8,9.6
		c-10.4,5.3-21.1,9.2-31.8,13.1c-10.7,3.9-21.4,7.5-31.9,11.8c-5.2,2.1-10.3,4.4-15.3,7c-4.9,2.6-9.6,5.6-13.6,9.2
		c-4,3.6-7.2,7.9-8.2,12.9c-0.5,2.5-0.5,5,0,7.5c0.5,2.5,1.5,5,2.7,7.4c2.4,4.8,5.8,9.2,9.5,13.2c3.8,4,8.1,7.4,12.7,10.3
		c9.3,5.8,20,9.6,30.9,12c10.9,2.4,22.1,3.6,33.4,4.1c22.5,1,45.2-0.6,67.8-2.5c11.3-1,22.6-2,34-3c11.4-0.9,22.8-1.7,34.3-1.7
		c5.8,0,11.5,0.3,17.4,1c2.9,0.4,5.8,0.9,8.7,1.7c2.9,0.8,5.8,1.8,8.5,3.3c2.7,1.5,5.4,3.6,7.4,6.3l0.7,1l0.6,1.1l0.6,1.1
		c0.2,0.4,0.3,0.8,0.5,1.2l0.5,1.2c0.2,0.4,0.2,0.8,0.3,1.1c0.2,0.8,0.4,1.5,0.6,2.3c1.3,6.2,0.5,12.4-0.9,18.2
		c-1.6,5.8-3.9,11.3-6.6,16.4c-2.7,5.2-5.9,10.1-9.2,14.8c-6.8,9.4-14.6,18-23,25.9c-8.4,7.9-17.3,15.2-26.7,21.8
		c-4.7,3.3-9.5,6.4-14.5,9.3L313,445c-0.6,0.4-1.5,0.3-2.3,0.4c-0.8,0.1-1.3,0.6-1.9,1c-0.6,0.4-1.1,0.9-1.7,1.3
		c-2.2,1.9-4.3,4-6.8,5.4c-9.9,5.9-20.4,10.8-31.3,14.5c-10.9,3.7-22.3,6.4-34,7.2c-5.8,0.4-11.7,0.3-17.5-0.4
		c-1.4-0.2-2.9-0.4-4.3-0.7l-4.2-0.7l-8.4-1.5c-11.2-1.9-22.3-3.6-33.5-4c-5.6-0.2-11.2-0.1-16.6,0.6c-5.5,0.7-10.9,1.9-15.8,4.2
		l-1.8,0.8l-1.7,1l-0.9,0.5c-0.3,0.2-0.5,0.4-0.8,0.6l-1.6,1.1c-2.1,1.7-4,3.4-5.6,5.6c-3.3,4.2-5.4,9.2-6.6,14.5l-0.7,4l-0.5,4.1
		c-0.1,1.4-0.2,2.8-0.3,4.2c-0.1,1.4-0.1,2.8-0.1,4.2c-0.1,5.6,0.3,11.1,1.2,16.6c0.8,5.5,2.2,10.9,4,16.2c1.9,5.2,4.2,10.3,7,15.1
		c2.9,4.7,6.3,9.1,10.2,13.1l3,2.9c1,0.9,2.1,1.8,3.2,2.6c1,0.9,2.2,1.7,3.3,2.5c1.1,0.8,2.2,1.6,3.5,2.3l3.6,2.1l3.7,1.8
		c1.2,0.6,2.5,1.1,3.8,1.6c1.3,0.5,2.6,1.1,3.9,1.5c2.7,0.8,5.3,1.7,8,2.3c1.4,0.3,2.7,0.7,4.1,0.9l4.1,0.7
		c11.1,1.6,22.4,1.5,33.6,0.2c2.8-0.3,5.6-0.8,8.4-1.2c2.8-0.4,5.5-1,8.3-1.5c2.8-0.5,5.5-1.2,8.3-1.9l4.1-1l4.1-1.1
		c11-2.9,21.9-5.9,32.8-9c10.9-3.1,21.8-6.5,32.5-10.2c5.3-1.8,10.7-3.8,15.9-6c5.2-2.2,10.3-4.5,15.2-7.2c1.2-0.7,2.4-1.4,3.6-2.1
		l1.8-1.1l1.7-1.2c1.2-0.8,2.2-1.7,3.3-2.5c1-0.9,2.1-1.8,3.1-2.7c4-3.8,7-8.4,9.1-13.5c1-2.5,1.8-5.2,2.5-7.9
		c0.3-1.4,0.7-2.7,1-4.1c0.2-0.7,0.3-1.3,0.4-2c0.1-0.6,0.2-1.3,0.2-1.9c0.1-2.6-0.6-5.1-1.8-7.3c-1.3-2.2-3-4.2-5.2-5.9
		c-4.2-3.3-9.4-5.4-14.8-6.6c-5.4-1.2-10.9-1.5-16.4-0.8c-5.4,0.7-10.7,2.4-14.9,5.7c-2.1,1.6-3.8,3.6-5,5.9
		c-1.2,2.3-1.9,4.9-2.1,7.5c-0.1,1.3-0.1,2.7,0,4c0.1,1.3,0.3,2.7,0.5,4.1c0.2,1.4,0.5,2.7,0.8,4.1c0.3,1.3,0.6,2.7,1,4
		c1.5,5.4,3.5,10.6,5.7,15.8c4.5,10.3,9.9,20.3,15.5,30.1c5.6,9.9,11.5,19.6,16.9,29.7c2.7,5,5.3,10.2,7.4,15.5c1,2.7,2,5.5,2.6,8.4
		c0.6,2.9,0.8,6.1,0.1,9c-0.6,3-1.8,5.8-3.3,8.3c-1.5,2.6-3.4,4.9-5.4,7c-2,2.1-4.2,4.1-6.5,5.9c-2.3,1.8-4.6,3.5-7.1,5
		c-9.8,6.1-20.5,10.6-31.5,13.7c-5.5,1.6-11.1,2.8-16.8,3.6c-1.4,0.2-2.8,0.4-4.3,0.6c-1.4,0.1-2.9,0.3-4.3,0.4
		c-1.4,0.1-2.9,0.2-4.2,0.3c-0.7,0.1-1.3,0.2-2,0.3c-0.7,0.2-1.3,0.3-2,0.5c-5.3,1.5-10.1,4.5-14.3,8.1c-4.3,3.6-8,7.8-11.4,12.3
		c-6.8,9-12.1,19.1-16.1,29.6c-2,5.3-3.6,10.7-4.8,16.2c-1.2,5.5-1.9,11.2-1.8,16.8c0.1,5.6,0.9,11.3,3.1,16.5
		c2.2,5.2,6,9.7,10.9,12.5l-0.1,0.3c-5.1-2.7-9-7.3-11.3-12.5c-2.3-5.3-3.3-11-3.4-16.7c-0.1-5.7,0.5-11.5,1.6-17.1
		c1.1-5.6,2.7-11.1,4.6-16.5c3.9-10.7,9.2-21,16-30.2c3.4-4.6,7.2-9,11.6-12.8c4.4-3.8,9.3-7,15-8.7c0.7-0.2,1.4-0.4,2.2-0.5
		c0.7-0.1,1.5-0.3,2.2-0.4c1.5-0.1,2.9-0.2,4.3-0.3c1.4-0.1,2.8-0.3,4.2-0.4c1.4-0.2,2.8-0.3,4.2-0.6c5.6-0.9,11.1-2.1,16.5-3.7
		c10.8-3.2,21.3-7.6,30.7-13.7c2.4-1.5,4.6-3.1,6.8-4.9c2.2-1.7,4.2-3.6,6.1-5.6c1.9-2,3.6-4.2,5-6.5c1.4-2.3,2.4-4.8,2.9-7.4
		c0.5-2.6,0.4-5.2-0.2-7.9c-0.6-2.7-1.5-5.3-2.5-7.9c-2.1-5.2-4.6-10.2-7.3-15.2c-10.8-19.9-23.5-38.9-32.8-59.9
		c-2.3-5.3-4.4-10.6-5.9-16.2c-0.4-1.4-0.7-2.8-1.1-4.2c-0.3-1.4-0.6-2.9-0.8-4.3c-0.2-1.5-0.4-2.9-0.5-4.4c-0.1-1.5-0.1-3,0-4.5
		c0.3-3,1-6.1,2.5-8.8c1.4-2.7,3.5-5.1,5.9-7c4.9-3.8,10.7-5.6,16.6-6.4c5.9-0.8,11.8-0.4,17.5,0.9c5.7,1.3,11.3,3.5,16.1,7.2
		c2.4,1.8,4.5,4.2,6,6.9c1.5,2.7,2.3,5.9,2.2,9c0,0.8-0.1,1.6-0.2,2.3c-0.1,0.8-0.3,1.5-0.4,2.2c-0.3,1.4-0.6,2.8-1,4.2
		c-0.7,2.8-1.6,5.6-2.7,8.3c-2.2,5.5-5.5,10.6-9.8,14.6c-1,1.1-2.2,2-3.3,2.9c-1.2,0.9-2.3,1.8-3.5,2.6l-1.8,1.2l-1.8,1.2
		c-1.2,0.8-2.5,1.5-3.7,2.2c-5.1,2.8-10.3,5.2-15.6,7.4c-5.3,2.2-10.7,4.2-16,6c-10.8,3.7-21.7,7.1-32.6,10.2
		c-10.9,3.2-21.9,6.2-32.9,9.1l-4.1,1.1l-4.2,1c-2.8,0.6-5.5,1.4-8.4,1.9c-2.8,0.5-5.6,1.1-8.5,1.6c-2.8,0.4-5.7,0.8-8.5,1.2
		c-11.4,1.3-23,1.5-34.5-0.1l-4.3-0.7c-1.4-0.3-2.8-0.6-4.2-0.9c-2.8-0.6-5.6-1.5-8.4-2.3c-1.4-0.4-2.7-1-4.1-1.5
		c-1.4-0.5-2.7-1-4-1.7l-3.9-1.9l-3.8-2.2c-1.3-0.7-2.5-1.6-3.7-2.4c-1.2-0.8-2.4-1.6-3.5-2.6c-1.1-0.9-2.3-1.8-3.4-2.8l-3.2-3
		c-4.1-4.2-7.7-8.8-10.8-13.7c-3-5-5.5-10.3-7.4-15.8c-2-5.5-3.4-11.1-4.3-16.8c-0.9-5.7-1.4-11.5-1.4-17.3c0-1.4,0-2.9,0.1-4.3
		c0.1-1.4,0.2-2.9,0.3-4.3l0.5-4.3l0.8-4.4c1.2-5.8,3.6-11.5,7.3-16.3c1.8-2.5,4-4.5,6.4-6.4l1.9-1.3c0.3-0.2,0.6-0.4,0.9-0.6l1-0.6
		l2-1.1l2-1c5.4-2.5,11.3-3.9,17-4.6c5.8-0.8,11.6-0.9,17.4-0.7c11.6,0.3,22.9,1.9,34.2,3.7l8.4,1.4l4.2,0.7
		c1.4,0.2,2.7,0.4,4.1,0.6c5.5,0.6,11,0.6,16.5,0.2c11-0.8,22-3.4,32.5-7.1c5.3-1.8,10.5-3.9,15.6-6.1c5.1-2.2,10.2-4.6,15.3-7.1
		c2.5-1.3,5.3-2,8-3c0.7-0.3,1.3-0.5,2-0.9c0.6-0.4,1.3-0.6,1.8-1.2c0.5-0.6,0.8-1.4,1.4-1.8l1.7-1.2c4.6-3.2,9.2-6.6,13.6-10
		c8.9-6.9,17.5-14.2,25.4-22.1c7.9-7.9,15.4-16.4,21.9-25.4c3.3-4.5,6.3-9.2,8.9-14.1c2.6-4.9,4.8-9.9,6.2-15.1
		c1.3-5.2,2-10.5,1-15.5c-0.5-2.6-1.3-4.8-2.7-6.7c-1.4-1.9-3.3-3.5-5.5-4.7c-2.2-1.3-4.7-2.2-7.3-2.9c-2.6-0.8-5.3-1.2-8-1.6
		c-5.5-0.8-11-1.1-16.6-1.1c-11.2-0.1-22.5,0.6-33.8,1.5c-11.3,0.9-22.6,1.9-34,2.9c-22.7,1.9-45.5,3.4-68.4,2.4
		c-11.5-0.6-22.9-1.8-34.2-4.3c-11.3-2.5-22.4-6.4-32.4-12.6c-5-3.1-9.6-6.8-13.7-11.1c-4-4.3-7.6-9-10.4-14.4
		c-1.3-2.7-2.5-5.6-3.1-8.6c-0.6-3.1-0.7-6.3,0-9.4c0.6-3.1,1.9-6.1,3.7-8.6c1.7-2.6,3.8-4.8,6-6.8c4.5-4,9.5-7.1,14.6-9.8
		c5.1-2.7,10.4-5.1,15.7-7.2c10.6-4.3,21.4-8.1,32-12c10.6-3.9,21.3-7.9,31.2-13c4.9-2.6,9.7-5.5,13.7-9c2-1.8,3.8-3.7,5.2-5.8
		c0.3-0.5,0.6-1.1,1-1.6l0.8-1.7c0.5-1.3,1.1-2.7,1.7-4c4.6-10.6,10.8-20.6,18.2-29.6c7.4-8.9,16.2-16.8,25.7-23.3
		c9.5-6.6,19.8-11.9,30.5-16.3c10.7-4.3,21.7-7.7,32.8-10.3c11.2-2.6,22.5-4.6,33.8-6.1c5.7-0.7,11.3-1.4,17-2
		c5.6-0.6,11.3-1.2,16.8-2.1c2.7-0.4,5.5-0.9,7.9-1.8c0.6-0.2,1.1-0.5,1.4-0.7c0.1-0.1,0.3-0.2,0.3-0.3c0-0.1,0,0,0,0c0,0,0,0,0-0.2
		c0-0.1,0-0.2-0.1-0.3c-0.1-0.2-0.1-0.4-0.2-0.6c-0.2-0.4-0.5-0.9-0.9-1.3c-1.6-1.8-3.9-3.3-6.3-4.6c-2.4-1.3-4.9-2.5-7.5-3.5
		c-10.4-4.2-21.3-7.3-32.3-10c-11-2.7-22.1-5.1-33.2-7.2c-2.8-0.5-5.6-1-8.4-1.4c-1.4-0.2-2.8-0.4-4.1-0.5c-0.7-0.1-1.4-0.1-2-0.2
		l-2.1,0c-5.5,0-10.9,1.3-16.3,3c-5.3,1.7-10.6,3.9-16.1,5.6c-2.8,0.8-5.7,1.4-8.7,1.6c-3,0.2-6.1-0.3-8.8-1.4
		c-5.6-2.2-10-6-14.9-8.6c-4.9-2.7-10.2-4.4-15.7-5c-5.5-0.6-11.1-0.2-16.5,1.2c-5.4,1.4-10.5,3.7-15.4,6.5l-7.4,4.3
		c-1.3,0.7-2.5,1.4-3.9,1.9c-0.7,0.3-1.4,0.5-2.1,0.8c-0.4,0.1-0.8,0.1-1.2,0.2c-0.4,0-0.8,0.2-1.2,0.1c-0.9,0-1.7-0.2-2.5-0.5
		c-0.7-0.3-1.5-0.7-2.1-1.2c-1.3-0.9-2.3-2.1-3.1-3.3c-1.7-2.5-2.8-5.4-3-8.4c-0.1-1.5,0-3.2,0.8-4.7c0.3-0.8,0.9-1.4,1.5-2
		c0.7-0.5,1.4-0.9,2.2-1.2c0.8-0.3,1.6-0.3,2.4-0.4c0.4,0,0.8,0,1.3,0.1c0.3,0.1,0.5,0.1,0.8,0.2c0.3,0.1,0.6,0.4,0.8,0.8
		c0.2,0.4,0.2,0.8,0.1,1.1c-0.1,0.3-0.2,0.5-0.3,0.7c-0.2,0.4-0.5,0.7-0.7,1c-0.5,0.6-1.1,1.1-1.6,1.6c-2.2,1.9-4.6,3.5-7,5.1
		c-2.4,1.5-4.9,2.9-7.4,4.3c-5.1,2.7-10.3,5.1-15.7,7c-2.7,0.9-5.5,1.7-8.4,2.3c-1.4,0.2-2.9,0.4-4.4,0.4c-1.5,0-3.1-0.2-4.6-0.8
		l0.1,0l-1.3-0.4c0,0-0.1,0-0.1,0l0,0c-4-1.8-7.5-4.3-10.7-7.2c-3.1-2.9-5.9-6.2-8.5-9.6c-2.5-3.4-4.9-6.9-7.2-10.4
		c-1.2-1.7-2.3-3.5-3.5-5c-0.3-0.3-0.6-0.7-0.9-0.9c-0.3-0.3-0.7-0.5-1-0.7c-0.7-0.3-1.5-0.6-2.3-0.6c-0.8,0-1.7,0.1-2.6,0.3
		c-0.4,0.1-0.9,0.3-1.3,0.4c-0.4,0.2-0.9,0.4-1,0.6c-0.3,0.3-0.6,0.5-0.9,0.8l-0.9,1c-0.6,0.8-1.2,1.5-1.7,2.4
		c-2.1,3.4-3.8,7.2-5.6,10.9c-1.8,3.8-3.6,7.6-5.9,11.4c-1.1,1.9-2.5,3.7-4.1,5.4c-1.5,1.6-3.3,3-5.1,4.2c-3.6,2.6-7.8,4.4-12,5.6
		c-4.2,1.1-8.5,1.7-12.8,1.9c-1.1,0.1-2.1,0.1-3.2,0.1c-1.1,0-2.2,0-3.3,0c-1.1-0.1-2.2-0.1-3.2-0.3l-1.6-0.2L51.2,88
		c-4.3-0.7-8.4-2.1-12.3-3.9c-2-0.9-3.9-1.9-5.8-3c-1.9-1.1-3.7-2.4-5.4-4c-1.7-1.8-2.9-3.7-3.9-5.7c-1-2-1.8-4-2.5-6.1
		c-2.7-8.4-2.8-17.5-0.6-26c0.6-2.1,1.3-4.3,2.2-6.3c1-2,2.1-4,3.4-5.8c2.7-3.6,6-6.7,9.7-9.2c7.4-4.9,16.2-7.6,25.1-7.6
		c4.5,0.1,8.9,1,13.1,2.5c4.2,1.5,8.2,3.7,11.7,6.8c3.4,3,6.2,7,7.6,11.5c0.7,2.2,1.2,4.5,1.4,6.8c0.2,2.3,0.1,4.5-0.1,6.7
		c-0.3,4.4-1.3,8.9-3.3,13.1l-0.8,1.5c-0.3,0.5-0.6,1-0.9,1.5c-0.6,1-1.3,1.9-2,2.8c-1.5,1.8-3.1,3.5-4.9,4.8
		c-0.9,0.7-1.9,1.3-2.8,2c-1,0.6-2,1.2-3,1.6c-2,1-4.1,1.8-6.3,2.4c-2.2,0.7-4.5,1-6.8,1.2c-2.3,0.2-4.6,0.1-6.9-0.3
		c-2.3-0.4-4.6-1.1-6.8-2.2c-2.2-1.2-4.2-3-5.5-5.4c-0.4-0.6-0.6-1.2-0.8-1.9c-0.1-0.3-0.2-0.6-0.3-1l-0.2-1l-0.1-1
		c0-0.3,0-0.6,0-0.9c0-0.6,0-1.2,0-1.8c0.2-2.5,0.9-5,2.3-7.1c1.4-2.2,3.3-3.9,5.4-5.1c2.1-1.2,4.5-2,6.8-2.4
		c2.4-0.3,4.8-0.3,7.2,0.3c2.4,0.6,4.8,1.7,6.7,3.5l-4.3,2.4l0,0c-0.2-0.7-0.5-1.6-0.8-2.4c-0.3-0.8-0.7-1.6-1.2-2.3
		c-0.2-0.4-0.4-0.7-0.7-1c-0.3-0.3-0.4-0.6-0.8-0.9c-0.3-0.3-0.6-0.6-0.9-0.8l-1-0.8c-2.8-1.9-6.2-3-9.8-3.3
		c-7.2-0.7-14.6,1.5-21.4,4.8L29,46.3L27.7,47l-1.2,0.7c-1.6,1-3.4,2-4.7,3c-2.8,2.2-5.1,5-7,8.2c-1.9,3.2-3.3,6.7-4.2,10.3
		c-0.5,1.8-0.8,3.7-1.1,5.5c-0.3,1.9,0,3.7-1.1,5.6L5.6,80.5z"/>
</g>
</svg>
