<svg id="Layer_2" data-name="Layer 2" xmlns="http://www.w3.org/2000/svg" xmlns:xlink="http://www.w3.org/1999/xlink" viewBox="0 0 428.03 788.1"><defs><style>.cls-1{fill:url(#linear-gradient);}.cls-2{font-size:6px;font-family:Tahoma;}</style><linearGradient id="linear-gradient" x1="204.17" y1="790.44" x2="204.17" y2="17.94" gradientUnits="userSpaceOnUse"><stop offset="0" stop-color="#467db6" stop-opacity="0"/><stop offset="1" stop-color="#467db6"/></linearGradient></defs><title>logo</title><path class="cls-1" d="M5.58,80.49c-1.12-2-.68-4.15-.53-6.19a46.71,46.71,0,0,1,1-6.11,45.17,45.17,0,0,1,4.48-11.6,32.63,32.63,0,0,1,8.14-9.72c.84-.68,1.77-1.29,2.59-1.83s1.7-1.11,2.58-1.62c1.72-1.07,3.52-2,5.34-3a55.74,55.74,0,0,1,11.56-4.33,37.51,37.51,0,0,1,12.57-1.07,25.26,25.26,0,0,1,12.28,4.27,17.12,17.12,0,0,1,2.61,2.23,14.65,14.65,0,0,1,2.14,2.8,21.36,21.36,0,0,1,1.49,3,21.71,21.71,0,0,1,1.05,3.22A2.55,2.55,0,0,1,68.72,53l0-.05C66.39,50.83,62.54,50,59,50.59a12.18,12.18,0,0,0-8.61,5.23A9.93,9.93,0,0,0,49,60.57a8.18,8.18,0,0,0,0,1.31,9.14,9.14,0,0,0,.1,1.23,6.87,6.87,0,0,0,.75,2.15c1.45,2.67,5,4.31,8.65,4.89a25.88,25.88,0,0,0,11.3-.8,32.15,32.15,0,0,0,10.33-5.22A23.41,23.41,0,0,0,87,55.27,32.68,32.68,0,0,0,89.72,44a28,28,0,0,0-1.13-11.41,21.55,21.55,0,0,0-6.29-9.2,30.76,30.76,0,0,0-10.06-5.7,36.1,36.1,0,0,0-11.51-2.11,41.08,41.08,0,0,0-22.31,7A33.75,33.75,0,0,0,30,30.58a29.21,29.21,0,0,0-2.92,5c-.4.88-.75,1.78-1.07,2.7s-.61,1.89-.85,2.85a42,42,0,0,0,.76,23.52,40,40,0,0,0,2.24,5.51A22.35,22.35,0,0,0,31.27,75a30.25,30.25,0,0,0,9.21,7.17,42.55,42.55,0,0,0,23.33,4A43.81,43.81,0,0,0,86,77.88a30,30,0,0,0,4.3-4,19.86,19.86,0,0,0,1.79-2.27c.57-.8,1.14-1.63,1.68-2.47,2.17-3.41,4.07-7.12,6-10.85a111.17,111.17,0,0,1,6.35-11.17A20.53,20.53,0,0,1,110.83,42l.41-.28.28-.16.22-.11c.28-.14.56-.26.84-.37a13.32,13.32,0,0,1,1.72-.57,11.92,11.92,0,0,1,3.69-.38,9.25,9.25,0,0,1,3.72,1,9.63,9.63,0,0,1,2.92,2.43c.41.51.7.93,1,1.38s.61.9.9,1.35l1.7,2.69c2.21,3.59,4.37,7.15,6.77,10.54a66.84,66.84,0,0,0,7.91,9.48,36.06,36.06,0,0,0,9.94,7l-.14,0,1.25.37h0l.12,0a9.61,9.61,0,0,0,3.65.69,22.28,22.28,0,0,0,4-.31,48,48,0,0,0,7.9-2,107,107,0,0,0,15.12-6.58,90.52,90.52,0,0,0,13.9-8.77,13.59,13.59,0,0,0,2.7-2.72,1.32,1.32,0,0,0,.2-.42.31.31,0,0,0,.09.19s0,0-.08,0a5,5,0,0,0-1.67,0,4.88,4.88,0,0,0-3.1,1.41,5.32,5.32,0,0,0-1.28,3.21,13.9,13.9,0,0,0,1.81,7.43,14.88,14.88,0,0,0,2.26,3.16,8.15,8.15,0,0,0,3,2.09,4.47,4.47,0,0,0,1.67.3,7.75,7.75,0,0,0,1.8-.29,19.92,19.92,0,0,0,3.65-1.5c2.41-1.23,4.77-2.69,7.18-4.09A75.53,75.53,0,0,1,232.13,61a48.13,48.13,0,0,1,16.76-2.37,43.33,43.33,0,0,1,16.56,3.72c5.23,2.3,9.74,5.79,14.45,8.4a23,23,0,0,0,7.41,2.68,22.32,22.32,0,0,0,7.84-.32c5.26-1.08,10.37-3.24,15.6-5.15A79.06,79.06,0,0,1,327,63.41a41.77,41.77,0,0,1,8.59-.39c2.91.19,5.61.65,8.38,1,11,1.61,22,3.62,32.76,7.09a70,70,0,0,1,15.54,6.94,30.64,30.64,0,0,1,6.76,5.64,17.47,17.47,0,0,1,4.16,8.16,13.75,13.75,0,0,1,.14,4.81,9.23,9.23,0,0,1-2.25,4.6,14.35,14.35,0,0,1-3.77,2.92,28.86,28.86,0,0,1-4.08,1.83,106.45,106.45,0,0,1-16.52,3.88c-11,1.88-21.89,3.55-32.61,6a172.08,172.08,0,0,0-31.21,10.11A121.21,121.21,0,0,0,285.09,143a114.66,114.66,0,0,0-21.95,23.91,131.48,131.48,0,0,0-8.41,14c-1.26,2.42-2.44,4.87-3.57,7.36-.56,1.23-1.09,2.49-1.64,3.74l-.78,1.89c-.25.58-.57,1.41-.92,2.08a28.81,28.81,0,0,1-5.37,7.36,48.26,48.26,0,0,1-6.74,5.63,99.49,99.49,0,0,1-14.9,8.34c-20.49,9.36-42,15.31-62.21,23.94a147.1,147.1,0,0,0-14.72,7.15A58.74,58.74,0,0,0,131,257.73c-3.66,3.68-6.32,8.18-6.73,13.08s1.19,9.93,3.74,14.5A60.72,60.72,0,0,0,137.71,298a66.07,66.07,0,0,0,12.62,9.88c9.2,5.6,19.6,9.18,30.23,11.55a194.07,194.07,0,0,0,32.59,4c11,.51,22,.38,33.06-.09,22.08-.93,44.12-3.24,66.28-5.1,11.08-.91,22.19-1.76,33.41-1.93,5.61-.07,11.24,0,16.91.5a67.48,67.48,0,0,1,17,3.39,30.13,30.13,0,0,1,8.06,4.32,20.38,20.38,0,0,1,6.06,7.43l.48,1.12.41,1.14c.24.74.45,1.48.63,2.23a31.78,31.78,0,0,1,.74,4.52,38.88,38.88,0,0,1-.26,9,62.86,62.86,0,0,1-5.05,16.68,108.24,108.24,0,0,1-8.25,15,166.78,166.78,0,0,1-21.45,26.14A250.93,250.93,0,0,1,335.93,430,268.91,268.91,0,0,1,278.12,464a161,161,0,0,1-15.88,5.8,128.78,128.78,0,0,1-16.53,3.86,106,106,0,0,1-17,1.51c-2.85,0-5.72-.12-8.57-.39s-5.76-.73-8.45-1.22c-10.94-2-21.79-4-32.72-5.13a157.63,157.63,0,0,0-16.36-1,87.71,87.71,0,0,0-16.15,1.28,47.55,47.55,0,0,0-15,5.12,34.58,34.58,0,0,0-6.27,4.59,31.49,31.49,0,0,0-4.91,6A39.52,39.52,0,0,0,115,499.22a98.61,98.61,0,0,0,4.65,48.14,74.41,74.41,0,0,0,17.25,27.17,71.39,71.39,0,0,0,27.47,16.73,102,102,0,0,0,32.18,5,165.35,165.35,0,0,0,32.71-3.35c5.41-1,10.74-2.37,16.1-3.77l16.06-4.3c10.7-2.93,21.36-5.94,32-9.18S314.52,569,324.79,565c5.13-2,10.18-4.19,15.07-6.65a80.94,80.94,0,0,0,13.82-8.58,40,40,0,0,0,10.4-12,57.6,57.6,0,0,0,5.36-15.19l.45-2c.11-.66.25-1.25.3-1.88a14.11,14.11,0,0,0-.05-3.73,14.79,14.79,0,0,0-2.87-6.81c-3.07-4.07-7.77-6.92-12.73-8.79a47.79,47.79,0,0,0-15.72-2.93,39.84,39.84,0,0,0-15.62,2.65c-4.86,1.95-9.13,5.34-11.29,9.95a19.52,19.52,0,0,0-1.82,7.4,25.42,25.42,0,0,0,.07,3.9c.12,1.33.31,2.67.53,4,1.86,10.68,6.09,20.95,10.84,30.86s10.28,19.54,15.83,29.14,11.26,19.13,16.31,29.12a90.4,90.4,0,0,1,6.4,15.66,27.33,27.33,0,0,1,1.12,8.7,23.58,23.58,0,0,1-2.28,8.54,42.46,42.46,0,0,1-10.7,13.36,83.56,83.56,0,0,1-13.88,9.64,129.28,129.28,0,0,1-31.21,12.27,124.88,124.88,0,0,1-16.51,3c-2.77.34-5.63.51-8.35.66a25.39,25.39,0,0,0-7.72,1.85,45.8,45.8,0,0,0-13.44,9,82.88,82.88,0,0,0-10.79,12.39,120.52,120.52,0,0,0-15.26,29.22c-3.71,10.36-6.23,21.3-6,32.34a42.27,42.27,0,0,0,3.24,16.07A25.65,25.65,0,0,0,239,798.34l-.15.27a26,26,0,0,1-11.16-12.16,43.15,43.15,0,0,1-3.57-16.3c-.37-11.2,2-22.31,5.6-32.84a122.58,122.58,0,0,1,15.13-29.79,85,85,0,0,1,10.89-12.8,47.66,47.66,0,0,1,14-9.56,27.39,27.39,0,0,1,8.38-2.11c2.82-.17,5.5-.36,8.24-.7a121.88,121.88,0,0,0,16.18-3.11A126.17,126.17,0,0,0,333,667a81,81,0,0,0,13.36-9.4,39.79,39.79,0,0,0,9.9-12.5,20.38,20.38,0,0,0,1.95-7.46,24.69,24.69,0,0,0-1.06-7.73,88.06,88.06,0,0,0-6.24-15.08c-5-9.81-10.73-19.31-16.31-28.91s-11.14-19.26-16-29.3c-2.44-5-4.72-10.15-6.67-15.42a90.65,90.65,0,0,1-4.53-16.32c-.24-1.41-.43-2.81-.57-4.25a30.87,30.87,0,0,1-.08-4.41,21.81,21.81,0,0,1,4.52-12.5,24.45,24.45,0,0,1,3.11-3.24A28.45,28.45,0,0,1,318,497.9a32.16,32.16,0,0,1,4-1.95,43.28,43.28,0,0,1,17-2.91,51.11,51.11,0,0,1,16.85,3.15,38.16,38.16,0,0,1,7.76,3.91,26.37,26.37,0,0,1,6.51,6,18.31,18.31,0,0,1,3.51,8.36,17.57,17.57,0,0,1,.06,4.58,22.34,22.34,0,0,1-.36,2.22l-.45,2.06a60.88,60.88,0,0,1-5.69,16.08,43.24,43.24,0,0,1-11.26,13,83.55,83.55,0,0,1-14.4,9c-5,2.53-10.17,4.74-15.37,6.79-10.4,4.07-21,7.53-31.62,10.8s-21.33,6.28-32,9.21l-16.09,4.32c-5.38,1.41-10.82,2.78-16.31,3.83a172.42,172.42,0,0,1-33.41,3.46,105.45,105.45,0,0,1-33.34-5.07,75.09,75.09,0,0,1-29-17.49A78.31,78.31,0,0,1,116,548.75a103.08,103.08,0,0,1-5.16-50.21,43.73,43.73,0,0,1,5.79-16.4,35.8,35.8,0,0,1,5.57-6.88,38.39,38.39,0,0,1,7.1-5.28,52,52,0,0,1,16.34-5.75,92.79,92.79,0,0,1,17-1.47c5.65,0,11.27.31,16.86.85,11.16,1.09,22.18,2.95,33.11,4.75,2.77.47,5.34.86,8,1.06s5.36.3,8,.27a104.06,104.06,0,0,0,16.11-1.52,144.85,144.85,0,0,0,15.87-3.7c5.24-1.51,10.42-3.24,15.53-5.23s10.13-4.16,15.05-6.6,9.72-5.12,14.44-7.93a245,245,0,0,0,27-18.84c17.12-13.72,32.71-29.58,44.79-47.62a102.28,102.28,0,0,0,7.88-14.1,58,58,0,0,0,4.68-15,33.7,33.7,0,0,0,.31-7.62,25.08,25.08,0,0,0-.57-3.69c-.13-.61-.3-1.21-.48-1.79l-.28-.82-.34-.79c-1.87-4.21-6-7.14-10.85-8.93a61.78,61.78,0,0,0-15.53-3.24,155.84,155.84,0,0,0-16.35-.61c-11,.11-22,.86-33.06,1.74-22.07,1.8-44.21,4.07-66.49,5-11.14.45-22.31.56-33.5,0a198.65,198.65,0,0,1-33.4-4.21c-11-2.47-21.88-6.18-31.68-12.15a71.21,71.21,0,0,1-13.52-10.59,65.68,65.68,0,0,1-10.46-13.73,37.5,37.5,0,0,1-3.43-8.18,25,25,0,0,1-.88-9.1,23.12,23.12,0,0,1,2.69-8.81,31.73,31.73,0,0,1,5.38-7.18,63.29,63.29,0,0,1,13.9-10.23,153.25,153.25,0,0,1,15.21-7.39c10.32-4.38,20.82-8.08,31.25-11.86s20.81-7.57,30.69-12.24a95.8,95.8,0,0,0,14.07-8C237,201.6,241,198,243.1,193.57c.49-1,1-2.4,1.55-3.7s1.1-2.59,1.69-3.87c1.17-2.57,2.4-5.12,3.71-7.62a135.55,135.55,0,0,1,8.77-14.52A119.15,119.15,0,0,1,282,139.07,126,126,0,0,1,311,121.75a176.56,176.56,0,0,1,32.12-10.11c10.93-2.45,22-4,32.91-5.72A102.43,102.43,0,0,0,392,102.4a15.68,15.68,0,0,0,6.35-3.62A5.49,5.49,0,0,0,399.7,96a10.2,10.2,0,0,0-.08-3.47A14,14,0,0,0,396.35,86a27.37,27.37,0,0,0-5.93-5,67.07,67.07,0,0,0-14.7-6.76c-10.38-3.47-21.26-5.58-32.17-7.29-2.72-.4-5.5-.9-8.12-1.08a38.5,38.5,0,0,0-8,.3,76.73,76.73,0,0,0-15.76,4.27c-5.2,1.84-10.38,4-16,5.12a24.87,24.87,0,0,1-8.7.27,25.53,25.53,0,0,1-8.15-3c-2.49-1.39-4.79-3-7.12-4.44a59.36,59.36,0,0,0-7.13-4,41,41,0,0,0-15.71-3.58,46.13,46.13,0,0,0-16,2.2A74.42,74.42,0,0,0,217.94,70c-2.39,1.38-4.76,2.84-7.29,4.13a22.26,22.26,0,0,1-4.05,1.63,9.45,9.45,0,0,1-2.3.35,6.46,6.46,0,0,1-2.4-.43,10.27,10.27,0,0,1-3.76-2.6,17,17,0,0,1-2.57-3.6,15.76,15.76,0,0,1-2-8.54,7.21,7.21,0,0,1,1.8-4.36,6.8,6.8,0,0,1,4.3-2,6.33,6.33,0,0,1,2.46.1,2.09,2.09,0,0,1,.83.47,1.65,1.65,0,0,1,.5,1.11,2.71,2.71,0,0,1-.49,1.51,15.26,15.26,0,0,1-3.13,3.18,91.92,91.92,0,0,1-14.24,8.92,112.26,112.26,0,0,1-15.36,6.74,56.74,56.74,0,0,1-8.19,2.18,25.58,25.58,0,0,1-4.31.39,11.43,11.43,0,0,1-4.47-.82l.13,0L152.14,78,152,78h0a38.38,38.38,0,0,1-10.71-7.22,71.4,71.4,0,0,1-8.49-9.6c-2.56-3.41-4.89-7-7.2-10.45l-1.75-2.57L123,46.9c-.29-.4-.61-.83-.88-1.14a5.68,5.68,0,0,0-4.27-2.06,8.38,8.38,0,0,0-2.54.36,9.5,9.5,0,0,0-1.26.46c-.2.09-.4.18-.58.28l-.13.07c-.07,0,0,0-.06.05l-.23.17a17.49,17.49,0,0,0-3.62,4.25,106.14,106.14,0,0,0-5.77,10.91C101.78,64,100,67.87,97.73,71.62a31.2,31.2,0,0,1-4,5.4,34.88,34.88,0,0,1-5,4.49A48.53,48.53,0,0,1,64.21,90.4c-8.67.75-17.7-.33-25.71-4.34a34.57,34.57,0,0,1-10.62-8.13,26.54,26.54,0,0,1-3.79-5.68,43.68,43.68,0,0,1-2.57-6.13A46.35,46.35,0,0,1,20.47,40c.27-1.08.59-2.14.93-3.19s.77-2.13,1.23-3.17A34.86,34.86,0,0,1,26,27.72a38.28,38.28,0,0,1,9.61-9.35A46.19,46.19,0,0,1,60.73,10.5a41,41,0,0,1,13.19,2.36,35.92,35.92,0,0,1,11.74,6.65,26.68,26.68,0,0,1,7.79,11.36,33.22,33.22,0,0,1,1.43,13.47,37.33,37.33,0,0,1-3.14,13.09,28.84,28.84,0,0,1-8.46,10.78,37.37,37.37,0,0,1-12,6.1,31.12,31.12,0,0,1-13.64.94A21.67,21.67,0,0,1,50.84,73a13.54,13.54,0,0,1-5.56-5.28A12.08,12.08,0,0,1,44,64a14.4,14.4,0,0,1-.17-1.9,14.13,14.13,0,0,1,0-1.84A15.31,15.31,0,0,1,46,53.09a15.88,15.88,0,0,1,5.37-5.17,19,19,0,0,1,6.84-2.4,19.17,19.17,0,0,1,7.23.25,14.54,14.54,0,0,1,6.71,3.49l-4.26,2.41a18,18,0,0,0-.79-2.39A17,17,0,0,0,66,47a9.68,9.68,0,0,0-1.43-1.89,12.2,12.2,0,0,0-1.88-1.6,20.32,20.32,0,0,0-9.81-3.38A32.7,32.7,0,0,0,42,41,52.22,52.22,0,0,0,31.46,45c-1.69.84-3.38,1.73-5,2.72-.83.48-1.63,1-2.44,1.51a23.9,23.9,0,0,0-2.25,1.55,29.14,29.14,0,0,0-7,8.22A41,41,0,0,0,10.5,69.28,45.16,45.16,0,0,0,9.44,74.8c-.31,1.87,0,3.7-1.07,5.61Z" transform="translate(-4.84 -10.5)"/><text class="cls-2" transform="translate(257.71 47.47) rotate(21.24)">S</text><text class="cls-2" transform="translate(260.75 48.65) rotate(25.6)">p</text><text class="cls-2" transform="matrix(0.88, 0.47, -0.47, 0.88, 263.69, 50.09)">i</text><text class="cls-2" transform="matrix(0.86, 0.51, -0.51, 0.86, 264.87, 50.7)">n</text><text class="cls-2" transform="matrix(0.84, 0.54, -0.54, 0.84, 267.73, 52.4)">n</text><text class="cls-2" transform="translate(270.54 54.19) rotate(32.52)">e</text><text class="cls-2" transform="matrix(0.86, 0.5, -0.5, 0.86, 273.23, 55.93)">n</text><text class="cls-2" transform="translate(276.29 57.68) rotate(26.19)"> </text><text class="cls-2" transform="matrix(0.94, 0.34, -0.34, 0.94, 278.22, 58.67)">S</text><text class="cls-2" transform="translate(281.72 59.84) rotate(12.38)">i</text><text class="cls-2" transform="translate(283.37 60.24) rotate(4.75)">e</text><text class="cls-2" transform="translate(286.89 60.46) rotate(-3.1)"> </text><text class="cls-2" transform="translate(289.03 60.36) rotate(-9.17)">d</text><text class="cls-2" transform="translate(292.53 59.77) rotate(-14.4)">e</text><text class="cls-2" transform="matrix(0.95, -0.3, 0.3, 0.95, 295.73, 58.94)">n</text><text class="cls-2" transform="translate(298.96 57.89) rotate(-19.26)"> </text><text class="cls-2" transform="translate(300.72 57.28) rotate(-20.09)">F</text><text class="cls-2" transform="matrix(0.94, -0.35, 0.35, 0.94, 303.37, 56.31)">a</text><text class="cls-2" transform="matrix(0.94, -0.34, 0.34, 0.94, 306.34, 55.2)">d</text><text class="cls-2" transform="translate(309.42 54.08) rotate(-18.91)">e</text><text class="cls-2" transform="translate(312.39 53.05) rotate(-17.14)">n</text><text class="cls-2" transform="translate(315.56 52.09) rotate(-15.29)"> </text><text class="cls-2" transform="translate(317.3 51.56) rotate(-12.23)">m</text><text class="cls-2" transform="matrix(0.99, -0.15, 0.15, 0.99, 322.18, 50.56)">i</text><text class="cls-2" transform="translate(323.5 50.35) rotate(-6.83)">t</text><text class="cls-2" transform="matrix(1, -0.08, 0.08, 1, 325.45, 50.11)"> </text><text class="cls-2" transform="translate(327.25 49.95) rotate(-0.82)">u</text><text class="cls-2" transform="translate(330.54 49.9) rotate(4.05)">n</text><text class="cls-2" transform="matrix(0.99, 0.14, -0.14, 0.99, 333.78, 50.14)">s</text><text class="cls-2" transform="translate(336.43 50.53) rotate(8.74)"> </text><text class="cls-2" transform="translate(338.29 50.81) rotate(9.35)">w</text><text class="cls-2" transform="translate(342.67 51.53) rotate(9.89)">e</text><text class="cls-2" transform="translate(345.77 52.07) rotate(10.17)">i</text><text class="cls-2" transform="matrix(0.98, 0.18, -0.18, 0.98, 347.12, 52.32)">t</text><text class="cls-2" transform="translate(349.1 52.68) rotate(10.64)">e</text><text class="cls-2" transform="translate(352.18 53.26) rotate(10.92)">r</text><text class="cls-2" transform="translate(354.3 53.66) rotate(11.13)">!</text></svg>